font.ufo
<glyph name="exclam" format="1">
  <advance width="410"/>
  <unicode hex="0021"/>
  <outline>
    <contour>
      <point x="173" y="207" type="line"/>
      <point x="247" y="207" type="line"/>
      <point x="257" y="748" type="line"/>
      <point x="162" y="748" type="line"/>
    </contour>
    <contour>
      <point x="212" y="0" type="curve" smooth="yes"/>
      <point x="245" y="0"/>
      <point x="271" y="26"/>
      <point x="271" y="58" type="curve" smooth="yes"/>
      <point x="271" y="91"/>
      <point x="245" y="117"/>
      <point x="212" y="117" type="curve" smooth="yes"/>
      <point x="180" y="117"/>
      <point x="154" y="91"/>
      <point x="154" y="58" type="curve" smooth="yes"/>
      <point x="154" y="26"/>
      <point x="180" y="0"/>
    </contour>
  </outline>
</glyph>
<glyph name="quotedbl" format="1">
  <advance width="286"/>
  <unicode hex="0022"/>
  <outline>
    <contour>
      <point x="44" y="597" type="line"/>
      <point x="107" y="597" type="line"/>
      <point x="119" y="796" type="line"/>
      <point x="32" y="796" type="line"/>
    </contour>
    <contour>
      <point x="179" y="597" type="line"/>
      <point x="242" y="597" type="line"/>
      <point x="254" y="796" type="line"/>
      <point x="167" y="796" type="line"/>
    </contour>
  </outline>
</glyph>
<glyph name="numbersign" format="1">
  <advance width="848"/>
  <unicode hex="0023"/>
  <outline>
    <contour>
      <point x="150" y="0" type="line"/>
      <point x="238" y="0" type="line"/>
      <point x="396" y="740" type="line"/>
      <point x="308" y="740" type="line"/>
    </contour>
    <contour>
      <point x="447" y="0" type="line"/>
      <point x="535" y="0" type="line"/>
      <point x="693" y="740" type="line"/>
      <point x="605" y="740" type="line"/>
    </contour>
    <contour>
      <point x="37" y="202" type="line"/>
      <point x="732" y="202" type="line"/>
      <point x="732" y="280" type="line"/>
      <point x="37" y="280" type="line"/>
    </contour>
    <contour>
      <point x="94" y="462" type="line"/>
      <point x="790" y="462" type="line"/>
      <point x="790" y="540" type="line"/>
      <point x="94" y="540" type="line"/>
    </contour>
  </outline>
</glyph>
<glyph name="dollar" format="1">
  <advance width="652"/>
  <unicode hex="0024"/>
  <outline>
    <contour>
      <point x="264" y="-87" type="line"/>
      <point x="320" y="-87" type="line"/>
      <point x="320" y="780" type="line"/>
      <point x="264" y="780" type="line"/>
    </contour>
    <contour>
      <point x="149" y="508" type="curve" smooth="yes"/>
      <point x="149" y="587"/>
      <point x="208" y="624"/>
      <point x="285" y="624" type="curve" smooth="yes"/>
      <point x="367" y="624"/>
      <point x="412" y="575"/>
      <point x="417" y="525" type="curve"/>
      <point x="517" y="525" type="line"/>
      <point x="504" y="634"/>
      <point x="420" y="700"/>
      <point x="293" y="700" type="curve" smooth="yes"/>
      <point x="151" y="700"/>
      <point x="60" y="621"/>
      <point x="60" y="505" type="curve" smooth="yes"/>
      <point x="60" y="241"/>
      <point x="438" y="376"/>
      <point x="438" y="189" type="curve" smooth="yes"/>
      <point x="438" y="121"/>
      <point x="385" y="68"/>
      <point x="293" y="68" type="curve" smooth="yes"/>
      <point x="202" y="68"/>
      <point x="162" y="115"/>
      <point x="157" y="173" type="curve"/>
      <point x="60" y="173" type="line"/>
      <point x="60" y="59"/>
      <point x="162" y="-7"/>
      <point x="293" y="-7" type="curve" smooth="yes"/>
      <point x="448" y="-7"/>
      <point x="527" y="94"/>
      <point x="527" y="194" type="curve" smooth="yes"/>
      <point x="527" y="454"/>
      <point x="149" y="318"/>
    </contour>
  </outline>
</glyph>
<glyph name="percent" format="1">
  <advance width="684"/>
  <unicode hex="0025"/>
  <outline>
    <contour>
      <point x="46" y="555" type="curve" smooth="yes"/>
      <point x="46" y="464"/>
      <point x="108" y="407"/>
      <point x="191" y="407" type="curve" smooth="yes"/>
      <point x="275" y="407"/>
      <point x="337" y="464"/>
      <point x="337" y="555" type="curve" smooth="yes"/>
      <point x="337" y="647"/>
      <point x="275" y="703"/>
      <point x="191" y="703" type="curve" smooth="yes"/>
      <point x="108" y="703"/>
      <point x="46" y="647"/>
    </contour>
    <contour>
      <point x="191" y="646" type="curve" smooth="yes"/>
      <point x="233" y="646"/>
      <point x="260" y="620"/>
      <point x="260" y="555" type="curve" smooth="yes"/>
      <point x="260" y="491"/>
      <point x="233" y="464"/>
      <point x="191" y="464" type="curve" smooth="yes"/>
      <point x="149" y="464"/>
      <point x="122" y="491"/>
      <point x="122" y="555" type="curve" smooth="yes"/>
      <point x="122" y="620"/>
      <point x="149" y="646"/>
    </contour>
    <contour>
      <point x="94" y="0" type="line"/>
      <point x="185" y="0" type="line"/>
      <point x="590" y="693" type="line"/>
      <point x="499" y="693" type="line"/>
    </contour>
    <contour>
      <point x="348" y="138" type="curve" smooth="yes"/>
      <point x="348" y="46"/>
      <point x="410" y="-10"/>
      <point x="493" y="-10" type="curve" smooth="yes"/>
      <point x="576" y="-10"/>
      <point x="639" y="46"/>
      <point x="639" y="138" type="curve" smooth="yes"/>
      <point x="639" y="229"/>
      <point x="576" y="286"/>
      <point x="493" y="286" type="curve" smooth="yes"/>
      <point x="410" y="286"/>
      <point x="348" y="229"/>
    </contour>
    <contour>
      <point x="493" y="229" type="curve" smooth="yes"/>
      <point x="535" y="229"/>
      <point x="562" y="202"/>
      <point x="562" y="138" type="curve" smooth="yes"/>
      <point x="562" y="74"/>
      <point x="535" y="47"/>
      <point x="493" y="47" type="curve" smooth="yes"/>
      <point x="451" y="47"/>
      <point x="424" y="74"/>
      <point x="424" y="138" type="curve" smooth="yes"/>
      <point x="424" y="202"/>
      <point x="451" y="229"/>
    </contour>
  </outline>
</glyph>
<glyph name="ampersand" format="1">
  <advance width="668"/>
  <unicode hex="0026"/>
  <outline>
    <contour>
      <point x="122" y="197" type="curve" smooth="yes"/>
      <point x="122" y="270"/>
      <point x="175" y="327"/>
      <point x="242" y="327" type="curve" smooth="yes"/>
      <point x="309" y="327"/>
      <point x="364" y="270"/>
      <point x="364" y="197" type="curve" smooth="yes"/>
      <point x="364" y="124"/>
      <point x="309" y="66"/>
      <point x="242" y="66" type="curve" smooth="yes"/>
      <point x="175" y="66"/>
      <point x="122" y="124"/>
    </contour>
    <contour>
      <point x="153" y="579" type="curve" smooth="yes"/>
      <point x="153" y="525"/>
      <point x="179" y="476"/>
      <point x="222" y="420" type="curve" smooth="yes"/>
      <point x="262" y="390" type="line"/>
      <point x="252" y="396"/>
      <point x="247" y="399"/>
      <point x="236" y="399" type="curve" smooth="yes"/>
      <point x="128" y="399"/>
      <point x="38" y="317"/>
      <point x="38" y="196" type="curve" smooth="yes"/>
      <point x="38" y="75"/>
      <point x="129" y="-8"/>
      <point x="242" y="-8" type="curve" smooth="yes"/>
      <point x="348" y="-8"/>
      <point x="431" y="70"/>
      <point x="442" y="169" type="curve"/>
      <point x="413" y="171" type="line"/>
      <point x="542" y="0" type="line"/>
      <point x="653" y="0" type="line"/>
      <point x="291" y="472" type="line" smooth="yes"/>
      <point x="255" y="520"/>
      <point x="245" y="547"/>
      <point x="245" y="578" type="curve" smooth="yes"/>
      <point x="245" y="626"/>
      <point x="280" y="665"/>
      <point x="333" y="665" type="curve" smooth="yes"/>
      <point x="385" y="665"/>
      <point x="420" y="627"/>
      <point x="420" y="578" type="curve" smooth="yes"/>
      <point x="420" y="566"/>
      <point x="418" y="549"/>
      <point x="414" y="537" type="curve"/>
      <point x="506" y="537" type="line"/>
      <point x="510" y="551"/>
      <point x="513" y="569"/>
      <point x="513" y="583" type="curve" smooth="yes"/>
      <point x="513" y="663"/>
      <point x="448" y="740"/>
      <point x="333" y="740" type="curve" smooth="yes"/>
      <point x="217" y="740"/>
      <point x="153" y="661"/>
    </contour>
  </outline>
</glyph>
<glyph name="quotesingle" format="1">
  <advance width="151"/>
  <unicode hex="0027"/>
  <outline>
    <contour>
      <point x="44" y="597" type="line"/>
      <point x="107" y="597" type="line"/>
      <point x="119" y="796" type="line"/>
      <point x="32" y="796" type="line"/>
    </contour>
  </outline>
</glyph>
<glyph name="parenleft" format="1">
  <advance width="561"/>
  <unicode hex="0028"/>
  <outline>
    <contour>
      <point x="416" y="-184" type="curve"/>
      <point x="513" y="-184" type="line"/>
      <point x="513" y="-175" type="line"/>
      <point x="322" y="-26"/>
      <point x="240" y="191"/>
      <point x="240" y="403" type="curve"/>
      <point x="240" y="614"/>
      <point x="322" y="830"/>
      <point x="513" y="980" type="curve"/>
      <point x="513" y="989" type="line"/>
      <point x="416" y="989" type="line"/>
      <point x="259" y="874"/>
      <point x="152" y="653"/>
      <point x="152" y="403" type="curve" smooth="yes"/>
      <point x="152" y="152"/>
      <point x="259" y="-69"/>
    </contour>
  </outline>
</glyph>
<glyph name="parenright" format="1">
  <advance width="562"/>
  <unicode hex="0029"/>
  <outline>
    <contour>
      <point x="146" y="989" type="curve"/>
      <point x="49" y="989" type="line"/>
      <point x="49" y="980" type="line"/>
      <point x="239" y="830"/>
      <point x="322" y="614"/>
      <point x="322" y="403" type="curve" smooth="yes"/>
      <point x="322" y="191"/>
      <point x="239" y="-26"/>
      <point x="49" y="-175" type="curve"/>
      <point x="49" y="-184" type="line"/>
      <point x="146" y="-184" type="line"/>
      <point x="303" y="-69"/>
      <point x="410" y="152"/>
      <point x="410" y="403" type="curve" smooth="yes"/>
      <point x="410" y="653"/>
      <point x="303" y="874"/>
    </contour>
  </outline>
</glyph>
<glyph name="asterisk" format="1">
  <advance width="492"/>
  <unicode hex="002A"/>
  <outline>
    <contour>
      <point x="286" y="734" type="line"/>
      <point x="204" y="734" type="line"/>
      <point x="222" y="582" type="line"/>
      <point x="100" y="674" type="line"/>
      <point x="58" y="601" type="line"/>
      <point x="200" y="547" type="line"/>
      <point x="58" y="493" type="line"/>
      <point x="100" y="418" type="line"/>
      <point x="222" y="511" type="line"/>
      <point x="204" y="360" type="line"/>
      <point x="286" y="360" type="line"/>
      <point x="266" y="511" type="line"/>
      <point x="386" y="420" type="line"/>
      <point x="426" y="493" type="line"/>
      <point x="283" y="547" type="line"/>
      <point x="426" y="601" type="line"/>
      <point x="386" y="673" type="line"/>
      <point x="266" y="582" type="line"/>
    </contour>
  </outline>
</glyph>
<glyph name="plus" format="1">
  <advance width="741"/>
  <unicode hex="002B"/>
  <outline>
    <contour>
      <point x="328" y="621" type="line"/>
      <point x="328" y="111" type="line"/>
      <point x="413" y="111" type="line"/>
      <point x="413" y="621" type="line"/>
    </contour>
    <contour>
      <point x="116" y="326" type="line"/>
      <point x="625" y="326" type="line"/>
      <point x="625" y="406" type="line"/>
      <point x="116" y="406" type="line"/>
    </contour>
  </outline>
</glyph>
<glyph name="comma" format="1">
  <advance width="186"/>
  <unicode hex="002C"/>
  <outline>
    <contour>
      <point x="39" y="67" type="line"/>
      <point x="39" y="-26" type="line"/>
      <point x="90" y="-26" type="line"/>
      <point x="90" y="-49" type="line" smooth="yes"/>
      <point x="90" y="-84"/>
      <point x="76" y="-99"/>
      <point x="42" y="-99" type="curve"/>
      <point x="42" y="-143" type="line"/>
      <point x="137" y="-143"/>
      <point x="165" y="-72"/>
      <point x="132" y="67" type="curve"/>
    </contour>
  </outline>
</glyph>
<glyph name="period" format="1">
  <advance width="226"/>
  <unicode hex="002E"/>
  <outline>
    <contour>
      <point x="113" y="0" type="curve" smooth="yes"/>
      <point x="145" y="0"/>
      <point x="171" y="26"/>
      <point x="171" y="58" type="curve" smooth="yes"/>
      <point x="171" y="91"/>
      <point x="145" y="117"/>
      <point x="113" y="117" type="curve" smooth="yes"/>
      <point x="81" y="117"/>
      <point x="55" y="91"/>
      <point x="55" y="58" type="curve" smooth="yes"/>
      <point x="55" y="26"/>
      <point x="81" y="0"/>
    </contour>
  </outline>
</glyph>
<glyph name="slash" format="1">
  <advance width="539"/>
  <unicode hex="002F"/>
  <outline>
    <contour>
      <point x="82" y="-170" type="line"/>
      <point x="172" y="-170" type="line"/>
      <point x="445" y="942" type="line"/>
      <point x="355" y="942" type="line"/>
    </contour>
  </outline>
</glyph>
<glyph name="zero" format="1">
  <advance width="636"/>
  <unicode hex="0030"/>
  <outline>
    <contour>
      <point x="317" y="731" type="curve" smooth="yes"/>
      <point x="520" y="731"/>
      <point x="568" y="569"/>
      <point x="568" y="366" type="curve"/>
      <point x="568" y="164"/>
      <point x="520" y="1"/>
      <point x="317" y="1" type="curve" smooth="yes"/>
      <point x="115" y="1"/>
      <point x="66" y="164"/>
      <point x="66" y="366" type="curve"/>
      <point x="66" y="569"/>
      <point x="115" y="731"/>
    </contour>
    <contour>
      <point x="317" y="650" type="curve" smooth="yes"/>
      <point x="171" y="650"/>
      <point x="155" y="513"/>
      <point x="155" y="366" type="curve" smooth="yes"/>
      <point x="155" y="220"/>
      <point x="171" y="82"/>
      <point x="317" y="82" type="curve" smooth="yes"/>
      <point x="463" y="82"/>
      <point x="480" y="220"/>
      <point x="480" y="366" type="curve"/>
      <point x="480" y="513"/>
      <point x="463" y="650"/>
    </contour>
  </outline>
</glyph>
<glyph name="four" format="1">
  <advance width="634"/>
  <unicode hex="0034"/>
  <outline>
    <contour>
      <point x="417" y="0" type="line"/>
      <point x="505" y="0" type="line"/>
      <point x="505" y="162" type="line"/>
      <point x="602" y="162" type="line"/>
      <point x="602" y="240" type="line"/>
      <point x="505" y="240" type="line"/>
      <point x="505" y="720" type="line"/>
      <point x="389" y="720" type="line"/>
      <point x="45" y="226" type="line"/>
      <point x="45" y="162" type="line"/>
      <point x="417" y="162" type="line"/>
    </contour>
    <contour>
      <point x="151" y="240" type="line"/>
      <point x="420" y="636" type="line"/>
      <point x="420" y="240" type="line"/>
    </contour>
  </outline>
</glyph>
<glyph name="six" format="1">
  <advance width="644"/>
  <unicode hex="0036"/>
  <outline>
    <contour>
      <point x="553" y="568" type="line"/>
      <point x="542" y="662"/>
      <point x="470" y="747"/>
      <point x="335" y="747" type="curve" smooth="yes"/>
      <point x="154" y="747"/>
      <point x="80" y="605"/>
      <point x="80" y="385" type="curve" smooth="yes"/>
      <point x="80" y="163"/>
      <point x="123" y="0"/>
      <point x="342" y="0" type="curve" smooth="yes"/>
      <point x="501" y="0"/>
      <point x="578" y="108"/>
      <point x="578" y="243" type="curve" smooth="yes"/>
      <point x="578" y="395"/>
      <point x="485" y="484"/>
      <point x="354" y="484" type="curve" smooth="yes"/>
      <point x="267" y="484"/>
      <point x="192" y="445"/>
      <point x="156" y="380" type="curve"/>
      <point x="160" y="597"/>
      <point x="219" y="670"/>
      <point x="335" y="670" type="curve" smooth="yes"/>
      <point x="415" y="670"/>
      <point x="454" y="636"/>
      <point x="471" y="568" type="curve"/>
    </contour>
    <contour>
      <point x="335" y="406" type="curve" smooth="yes"/>
      <point x="442" y="406"/>
      <point x="492" y="341"/>
      <point x="492" y="238" type="curve" smooth="yes"/>
      <point x="492" y="139"/>
      <point x="433" y="77"/>
      <point x="338" y="77" type="curve" smooth="yes"/>
      <point x="224" y="77"/>
      <point x="169" y="147"/>
      <point x="169" y="247" type="curve" smooth="yes"/>
      <point x="169" y="358"/>
      <point x="254" y="406"/>
    </contour>
  </outline>
</glyph>
<glyph name="seven" format="1">
  <advance width="560"/>
  <unicode hex="0037"/>
  <outline>
    <contour>
      <point x="40" y="728" type="line"/>
      <point x="40" y="651" type="line"/>
      <point x="435" y="651" type="line"/>
      <point x="136" y="0" type="line"/>
      <point x="236" y="0" type="line"/>
      <point x="522" y="660" type="line"/>
      <point x="522" y="728" type="line"/>
    </contour>
  </outline>
</glyph>
<glyph name="eight" format="1">
  <advance width="635"/>
  <unicode hex="0038"/>
  <outline>
    <contour>
      <point x="191" y="389" type="curve"/>
      <point x="116" y="364"/>
      <point x="63" y="297"/>
      <point x="63" y="202" type="curve" smooth="yes"/>
      <point x="63" y="66"/>
      <point x="166" y="-20"/>
      <point x="317" y="-20" type="curve" smooth="yes"/>
      <point x="468" y="-20"/>
      <point x="571" y="66"/>
      <point x="571" y="202" type="curve" smooth="yes"/>
      <point x="571" y="297"/>
      <point x="518" y="364"/>
      <point x="444" y="389" type="curve"/>
      <point x="505" y="416"/>
      <point x="552" y="475"/>
      <point x="552" y="555" type="curve" smooth="yes"/>
      <point x="552" y="663"/>
      <point x="474" y="752"/>
      <point x="317" y="752" type="curve"/>
      <point x="161" y="752"/>
      <point x="82" y="663"/>
      <point x="82" y="556" type="curve" smooth="yes"/>
      <point x="82" y="474"/>
      <point x="126" y="420"/>
    </contour>
    <contour>
      <point x="317" y="675" type="curve" smooth="yes"/>
      <point x="409" y="675"/>
      <point x="466" y="630"/>
      <point x="466" y="546" type="curve" smooth="yes"/>
      <point x="466" y="474"/>
      <point x="406" y="421"/>
      <point x="317" y="421" type="curve"/>
      <point x="229" y="421"/>
      <point x="168" y="474"/>
      <point x="168" y="546" type="curve" smooth="yes"/>
      <point x="168" y="630"/>
      <point x="226" y="675"/>
    </contour>
    <contour>
      <point x="317" y="349" type="curve" smooth="yes"/>
      <point x="411" y="349"/>
      <point x="484" y="304"/>
      <point x="484" y="204" type="curve" smooth="yes"/>
      <point x="484" y="116"/>
      <point x="420" y="57"/>
      <point x="317" y="57" type="curve"/>
      <point x="214" y="57"/>
      <point x="149" y="115"/>
      <point x="149" y="204" type="curve" smooth="yes"/>
      <point x="149" y="305"/>
      <point x="224" y="349"/>
    </contour>
  </outline>
</glyph>
<glyph name="nine" format="1">
  <advance width="635"/>
  <unicode hex="0039"/>
  <outline>
    <contour>
      <point x="103" y="187" type="line"/>
      <point x="116" y="88"/>
      <point x="187" y="1"/>
      <point x="329" y="1" type="curve" smooth="yes"/>
      <point x="512" y="1"/>
      <point x="566" y="131"/>
      <point x="566" y="381" type="curve" smooth="yes"/>
      <point x="566" y="624"/>
      <point x="499" y="747"/>
      <point x="321" y="747" type="curve" smooth="yes"/>
      <point x="170" y="747"/>
      <point x="83" y="650"/>
      <point x="83" y="507" type="curve" smooth="yes"/>
      <point x="83" y="357"/>
      <point x="188" y="273"/>
      <point x="315" y="273" type="curve" smooth="yes"/>
      <point x="384" y="273"/>
      <point x="452" y="299"/>
      <point x="488" y="355" type="curve"/>
      <point x="488" y="143"/>
      <point x="436" y="78"/>
      <point x="334" y="78" type="curve" smooth="yes"/>
      <point x="250" y="78"/>
      <point x="201" y="117"/>
      <point x="186" y="187" type="curve"/>
    </contour>
    <contour>
      <point x="331" y="351" type="curve" smooth="yes"/>
      <point x="217" y="351"/>
      <point x="169" y="422"/>
      <point x="169" y="508" type="curve" smooth="yes"/>
      <point x="169" y="606"/>
      <point x="228" y="670"/>
      <point x="323" y="670" type="curve" smooth="yes"/>
      <point x="417" y="670"/>
      <point x="475" y="609"/>
      <point x="475" y="505" type="curve" smooth="yes"/>
      <point x="475" y="414"/>
      <point x="423" y="351"/>
    </contour>
  </outline>
</glyph>
<glyph name="colon" format="1">
  <advance width="302"/>
  <unicode hex="003A"/>
  <outline>
    <contour>
      <point x="143" y="0" type="curve" smooth="yes"/>
      <point x="176" y="0"/>
      <point x="202" y="26"/>
      <point x="202" y="58" type="curve" smooth="yes"/>
      <point x="202" y="91"/>
      <point x="176" y="117"/>
      <point x="143" y="117" type="curve" smooth="yes"/>
      <point x="111" y="117"/>
      <point x="85" y="91"/>
      <point x="85" y="58" type="curve" smooth="yes"/>
      <point x="85" y="26"/>
      <point x="111" y="0"/>
    </contour>
    <contour>
      <point x="143" y="427" type="curve" smooth="yes"/>
      <point x="176" y="427"/>
      <point x="202" y="453"/>
      <point x="202" y="485" type="curve" smooth="yes"/>
      <point x="202" y="517"/>
      <point x="176" y="543"/>
      <point x="143" y="543" type="curve" smooth="yes"/>
      <point x="111" y="543"/>
      <point x="85" y="517"/>
      <point x="85" y="485" type="curve" smooth="yes"/>
      <point x="85" y="453"/>
      <point x="111" y="427"/>
    </contour>
  </outline>
</glyph>
<glyph name="less" format="1">
  <advance width="636"/>
  <unicode hex="003C"/>
  <outline>
    <contour>
      <point x="226" y="366" type="line"/>
      <point x="468" y="595" type="line"/>
      <point x="353" y="595" type="line"/>
      <point x="111" y="366" type="line"/>
      <point x="353" y="136" type="line"/>
      <point x="468" y="136" type="line"/>
    </contour>
  </outline>
</glyph>
<glyph name="equal" format="1">
  <advance width="771"/>
  <unicode hex="003D"/>
  <outline>
    <contour>
      <point x="126" y="218" type="line"/>
      <point x="646" y="218" type="line"/>
      <point x="646" y="297" type="line"/>
      <point x="126" y="297" type="line"/>
    </contour>
    <contour>
      <point x="126" y="434" type="line"/>
      <point x="646" y="434" type="line"/>
      <point x="646" y="514" type="line"/>
      <point x="126" y="514" type="line"/>
    </contour>
  </outline>
</glyph>
<glyph name="greater" format="1">
  <advance width="603"/>
  <unicode hex="003E"/>
  <outline>
    <contour>
      <point x="132" y="136" type="line"/>
      <point x="246" y="136" type="line"/>
      <point x="488" y="366" type="line"/>
      <point x="246" y="595" type="line"/>
      <point x="132" y="595" type="line"/>
      <point x="374" y="366" type="line"/>
    </contour>
  </outline>
</glyph>
<glyph name="question" format="1">
  <advance width="626"/>
  <unicode hex="003F"/>
  <outline>
    <contour>
      <point x="99" y="540" type="curve"/>
      <point x="184" y="540" type="line"/>
      <point x="184" y="621"/>
      <point x="236" y="665"/>
      <point x="317" y="665" type="curve" smooth="yes"/>
      <point x="400" y="665"/>
      <point x="449" y="617"/>
      <point x="449" y="536" type="curve" smooth="yes"/>
      <point x="449" y="416"/>
      <point x="371" y="395"/>
      <point x="250" y="396" type="curve" smooth="yes"/>
      <point x="210" y="396" type="line"/>
      <point x="210" y="199" type="line"/>
      <point x="296" y="199" type="line"/>
      <point x="296" y="331" type="line"/>
      <point x="449" y="332"/>
      <point x="535" y="385"/>
      <point x="535" y="537" type="curve" smooth="yes"/>
      <point x="535" y="664"/>
      <point x="448" y="742"/>
      <point x="316" y="742" type="curve" smooth="yes"/>
      <point x="187" y="742"/>
      <point x="98" y="663"/>
    </contour>
    <contour>
      <point x="197" y="50" type="curve" smooth="yes"/>
      <point x="197" y="18"/>
      <point x="223" y="-8"/>
      <point x="255" y="-8" type="curve" smooth="yes"/>
      <point x="288" y="-8"/>
      <point x="314" y="18"/>
      <point x="314" y="50" type="curve" smooth="yes"/>
      <point x="314" y="83"/>
      <point x="288" y="109"/>
      <point x="255" y="109" type="curve" smooth="yes"/>
      <point x="223" y="109"/>
      <point x="197" y="83"/>
    </contour>
  </outline>
</glyph>
<glyph name="at" format="1">
  <advance width="1157"/>
  <unicode hex="0040"/>
  <outline>
    <contour>
      <point x="737" y="274" type="curve" smooth="yes"/>
      <point x="720" y="157"/>
      <point x="628" y="68"/>
      <point x="535" y="68" type="curve" smooth="yes"/>
      <point x="443" y="68"/>
      <point x="378" y="156"/>
      <point x="396" y="274" type="curve" smooth="yes"/>
      <point x="413" y="391"/>
      <point x="505" y="479"/>
      <point x="597" y="479" type="curve" smooth="yes"/>
      <point x="690" y="479"/>
      <point x="755" y="391"/>
    </contour>
    <contour>
      <point x="303" y="279" type="curve" smooth="yes"/>
      <point x="278" y="109"/>
      <point x="380" y="-9"/>
      <point x="517" y="-9" type="curve" smooth="yes"/>
      <point x="622" y="-9"/>
      <point x="692" y="53"/>
      <point x="734" y="130" type="curve"/>
      <point x="725" y="128" type="line"/>
      <point x="717" y="61"/>
      <point x="745" y="-9"/>
      <point x="836" y="-9" type="curve" smooth="yes"/>
      <point x="966" y="-9"/>
      <point x="1102" y="146"/>
      <point x="1102" y="360" type="curve" smooth="yes"/>
      <point x="1102" y="615"/>
      <point x="920" y="785"/>
      <point x="646" y="785" type="curve" smooth="yes"/>
      <point x="302" y="785"/>
      <point x="55" y="531"/>
      <point x="55" y="206" type="curve" smooth="yes"/>
      <point x="55" y="-85"/>
      <point x="263" y="-245"/>
      <point x="541" y="-252" type="curve"/>
      <point x="560" y="-176" type="line"/>
      <point x="317" y="-169"/>
      <point x="149" y="-41"/>
      <point x="149" y="206" type="curve" smooth="yes"/>
      <point x="149" y="487"/>
      <point x="349" y="709"/>
      <point x="634" y="709" type="curve" smooth="yes"/>
      <point x="872" y="709"/>
      <point x="1008" y="568"/>
      <point x="1008" y="360" type="curve" smooth="yes"/>
      <point x="1008" y="185"/>
      <point x="915" y="68"/>
      <point x="844" y="68" type="curve" smooth="yes"/>
      <point x="815" y="68"/>
      <point x="800" y="86"/>
      <point x="805" y="124" type="curve" smooth="yes"/>
      <point x="830" y="285" type="line" smooth="yes"/>
      <point x="854" y="437"/>
      <point x="762" y="557"/>
      <point x="611" y="557" type="curve" smooth="yes"/>
      <point x="465" y="557"/>
      <point x="328" y="448"/>
    </contour>
  </outline>
</glyph>
<glyph name="A" format="1">
  <advance width="691"/>
  <unicode hex="0041"/>
  <outline>
    <contour>
      <point x="346" y="693" type="move" name="top"/>
    </contour>
    <contour>
      <point x="647" y="0" type="move" name="ogonek"/>
    </contour>
    <contour>
      <point x="296" y="693" type="line"/>
      <point x="44" y="0" type="line"/>
      <point x="137" y="0" type="line"/>
      <point x="367" y="642" type="line"/>
      <point x="324" y="642" type="line"/>
      <point x="553" y="0" type="line"/>
      <point x="647" y="0" type="line"/>
      <point x="396" y="693" type="line"/>
    </contour>
    <contour>
      <point x="148" y="152" type="line"/>
      <point x="541" y="152" type="line"/>
      <point x="517" y="224" type="line"/>
      <point x="171" y="224" type="line"/>
    </contour>
  </outline>
</glyph>
<glyph name="B" format="1">
  <advance width="612"/>
  <unicode hex="0042"/>
  <outline>
    <contour>
      <point x="453" y="505" type="curve" smooth="yes"/>
      <point x="453" y="436"/>
      <point x="403" y="392"/>
      <point x="319" y="392" type="curve" smooth="yes"/>
      <point x="166" y="392" type="line"/>
      <point x="166" y="620" type="line"/>
      <point x="319" y="620" type="line" smooth="yes"/>
      <point x="403" y="620"/>
      <point x="453" y="575"/>
    </contour>
    <contour>
      <point x="561" y="183" type="curve" smooth="yes"/>
      <point x="561" y="275"/>
      <point x="490" y="357"/>
      <point x="383" y="359" type="curve"/>
      <point x="366" y="347" type="line"/>
      <point x="475" y="362"/>
      <point x="545" y="415"/>
      <point x="545" y="509" type="curve" smooth="yes"/>
      <point x="545" y="612"/>
      <point x="470" y="693"/>
      <point x="323" y="693" type="curve" smooth="yes"/>
      <point x="75" y="693" type="line"/>
      <point x="75" y="0" type="line"/>
      <point x="335" y="0" type="line" smooth="yes"/>
      <point x="475" y="0"/>
      <point x="561" y="81"/>
    </contour>
    <contour>
      <point x="471" y="196" type="curve" smooth="yes"/>
      <point x="471" y="119"/>
      <point x="419" y="72"/>
      <point x="330" y="72" type="curve" smooth="yes"/>
      <point x="166" y="72" type="line"/>
      <point x="166" y="319" type="line"/>
      <point x="323" y="319" type="line" smooth="yes"/>
      <point x="412" y="319"/>
      <point x="471" y="272"/>
    </contour>
  </outline>
</glyph>
<glyph name="C" format="1">
  <advance width="777"/>
  <unicode hex="0043"/>
  <outline>
    <contour>
      <point x="388" y="693" type="move" name="top"/>
    </contour>
    <contour>
      <point x="388" y="0" type="move" name="bottom"/>
    </contour>
    <contour>
      <point x="39" y="347" type="curve" smooth="yes"/>
      <point x="39" y="140"/>
      <point x="196" y="-6"/>
      <point x="392" y="-6" type="curve" smooth="yes"/>
      <point x="533" y="-6"/>
      <point x="654" y="61"/>
      <point x="709" y="192" type="curve"/>
      <point x="599" y="192" type="line"/>
      <point x="559" y="116"/>
      <point x="484" y="74"/>
      <point x="392" y="74" type="curve" smooth="yes"/>
      <point x="243" y="74"/>
      <point x="132" y="181"/>
      <point x="132" y="347" type="curve" smooth="yes"/>
      <point x="132" y="513"/>
      <point x="243" y="619"/>
      <point x="392" y="619" type="curve" smooth="yes"/>
      <point x="484" y="619"/>
      <point x="559" y="578"/>
      <point x="599" y="502" type="curve"/>
      <point x="709" y="502" type="line"/>
      <point x="654" y="633"/>
      <point x="533" y="700"/>
      <point x="392" y="700" type="curve" smooth="yes"/>
      <point x="196" y="700"/>
      <point x="39" y="555"/>
    </contour>
  </outline>
</glyph>
<glyph name="D" format="1">
  <advance width="696"/>
  <unicode hex="0044"/>
  <outline>
    <contour>
      <point x="349" y="693" type="move" name="top"/>
    </contour>
    <contour>
      <point x="294" y="693" type="curve" smooth="yes"/>
      <point x="75" y="693" type="line"/>
      <point x="75" y="0" type="line"/>
      <point x="294" y="0" type="line" smooth="yes"/>
      <point x="517" y="0"/>
      <point x="656" y="126"/>
      <point x="656" y="343" type="curve" smooth="yes"/>
      <point x="656" y="560"/>
      <point x="517" y="693"/>
    </contour>
    <contour>
      <point x="166" y="70" type="line"/>
      <point x="166" y="616" type="line"/>
      <point x="294" y="616" type="line" smooth="yes"/>
      <point x="471" y="616"/>
      <point x="563" y="512"/>
      <point x="563" y="343" type="curve" smooth="yes"/>
      <point x="563" y="174"/>
      <point x="471" y="70"/>
      <point x="294" y="70" type="curve" smooth="yes"/>
    </contour>
  </outline>
</glyph>
<glyph name="E" format="1">
  <advance width="505"/>
  <unicode hex="0045"/>
  <outline>
    <contour>
      <point x="253" y="693" type="move" name="top"/>
    </contour>
    <contour>
      <point x="442" y="0" type="move" name="ogonek"/>
    </contour>
    <contour>
      <point x="253" y="0" type="move" name="bottom"/>
    </contour>
    <contour>
      <point x="442" y="693" type="line"/>
      <point x="75" y="693" type="line"/>
      <point x="75" y="0" type="line"/>
      <point x="442" y="0" type="line"/>
      <point x="442" y="72" type="line"/>
      <point x="166" y="72" type="line"/>
      <point x="166" y="314" type="line"/>
      <point x="412" y="314" type="line"/>
      <point x="412" y="385" type="line"/>
      <point x="166" y="385" type="line"/>
      <point x="166" y="621" type="line"/>
      <point x="442" y="621" type="line"/>
    </contour>
  </outline>
</glyph>
<glyph name="F" format="1">
  <advance width="490"/>
  <unicode hex="0046"/>
  <outline>
    <contour>
      <point x="75" y="0" type="line"/>
      <point x="166" y="0" type="line"/>
      <point x="166" y="313" type="line"/>
      <point x="402" y="313" type="line"/>
      <point x="402" y="385" type="line"/>
      <point x="166" y="385" type="line"/>
      <point x="166" y="620" type="line"/>
      <point x="465" y="620" type="line"/>
      <point x="465" y="693" type="line"/>
      <point x="75" y="693" type="line"/>
    </contour>
  </outline>
</glyph>
<glyph name="H" format="1">
  <advance width="682"/>
  <unicode hex="0048"/>
  <outline>
    <contour>
      <point x="75" y="0" type="line"/>
      <point x="166" y="0" type="line"/>
      <point x="166" y="693" type="line"/>
      <point x="75" y="693" type="line"/>
    </contour>
    <contour>
      <point x="515" y="0" type="line"/>
      <point x="607" y="0" type="line"/>
      <point x="607" y="693" type="line"/>
      <point x="515" y="693" type="line"/>
    </contour>
    <contour>
      <point x="146" y="313" type="line"/>
      <point x="543" y="313" type="line"/>
      <point x="543" y="385" type="line"/>
      <point x="146" y="385" type="line"/>
    </contour>
  </outline>
</glyph>
<glyph name="I" format="1">
  <advance width="241"/>
  <unicode hex="0049"/>
  <outline>
    <contour>
      <point x="121" y="693" type="move" name="top"/>
    </contour>
    <contour>
      <point x="166" y="1" type="move" name="ogonek"/>
    </contour>
    <contour>
      <point x="75" y="0" type="line"/>
      <point x="166" y="0" type="line"/>
      <point x="166" y="693" type="line"/>
      <point x="75" y="693" type="line"/>
    </contour>
  </outline>
</glyph>
<glyph name="J" format="1">
  <advance width="552"/>
  <unicode hex="004A"/>
  <outline>
    <contour>
      <point x="346" y="181" type="line"/>
      <point x="346" y="123"/>
      <point x="317" y="73"/>
      <point x="244" y="73" type="curve" smooth="yes"/>
      <point x="172" y="73"/>
      <point x="144" y="123"/>
      <point x="143" y="181" type="curve"/>
      <point x="50" y="181" type="line"/>
      <point x="50" y="66"/>
      <point x="129" y="-7"/>
      <point x="244" y="-7" type="curve" smooth="yes"/>
      <point x="359" y="-7"/>
      <point x="437" y="66"/>
      <point x="437" y="181" type="curve" smooth="yes"/>
      <point x="437" y="693" type="line"/>
      <point x="346" y="693" type="line"/>
    </contour>
  </outline>
</glyph>
<glyph name="K" format="1">
  <advance width="598"/>
  <unicode hex="004B"/>
  <outline>
    <contour>
      <point x="299" y="693" type="move" name="top"/>
    </contour>
    <contour>
      <point x="299" y="0" type="move" name="bottom"/>
    </contour>
    <contour>
      <point x="75" y="0" type="line"/>
      <point x="166" y="0" type="line"/>
      <point x="166" y="693" type="line"/>
      <point x="75" y="693" type="line"/>
    </contour>
    <contour>
      <point x="138" y="341" type="line"/>
      <point x="449" y="0" type="line"/>
      <point x="570" y="0" type="line"/>
      <point x="231" y="358" type="line"/>
      <point x="224" y="319" type="line"/>
      <point x="570" y="693" type="line"/>
      <point x="451" y="693" type="line"/>
    </contour>
  </outline>
</glyph>
<glyph name="L" format="1">
  <advance width="429"/>
  <unicode hex="004C"/>
  <outline>
    <contour>
      <point x="238" y="10" type="move" name="commaaccent"/>
    </contour>
    <contour>
      <point x="215" y="693" type="move" name="top"/>
    </contour>
    <contour>
      <point x="409" y="693" type="move" name="topright"/>
    </contour>
    <contour>
      <point x="238" y="0" type="move" name="bottom"/>
    </contour>
    <contour>
      <point x="75" y="693" type="line"/>
      <point x="75" y="0" type="line"/>
      <point x="409" y="0" type="line"/>
      <point x="409" y="70" type="line"/>
      <point x="166" y="70" type="line"/>
      <point x="166" y="693" type="line"/>
    </contour>
  </outline>
</glyph>
<glyph name="M" format="1">
  <advance width="857"/>
  <unicode hex="004D"/>
  <outline>
    <contour>
      <point x="75" y="0" type="line"/>
      <point x="166" y="0" type="line"/>
      <point x="166" y="585" type="line"/>
      <point x="130" y="583" type="line"/>
      <point x="399" y="0" type="line"/>
      <point x="458" y="0" type="line"/>
      <point x="726" y="583" type="line"/>
      <point x="690" y="585" type="line"/>
      <point x="690" y="0" type="line"/>
      <point x="782" y="0" type="line"/>
      <point x="782" y="693" type="line"/>
      <point x="689" y="693" type="line"/>
      <point x="414" y="93" type="line"/>
      <point x="443" y="93" type="line"/>
      <point x="168" y="693" type="line"/>
      <point x="75" y="693" type="line"/>
    </contour>
  </outline>
</glyph>
<glyph name="N" format="1">
  <advance width="698"/>
  <unicode hex="004E"/>
  <outline>
    <contour>
      <point x="350" y="693" type="move" name="top"/>
    </contour>
    <contour>
      <point x="350" y="0" type="move" name="bottom"/>
    </contour>
    <contour>
      <point x="532" y="693" type="line"/>
      <point x="532" y="143" type="line"/>
      <point x="166" y="693" type="line"/>
      <point x="75" y="693" type="line"/>
      <point x="75" y="0" type="line"/>
      <point x="166" y="0" type="line"/>
      <point x="166" y="550" type="line"/>
      <point x="532" y="0" type="line"/>
      <point x="623" y="0" type="line"/>
      <point x="623" y="693" type="line"/>
    </contour>
  </outline>
</glyph>
<glyph name="O" format="1">
  <advance width="782"/>
  <unicode hex="004F"/>
  <outline>
    <contour>
      <point x="392" y="693" type="move" name="top"/>
    </contour>
    <contour>
      <point x="39" y="347" type="curve" smooth="yes"/>
      <point x="39" y="140"/>
      <point x="196" y="-7"/>
      <point x="392" y="-7" type="curve" smooth="yes"/>
      <point x="588" y="-7"/>
      <point x="744" y="140"/>
      <point x="744" y="347" type="curve" smooth="yes"/>
      <point x="744" y="555"/>
      <point x="588" y="700"/>
      <point x="392" y="700" type="curve" smooth="yes"/>
      <point x="196" y="700"/>
      <point x="39" y="555"/>
    </contour>
    <contour>
      <point x="651" y="347" type="curve" smooth="yes"/>
      <point x="651" y="181"/>
      <point x="540" y="74"/>
      <point x="392" y="74" type="curve" smooth="yes"/>
      <point x="243" y="74"/>
      <point x="131" y="181"/>
      <point x="131" y="347" type="curve" smooth="yes"/>
      <point x="131" y="513"/>
      <point x="243" y="619"/>
      <point x="392" y="619" type="curve" smooth="yes"/>
      <point x="540" y="619"/>
      <point x="651" y="513"/>
    </contour>
  </outline>
</glyph>
<glyph name="P" format="1">
  <advance width="578"/>
  <unicode hex="0050"/>
  <outline>
    <contour>
      <point x="166" y="358" type="line"/>
      <point x="166" y="620" type="line"/>
      <point x="300" y="620" type="line" smooth="yes"/>
      <point x="404" y="620"/>
      <point x="448" y="569"/>
      <point x="448" y="489" type="curve" smooth="yes"/>
      <point x="448" y="410"/>
      <point x="404" y="358"/>
      <point x="300" y="358" type="curve" smooth="yes"/>
    </contour>
    <contour>
      <point x="540" y="489" type="curve" smooth="yes"/>
      <point x="540" y="603"/>
      <point x="462" y="693"/>
      <point x="300" y="693" type="curve" smooth="yes"/>
      <point x="75" y="693" type="line"/>
      <point x="75" y="0" type="line"/>
      <point x="166" y="0" type="line"/>
      <point x="166" y="286" type="line"/>
      <point x="300" y="286" type="line" smooth="yes"/>
      <point x="471" y="286"/>
      <point x="540" y="382"/>
    </contour>
  </outline>
</glyph>
<glyph name="Q" format="1">
  <advance width="785"/>
  <unicode hex="0051"/>
  <outline>
    <contour>
      <point x="465" y="39" type="line"/>
      <point x="636" y="-131" type="line"/>
      <point x="756" y="-131" type="line"/>
      <point x="547" y="76" type="line"/>
    </contour>
    <component base="O"/>
  </outline>
</glyph>
<glyph name="R" format="1">
  <advance width="617"/>
  <unicode hex="0052"/>
  <outline>
    <contour>
      <point x="309" y="693" type="move" name="top"/>
    </contour>
    <contour>
      <point x="309" y="0" type="move" name="bottom"/>
    </contour>
    <contour>
      <point x="448" y="489" type="curve" smooth="yes"/>
      <point x="448" y="410"/>
      <point x="404" y="358"/>
      <point x="300" y="358" type="curve" smooth="yes"/>
      <point x="166" y="358" type="line"/>
      <point x="166" y="620" type="line"/>
      <point x="300" y="620" type="line" smooth="yes"/>
      <point x="404" y="620"/>
      <point x="448" y="569"/>
    </contour>
    <contour>
      <point x="75" y="693" type="line"/>
      <point x="75" y="0" type="line"/>
      <point x="166" y="0" type="line"/>
      <point x="166" y="286" type="line"/>
      <point x="300" y="286" type="line" smooth="yes"/>
      <point x="471" y="286"/>
      <point x="540" y="382"/>
      <point x="540" y="489" type="curve" smooth="yes"/>
      <point x="540" y="603"/>
      <point x="462" y="693"/>
      <point x="300" y="693" type="curve" smooth="yes"/>
    </contour>
    <contour>
      <point x="237" y="315" type="line"/>
      <point x="437" y="0" type="line"/>
      <point x="551" y="0" type="line"/>
      <point x="344" y="315" type="line"/>
    </contour>
  </outline>
</glyph>
<glyph name="S" format="1">
  <advance width="587"/>
  <unicode hex="0053"/>
  <outline>
    <contour>
      <point x="294" y="693" type="move" name="top"/>
    </contour>
    <contour>
      <point x="294" y="0" type="move" name="bottom"/>
    </contour>
    <contour>
      <point x="149" y="508" type="curve" smooth="yes"/>
      <point x="149" y="587"/>
      <point x="207" y="624"/>
      <point x="282" y="624" type="curve" smooth="yes"/>
      <point x="364" y="624"/>
      <point x="408" y="575"/>
      <point x="413" y="525" type="curve"/>
      <point x="514" y="525" type="line"/>
      <point x="502" y="634"/>
      <point x="418" y="700"/>
      <point x="291" y="700" type="curve" smooth="yes"/>
      <point x="149" y="700"/>
      <point x="60" y="621"/>
      <point x="60" y="505" type="curve" smooth="yes"/>
      <point x="60" y="241"/>
      <point x="438" y="376"/>
      <point x="438" y="189" type="curve" smooth="yes"/>
      <point x="438" y="121"/>
      <point x="385" y="68"/>
      <point x="293" y="68" type="curve" smooth="yes"/>
      <point x="202" y="68"/>
      <point x="162" y="115"/>
      <point x="157" y="173" type="curve"/>
      <point x="60" y="173" type="line"/>
      <point x="60" y="59"/>
      <point x="162" y="-7"/>
      <point x="293" y="-7" type="curve" smooth="yes"/>
      <point x="448" y="-7"/>
      <point x="527" y="94"/>
      <point x="527" y="194" type="curve" smooth="yes"/>
      <point x="527" y="454"/>
      <point x="149" y="318"/>
    </contour>
  </outline>
</glyph>
<glyph name="T" format="1">
  <advance width="546"/>
  <unicode hex="0054"/>
  <outline>
    <contour>
      <point x="273" y="693" type="move" name="top"/>
    </contour>
    <contour>
      <point x="273" y="0" type="move" name="bottom"/>
    </contour>
    <contour>
      <point x="44" y="620" type="line"/>
      <point x="227" y="620" type="line"/>
      <point x="227" y="0" type="line"/>
      <point x="318" y="0" type="line"/>
      <point x="318" y="620" type="line"/>
      <point x="501" y="620" type="line"/>
      <point x="501" y="693" type="line"/>
      <point x="44" y="693" type="line"/>
    </contour>
  </outline>
</glyph>
<glyph name="U" format="1">
  <advance width="673"/>
  <unicode hex="0055"/>
  <outline>
    <contour>
      <point x="337" y="693" type="move" name="top"/>
    </contour>
    <contour>
      <point x="468" y="0" type="move" name="ogonek"/>
    </contour>
    <contour>
      <point x="74" y="243" type="line"/>
      <point x="74" y="72"/>
      <point x="193" y="-7"/>
      <point x="337" y="-7" type="curve" smooth="yes"/>
      <point x="479" y="-7"/>
      <point x="600" y="72"/>
      <point x="600" y="243" type="curve" smooth="yes"/>
      <point x="600" y="693" type="line"/>
      <point x="509" y="693" type="line"/>
      <point x="509" y="243" type="line" smooth="yes"/>
      <point x="509" y="124"/>
      <point x="440" y="72"/>
      <point x="337" y="72" type="curve" smooth="yes"/>
      <point x="234" y="72"/>
      <point x="166" y="124"/>
      <point x="166" y="243" type="curve" smooth="yes"/>
      <point x="166" y="693" type="line"/>
      <point x="74" y="693" type="line"/>
    </contour>
  </outline>
</glyph>
<glyph name="V" format="1">
  <advance width="680"/>
  <unicode hex="0056"/>
  <outline>
    <contour>
      <point x="291" y="0" type="line"/>
      <point x="389" y="0" type="line"/>
      <point x="656" y="693" type="line"/>
      <point x="559" y="693" type="line"/>
      <point x="339" y="97" type="line"/>
      <point x="121" y="693" type="line"/>
      <point x="24" y="693" type="line"/>
    </contour>
  </outline>
</glyph>
<glyph name="W" format="1">
  <advance width="980"/>
  <unicode hex="0057"/>
  <outline>
    <contour>
      <point x="220" y="-1" type="line"/>
      <point x="321" y="0" type="line"/>
      <point x="505" y="615" type="line"/>
      <point x="473" y="615" type="line"/>
      <point x="644" y="0" type="line"/>
      <point x="746" y="0" type="line"/>
      <point x="956" y="693" type="line"/>
      <point x="860" y="693" type="line"/>
      <point x="682" y="51" type="line"/>
      <point x="712" y="50" type="line"/>
      <point x="542" y="693" type="line"/>
      <point x="442" y="693" type="line"/>
      <point x="259" y="53" type="line"/>
      <point x="287" y="53" type="line"/>
      <point x="120" y="693" type="line"/>
      <point x="24" y="693" type="line"/>
    </contour>
  </outline>
</glyph>
<glyph name="X" format="1">
  <advance width="629"/>
  <unicode hex="0058"/>
  <outline>
    <contour>
      <point x="479" y="0" type="line"/>
      <point x="579" y="0" type="line"/>
      <point x="151" y="693" type="line"/>
      <point x="50" y="693" type="line"/>
    </contour>
    <contour>
      <point x="279" y="370" type="line"/>
      <point x="50" y="0" type="line"/>
      <point x="151" y="0" type="line"/>
      <point x="326" y="301" type="line"/>
    </contour>
    <contour>
      <point x="351" y="322" type="line"/>
      <point x="580" y="693" type="line"/>
      <point x="479" y="693" type="line"/>
      <point x="304" y="392" type="line"/>
    </contour>
  </outline>
</glyph>
<glyph name="Y" format="1">
  <advance width="572"/>
  <unicode hex="0059"/>
  <outline>
    <contour>
      <point x="286" y="693" type="move" name="top"/>
    </contour>
    <contour>
      <point x="241" y="262" type="line"/>
      <point x="241" y="0" type="line"/>
      <point x="332" y="0" type="line"/>
      <point x="332" y="262" type="line"/>
      <point x="557" y="693" type="line"/>
      <point x="456" y="693" type="line"/>
      <point x="262" y="298" type="line"/>
      <point x="309" y="298" type="line"/>
      <point x="115" y="693" type="line"/>
      <point x="15" y="693" type="line"/>
    </contour>
  </outline>
</glyph>
<glyph name="Z" format="1">
  <advance width="542"/>
  <unicode hex="005A"/>
  <outline>
    <contour>
      <point x="271" y="693" type="move" name="top"/>
    </contour>
    <contour>
      <point x="492" y="693" type="line"/>
      <point x="50" y="693" type="line"/>
      <point x="50" y="620" type="line"/>
      <point x="388" y="620" type="line"/>
      <point x="50" y="72" type="line"/>
      <point x="50" y="0" type="line"/>
      <point x="492" y="0" type="line"/>
      <point x="492" y="72" type="line"/>
      <point x="155" y="72" type="line"/>
      <point x="492" y="620" type="line"/>
    </contour>
  </outline>
</glyph>
<glyph name="bracketleft" format="1">
  <advance width="474"/>
  <unicode hex="005B"/>
  <outline>
    <contour>
      <point x="160" y="-171" type="line"/>
      <point x="330" y="-171" type="line"/>
      <point x="330" y="-94" type="line"/>
      <point x="244" y="-94" type="line"/>
      <point x="244" y="866" type="line"/>
      <point x="330" y="866" type="line"/>
      <point x="330" y="942" type="line"/>
      <point x="160" y="942" type="line"/>
    </contour>
  </outline>
</glyph>
<glyph name="backslash" format="1">
  <advance width="683"/>
  <unicode hex="005C"/>
  <outline>
    <contour>
      <point x="247" y="942" type="line"/>
      <point x="156" y="942" type="line"/>
      <point x="469" y="-170" type="line"/>
      <point x="559" y="-170" type="line"/>
    </contour>
  </outline>
</glyph>
<glyph name="bracketright" format="1">
  <advance width="474"/>
  <unicode hex="005D"/>
  <outline>
    <contour>
      <point x="315" y="942" type="line"/>
      <point x="144" y="942" type="line"/>
      <point x="144" y="866" type="line"/>
      <point x="230" y="866" type="line"/>
      <point x="230" y="-94" type="line"/>
      <point x="144" y="-94" type="line"/>
      <point x="144" y="-171" type="line"/>
      <point x="315" y="-171" type="line"/>
    </contour>
  </outline>
</glyph>
<glyph name="asciicircum" format="1">
  <advance width="632"/>
  <unicode hex="005E"/>
  <outline>
    <contour>
      <point x="498" y="170" type="line"/>
      <point x="594" y="170" type="line"/>
      <point x="358" y="693" type="line"/>
      <point x="274" y="693" type="line"/>
      <point x="38" y="170" type="line"/>
      <point x="134" y="170" type="line"/>
      <point x="316" y="579" type="line"/>
    </contour>
  </outline>
</glyph>
<glyph name="underscore" format="1">
  <advance width="806"/>
  <unicode hex="005F"/>
  <outline>
    <contour>
      <point x="143" y="-122" type="line"/>
      <point x="675" y="-122" type="line"/>
      <point x="675" y="-40" type="line"/>
      <point x="143" y="-40" type="line"/>
    </contour>
  </outline>
</glyph>
<glyph name="grave" format="1">
  <advance width="239"/>
  <unicode hex="0060"/>
  <outline>
    <contour>
      <point x="126" y="549" type="move" name="_top"/>
    </contour>
    <contour>
      <point x="10" y="699" type="line"/>
      <point x="223" y="587" type="line"/>
      <point x="223" y="657" type="line"/>
      <point x="10" y="783" type="line"/>
    </contour>
  </outline>
</glyph>
<glyph name="a" format="1">
  <advance width="670"/>
  <unicode hex="0061"/>
  <outline>
    <contour>
      <point x="335" y="549" type="move" name="top"/>
    </contour>
    <contour>
      <point x="595" y="0" type="move" name="ogonek"/>
    </contour>
    <contour>
      <point x="39" y="278" type="curve" smooth="yes"/>
      <point x="39" y="108"/>
      <point x="153" y="-9"/>
      <point x="301" y="-9" type="curve" smooth="yes"/>
      <point x="398" y="-9"/>
      <point x="469" y="44"/>
      <point x="503" y="112" type="curve"/>
      <point x="503" y="0" type="line"/>
      <point x="595" y="0" type="line"/>
      <point x="595" y="549" type="line"/>
      <point x="503" y="549" type="line"/>
      <point x="503" y="439" type="line"/>
      <point x="469" y="506"/>
      <point x="398" y="558"/>
      <point x="301" y="558" type="curve" smooth="yes"/>
      <point x="153" y="558"/>
      <point x="39" y="448"/>
    </contour>
    <contour>
      <point x="503" y="274" type="curve" smooth="yes"/>
      <point x="503" y="146"/>
      <point x="415" y="69"/>
      <point x="317" y="69" type="curve" smooth="yes"/>
      <point x="221" y="69"/>
      <point x="132" y="149"/>
      <point x="132" y="278" type="curve" smooth="yes"/>
      <point x="132" y="407"/>
      <point x="221" y="479"/>
      <point x="317" y="479" type="curve" smooth="yes"/>
      <point x="415" y="479"/>
      <point x="503" y="403"/>
    </contour>
  </outline>
</glyph>
<glyph name="b" format="1">
  <advance width="670"/>
  <unicode hex="0062"/>
  <outline>
    <contour>
      <point x="166" y="439" type="curve"/>
      <point x="166" y="740" type="line"/>
      <point x="75" y="740" type="line"/>
      <point x="75" y="0" type="line"/>
      <point x="166" y="0" type="line"/>
      <point x="166" y="112" type="line"/>
      <point x="201" y="44"/>
      <point x="271" y="-9"/>
      <point x="369" y="-9" type="curve" smooth="yes"/>
      <point x="517" y="-9"/>
      <point x="631" y="108"/>
      <point x="631" y="278" type="curve" smooth="yes"/>
      <point x="631" y="448"/>
      <point x="517" y="558"/>
      <point x="369" y="558" type="curve" smooth="yes"/>
      <point x="271" y="558"/>
      <point x="201" y="506"/>
    </contour>
    <contour>
      <point x="537" y="278" type="curve" smooth="yes"/>
      <point x="537" y="149"/>
      <point x="449" y="69"/>
      <point x="351" y="69" type="curve" smooth="yes"/>
      <point x="255" y="69"/>
      <point x="166" y="146"/>
      <point x="166" y="274" type="curve" smooth="yes"/>
      <point x="166" y="403"/>
      <point x="255" y="479"/>
      <point x="351" y="479" type="curve" smooth="yes"/>
      <point x="449" y="479"/>
      <point x="537" y="407"/>
    </contour>
  </outline>
</glyph>
<glyph name="c" format="1">
  <advance width="600"/>
  <unicode hex="0063"/>
  <outline>
    <contour>
      <point x="300" y="549" type="move" name="top"/>
    </contour>
    <contour>
      <point x="300" y="0" type="move" name="bottom"/>
    </contour>
    <contour>
      <point x="39" y="274" type="curve" smooth="yes"/>
      <point x="39" y="103"/>
      <point x="149" y="-9"/>
      <point x="305" y="-9" type="curve" smooth="yes"/>
      <point x="440" y="-9"/>
      <point x="522" y="65"/>
      <point x="554" y="168" type="curve"/>
      <point x="456" y="168" type="line"/>
      <point x="434" y="102"/>
      <point x="383" y="66"/>
      <point x="305" y="66" type="curve" smooth="yes"/>
      <point x="204" y="66"/>
      <point x="132" y="138"/>
      <point x="132" y="274" type="curve" smooth="yes"/>
      <point x="132" y="411"/>
      <point x="204" y="483"/>
      <point x="305" y="483" type="curve" smooth="yes"/>
      <point x="383" y="483"/>
      <point x="435" y="444"/>
      <point x="456" y="381" type="curve"/>
      <point x="554" y="381" type="line"/>
      <point x="522" y="491"/>
      <point x="440" y="558"/>
      <point x="305" y="558" type="curve" smooth="yes"/>
      <point x="149" y="558"/>
      <point x="39" y="446"/>
    </contour>
  </outline>
</glyph>
<glyph name="e" format="1">
  <advance width="611"/>
  <unicode hex="0065"/>
  <outline>
    <contour>
      <point x="306" y="549" type="move" name="top"/>
    </contour>
    <contour>
      <point x="465" y="61" type="move" name="ogonek"/>
    </contour>
    <contour>
      <point x="306" y="0" type="move" name="bottom"/>
    </contour>
    <contour>
      <point x="111" y="243" type="line"/>
      <point x="569" y="243" type="line"/>
      <point x="572" y="262"/>
      <point x="573" y="280"/>
      <point x="573" y="297" type="curve" smooth="yes"/>
      <point x="573" y="447"/>
      <point x="468" y="558"/>
      <point x="312" y="558" type="curve" smooth="yes"/>
      <point x="149" y="558"/>
      <point x="39" y="447"/>
      <point x="39" y="274" type="curve" smooth="yes"/>
      <point x="39" y="103"/>
      <point x="149" y="-9"/>
      <point x="305" y="-9" type="curve" smooth="yes"/>
      <point x="440" y="-9"/>
      <point x="522" y="68"/>
      <point x="554" y="157" type="curve"/>
      <point x="456" y="157" type="line"/>
      <point x="434" y="106"/>
      <point x="384" y="66"/>
      <point x="305" y="66" type="curve" smooth="yes"/>
      <point x="206" y="66"/>
      <point x="132" y="136"/>
      <point x="132" y="255" type="curve" smooth="yes"/>
      <point x="132" y="290" type="line" smooth="yes"/>
      <point x="132" y="412"/>
      <point x="207" y="483"/>
      <point x="305" y="483" type="curve" smooth="yes"/>
      <point x="401" y="483"/>
      <point x="477" y="417"/>
      <point x="478" y="309" type="curve"/>
      <point x="111" y="309" type="line"/>
    </contour>
  </outline>
</glyph>
<glyph name="f" format="1">
  <advance width="330"/>
  <unicode hex="0066"/>
  <outline>
    <contour>
      <point x="94" y="0" type="line"/>
      <point x="186" y="0" type="line"/>
      <point x="186" y="595" type="line" smooth="yes"/>
      <point x="186" y="664"/>
      <point x="212" y="693"/>
      <point x="293" y="693" type="curve"/>
      <point x="293" y="767" type="line"/>
      <point x="156" y="767"/>
      <point x="94" y="715"/>
      <point x="94" y="595" type="curve" smooth="yes"/>
    </contour>
    <contour>
      <point x="23" y="475" type="line"/>
      <point x="301" y="475" type="line"/>
      <point x="301" y="549" type="line"/>
      <point x="23" y="549" type="line"/>
    </contour>
  </outline>
</glyph>
<glyph name="g" format="1">
  <advance width="670"/>
  <unicode hex="0067"/>
  <outline>
    <contour>
      <point x="335" y="549" type="move" name="top"/>
    </contour>
    <contour>
      <point x="503" y="274" type="curve" smooth="yes"/>
      <point x="503" y="146"/>
      <point x="415" y="69"/>
      <point x="317" y="69" type="curve" smooth="yes"/>
      <point x="221" y="69"/>
      <point x="132" y="149"/>
      <point x="132" y="278" type="curve" smooth="yes"/>
      <point x="132" y="407"/>
      <point x="221" y="479"/>
      <point x="317" y="479" type="curve" smooth="yes"/>
      <point x="415" y="479"/>
      <point x="503" y="403"/>
    </contour>
    <contour>
      <point x="39" y="278" type="curve" smooth="yes"/>
      <point x="39" y="108"/>
      <point x="153" y="-9"/>
      <point x="301" y="-9" type="curve" smooth="yes"/>
      <point x="398" y="-9"/>
      <point x="469" y="44"/>
      <point x="503" y="112" type="curve"/>
      <point x="503" y="-14" type="line" smooth="yes"/>
      <point x="503" y="-129"/>
      <point x="432" y="-191"/>
      <point x="330" y="-191" type="curve" smooth="yes"/>
      <point x="244" y="-191"/>
      <point x="174" y="-144"/>
      <point x="157" y="-82" type="curve"/>
      <point x="68" y="-82" type="line"/>
      <point x="82" y="-194"/>
      <point x="191" y="-270"/>
      <point x="330" y="-270" type="curve" smooth="yes"/>
      <point x="490" y="-270"/>
      <point x="595" y="-164"/>
      <point x="595" y="-14" type="curve" smooth="yes"/>
      <point x="595" y="549" type="line"/>
      <point x="503" y="549" type="line"/>
      <point x="503" y="439" type="line"/>
      <point x="469" y="506"/>
      <point x="398" y="558"/>
      <point x="301" y="558" type="curve" smooth="yes"/>
      <point x="153" y="558"/>
      <point x="39" y="448"/>
    </contour>
  </outline>
</glyph>
<glyph name="h" format="1">
  <advance width="628"/>
  <unicode hex="0068"/>
  <outline>
    <contour>
      <point x="75" y="0" type="line"/>
      <point x="166" y="0" type="line"/>
      <point x="166" y="740" type="line"/>
      <point x="75" y="740" type="line"/>
    </contour>
    <contour>
      <point x="468" y="0" type="line"/>
      <point x="558" y="0" type="line"/>
      <point x="558" y="325" type="line" smooth="yes"/>
      <point x="558" y="481"/>
      <point x="460" y="558"/>
      <point x="345" y="558" type="curve" smooth="yes"/>
      <point x="245" y="558"/>
      <point x="161" y="501"/>
      <point x="140" y="386" type="curve"/>
      <point x="166" y="310" type="line"/>
      <point x="166" y="423"/>
      <point x="226" y="479"/>
      <point x="317" y="479" type="curve" smooth="yes"/>
      <point x="409" y="479"/>
      <point x="468" y="423"/>
      <point x="468" y="310" type="curve" smooth="yes"/>
    </contour>
  </outline>
</glyph>
<glyph name="i" format="1">
  <advance width="241"/>
  <unicode hex="0069"/>
  <outline>
    <contour>
      <point x="166" y="1" type="move" name="ogonek"/>
    </contour>
    <contour>
      <point x="75" y="0" type="line"/>
      <point x="166" y="0" type="line"/>
      <point x="166" y="549" type="line"/>
      <point x="75" y="549" type="line"/>
    </contour>
    <contour>
      <point x="121" y="637" type="curve" smooth="yes"/>
      <point x="156" y="637"/>
      <point x="183" y="664"/>
      <point x="183" y="699" type="curve" smooth="yes"/>
      <point x="183" y="733"/>
      <point x="156" y="761"/>
      <point x="121" y="761" type="curve" smooth="yes"/>
      <point x="87" y="761"/>
      <point x="60" y="733"/>
      <point x="60" y="699" type="curve" smooth="yes"/>
      <point x="60" y="664"/>
      <point x="87" y="637"/>
    </contour>
  </outline>
</glyph>
<glyph name="j" format="1">
  <advance width="241"/>
  <unicode hex="006A"/>
  <outline>
    <contour>
      <point x="121" y="637" type="curve" smooth="yes"/>
      <point x="156" y="637"/>
      <point x="183" y="664"/>
      <point x="183" y="699" type="curve" smooth="yes"/>
      <point x="183" y="733"/>
      <point x="156" y="761"/>
      <point x="121" y="761" type="curve" smooth="yes"/>
      <point x="87" y="761"/>
      <point x="60" y="733"/>
      <point x="60" y="699" type="curve" smooth="yes"/>
      <point x="60" y="664"/>
      <point x="87" y="637"/>
    </contour>
    <contour>
      <point x="75" y="549" type="line"/>
      <point x="75" y="-118" type="line" smooth="yes"/>
      <point x="75" y="-166"/>
      <point x="58" y="-185"/>
      <point x="6" y="-185" type="curve" smooth="yes"/>
      <point x="-32" y="-185" type="line"/>
      <point x="-32" y="-260" type="line"/>
      <point x="24" y="-260" type="line" smooth="yes"/>
      <point x="114" y="-260"/>
      <point x="166" y="-218"/>
      <point x="166" y="-118" type="curve" smooth="yes"/>
      <point x="166" y="549" type="line"/>
    </contour>
  </outline>
</glyph>
<glyph name="k" format="1">
  <advance width="513"/>
  <unicode hex="006B"/>
  <outline>
    <contour>
      <point x="257" y="0" type="move" name="bottom"/>
    </contour>
    <contour>
      <point x="75" y="0" type="line"/>
      <point x="166" y="0" type="line"/>
      <point x="166" y="740" type="line"/>
      <point x="75" y="740" type="line"/>
    </contour>
    <contour>
      <point x="137" y="273" type="line"/>
      <point x="381" y="0" type="line"/>
      <point x="504" y="0" type="line"/>
      <point x="232" y="290" type="line"/>
      <point x="225" y="255" type="line"/>
      <point x="504" y="549" type="line"/>
      <point x="376" y="549" type="line"/>
    </contour>
  </outline>
</glyph>
<glyph name="l" format="1">
  <advance width="241"/>
  <unicode hex="006C"/>
  <outline>
    <contour>
      <point x="121" y="10" type="move" name="commaaccent"/>
    </contour>
    <contour>
      <point x="121" y="740" type="move" name="top"/>
    </contour>
    <contour>
      <point x="221" y="549" type="move" name="topright"/>
    </contour>
    <contour>
      <point x="121" y="0" type="move" name="bottom"/>
    </contour>
    <contour>
      <point x="75" y="0" type="line"/>
      <point x="166" y="0" type="line"/>
      <point x="166" y="740" type="line"/>
      <point x="75" y="740" type="line"/>
    </contour>
  </outline>
</glyph>
<glyph name="m" format="1">
  <advance width="1020"/>
  <unicode hex="006D"/>
  <outline>
    <contour>
      <point x="75" y="0" type="line"/>
      <point x="166" y="0" type="line"/>
      <point x="166" y="549" type="line"/>
      <point x="75" y="549" type="line"/>
    </contour>
    <contour>
      <point x="468" y="0" type="line"/>
      <point x="558" y="0" type="line"/>
      <point x="558" y="325" type="line" smooth="yes"/>
      <point x="558" y="481"/>
      <point x="460" y="558"/>
      <point x="345" y="558" type="curve" smooth="yes"/>
      <point x="245" y="558"/>
      <point x="161" y="501"/>
      <point x="140" y="386" type="curve"/>
      <point x="166" y="310" type="line"/>
      <point x="166" y="423"/>
      <point x="226" y="479"/>
      <point x="317" y="479" type="curve" smooth="yes"/>
      <point x="409" y="479"/>
      <point x="468" y="423"/>
      <point x="468" y="310" type="curve" smooth="yes"/>
    </contour>
    <contour>
      <point x="860" y="0" type="line"/>
      <point x="950" y="0" type="line"/>
      <point x="950" y="325" type="line" smooth="yes"/>
      <point x="950" y="481"/>
      <point x="853" y="558"/>
      <point x="735" y="558" type="curve" smooth="yes"/>
      <point x="625" y="558"/>
      <point x="542" y="490"/>
      <point x="515" y="381" type="curve"/>
      <point x="558" y="310" type="line"/>
      <point x="558" y="423"/>
      <point x="618" y="479"/>
      <point x="709" y="479" type="curve" smooth="yes"/>
      <point x="800" y="479"/>
      <point x="860" y="423"/>
      <point x="860" y="310" type="curve" smooth="yes"/>
    </contour>
  </outline>
</glyph>
<glyph name="n" format="1">
  <advance width="628"/>
  <unicode hex="006E"/>
  <outline>
    <contour>
      <point x="319" y="549" type="move" name="top"/>
    </contour>
    <contour>
      <point x="314" y="0" type="move" name="bottom"/>
    </contour>
    <contour>
      <point x="75" y="0" type="line"/>
      <point x="166" y="0" type="line"/>
      <point x="166" y="549" type="line"/>
      <point x="75" y="549" type="line"/>
    </contour>
    <contour>
      <point x="468" y="0" type="line"/>
      <point x="558" y="0" type="line"/>
      <point x="558" y="325" type="line" smooth="yes"/>
      <point x="558" y="481"/>
      <point x="460" y="558"/>
      <point x="345" y="558" type="curve" smooth="yes"/>
      <point x="245" y="558"/>
      <point x="161" y="501"/>
      <point x="140" y="386" type="curve"/>
      <point x="166" y="310" type="line"/>
      <point x="166" y="423"/>
      <point x="226" y="479"/>
      <point x="317" y="479" type="curve" smooth="yes"/>
      <point x="409" y="479"/>
      <point x="468" y="423"/>
      <point x="468" y="310" type="curve" smooth="yes"/>
    </contour>
  </outline>
</glyph>
<glyph name="o" format="1">
  <advance width="632"/>
  <unicode hex="006F"/>
  <outline>
    <contour>
      <point x="316" y="549" type="move" name="top"/>
    </contour>
    <contour>
      <point x="39" y="274" type="curve" smooth="yes"/>
      <point x="39" y="103"/>
      <point x="153" y="-9"/>
      <point x="308" y="-9" type="curve" smooth="yes"/>
      <point x="465" y="-9"/>
      <point x="593" y="103"/>
      <point x="593" y="274" type="curve" smooth="yes"/>
      <point x="593" y="447"/>
      <point x="471" y="558"/>
      <point x="316" y="558" type="curve" smooth="yes"/>
      <point x="160" y="558"/>
      <point x="39" y="447"/>
    </contour>
    <contour>
      <point x="499" y="274" type="curve" smooth="yes"/>
      <point x="499" y="138"/>
      <point x="405" y="66"/>
      <point x="308" y="66" type="curve" smooth="yes"/>
      <point x="211" y="66"/>
      <point x="132" y="138"/>
      <point x="132" y="274" type="curve" smooth="yes"/>
      <point x="132" y="412"/>
      <point x="216" y="483"/>
      <point x="313" y="483" type="curve" smooth="yes"/>
      <point x="410" y="483"/>
      <point x="499" y="412"/>
    </contour>
  </outline>
</glyph>
<glyph name="r" format="1">
  <advance width="368"/>
  <unicode hex="0072"/>
  <outline>
    <contour>
      <point x="229" y="549" type="move" name="top"/>
    </contour>
    <contour>
      <point x="121" y="0" type="move" name="bottom"/>
    </contour>
    <contour>
      <point x="166" y="300" type="line"/>
      <point x="166" y="426"/>
      <point x="222" y="463"/>
      <point x="309" y="463" type="curve" smooth="yes"/>
      <point x="333" y="463" type="line"/>
      <point x="333" y="558" type="line"/>
      <point x="194" y="558"/>
      <point x="136" y="447"/>
      <point x="136" y="300" type="curve"/>
    </contour>
    <contour>
      <point x="75" y="0" type="line"/>
      <point x="166" y="0" type="line"/>
      <point x="166" y="549" type="line"/>
      <point x="75" y="549" type="line"/>
    </contour>
  </outline>
</glyph>
<glyph name="s" format="1">
  <advance width="526"/>
  <unicode hex="0073"/>
  <outline>
    <contour>
      <point x="263" y="549" type="move" name="top"/>
    </contour>
    <contour>
      <point x="263" y="0" type="move" name="bottom"/>
    </contour>
    <contour>
      <point x="55" y="394" type="curve" smooth="yes"/>
      <point x="55" y="193"/>
      <point x="380" y="291"/>
      <point x="380" y="147" type="curve" smooth="yes"/>
      <point x="380" y="97"/>
      <point x="340" y="63"/>
      <point x="263" y="63" type="curve" smooth="yes"/>
      <point x="195" y="63"/>
      <point x="152" y="103"/>
      <point x="149" y="164" type="curve"/>
      <point x="55" y="164" type="line"/>
      <point x="62" y="55"/>
      <point x="141" y="-9"/>
      <point x="263" y="-9" type="curve" smooth="yes"/>
      <point x="386" y="-9"/>
      <point x="470" y="55"/>
      <point x="470" y="146" type="curve" smooth="yes"/>
      <point x="470" y="360"/>
      <point x="146" y="254"/>
      <point x="146" y="400" type="curve" smooth="yes"/>
      <point x="146" y="447"/>
      <point x="185" y="486"/>
      <point x="257" y="486" type="curve" smooth="yes"/>
      <point x="327" y="486"/>
      <point x="365" y="443"/>
      <point x="368" y="384" type="curve"/>
      <point x="462" y="384" type="line"/>
      <point x="456" y="491"/>
      <point x="383" y="558"/>
      <point x="264" y="558" type="curve" smooth="yes"/>
      <point x="135" y="558"/>
      <point x="55" y="483"/>
    </contour>
  </outline>
</glyph>
<glyph name="t" format="1">
  <advance width="355"/>
  <unicode hex="0074"/>
  <outline>
    <contour>
      <point x="186" y="803" type="move" name="topright"/>
    </contour>
    <contour>
      <point x="178" y="0" type="move" name="bottom"/>
    </contour>
    <contour>
      <point x="95" y="141" type="line"/>
      <point x="95" y="41"/>
      <point x="147" y="0"/>
      <point x="238" y="0" type="curve" smooth="yes"/>
      <point x="330" y="0" type="line"/>
      <point x="330" y="74" type="line"/>
      <point x="255" y="74" type="line" smooth="yes"/>
      <point x="204" y="74"/>
      <point x="187" y="92"/>
      <point x="187" y="141" type="curve" smooth="yes"/>
      <point x="187" y="685" type="line"/>
      <point x="95" y="685" type="line"/>
    </contour>
    <contour>
      <point x="329" y="475" type="line"/>
      <point x="329" y="549" type="line"/>
      <point x="24" y="549" type="line"/>
      <point x="24" y="475" type="line"/>
    </contour>
  </outline>
</glyph>
<glyph name="u" format="1">
  <advance width="628"/>
  <unicode hex="0075"/>
  <outline>
    <contour>
      <point x="314" y="549" type="move" name="top"/>
    </contour>
    <contour>
      <point x="553" y="0" type="move" name="ogonek"/>
    </contour>
    <contour>
      <point x="553" y="549" type="line"/>
      <point x="462" y="549" type="line"/>
      <point x="462" y="0" type="line"/>
      <point x="553" y="0" type="line"/>
    </contour>
    <contour>
      <point x="160" y="549" type="line"/>
      <point x="70" y="549" type="line"/>
      <point x="70" y="223" type="line" smooth="yes"/>
      <point x="70" y="68"/>
      <point x="168" y="-9"/>
      <point x="283" y="-9" type="curve" smooth="yes"/>
      <point x="384" y="-9"/>
      <point x="467" y="47"/>
      <point x="488" y="162" type="curve"/>
      <point x="462" y="238" type="line"/>
      <point x="462" y="126"/>
      <point x="402" y="69"/>
      <point x="311" y="69" type="curve" smooth="yes"/>
      <point x="220" y="69"/>
      <point x="160" y="126"/>
      <point x="160" y="238" type="curve" smooth="yes"/>
    </contour>
  </outline>
</glyph>
<glyph name="v" format="1">
  <advance width="556"/>
  <unicode hex="0076"/>
  <outline>
    <contour>
      <point x="12" y="549" type="line"/>
      <point x="226" y="0" type="line"/>
      <point x="329" y="0" type="line"/>
      <point x="544" y="549" type="line"/>
      <point x="446" y="549" type="line"/>
      <point x="277" y="85" type="line"/>
      <point x="109" y="549" type="line"/>
    </contour>
  </outline>
</glyph>
<glyph name="w" format="1">
  <advance width="808"/>
  <unicode hex="0077"/>
  <outline>
    <contour>
      <point x="186" y="0" type="line"/>
      <point x="281" y="0" type="line"/>
      <point x="425" y="508" type="line"/>
      <point x="384" y="508" type="line"/>
      <point x="529" y="0" type="line"/>
      <point x="623" y="0" type="line"/>
      <point x="796" y="549" type="line"/>
      <point x="704" y="549" type="line"/>
      <point x="563" y="35" type="line"/>
      <point x="593" y="35" type="line"/>
      <point x="456" y="549" type="line"/>
      <point x="362" y="549" type="line"/>
      <point x="217" y="35" type="line"/>
      <point x="248" y="35" type="line"/>
      <point x="106" y="549" type="line"/>
      <point x="12" y="549" type="line"/>
    </contour>
  </outline>
</glyph>
<glyph name="x" format="1">
  <advance width="478"/>
  <unicode hex="0078"/>
  <outline>
    <contour>
      <point x="362" y="0" type="line"/>
      <point x="465" y="0" type="line"/>
      <point x="115" y="549" type="line"/>
      <point x="12" y="549" type="line"/>
    </contour>
    <contour>
      <point x="208" y="301" type="line"/>
      <point x="12" y="0" type="line"/>
      <point x="111" y="0" type="line"/>
      <point x="247" y="230" type="line"/>
    </contour>
    <contour>
      <point x="271" y="247" type="line"/>
      <point x="466" y="549" type="line"/>
      <point x="368" y="549" type="line"/>
      <point x="231" y="319" type="line"/>
    </contour>
  </outline>
</glyph>
<glyph name="y" format="1">
  <advance width="557"/>
  <unicode hex="0079"/>
  <outline>
    <contour>
      <point x="279" y="549" type="move" name="top"/>
    </contour>
    <contour>
      <point x="229" y="9" type="line"/>
      <point x="120" y="-257" type="line"/>
      <point x="214" y="-257" type="line"/>
      <point x="545" y="549" type="line"/>
      <point x="451" y="549" type="line"/>
      <point x="280" y="105" type="line"/>
      <point x="112" y="549" type="line"/>
      <point x="12" y="549" type="line"/>
    </contour>
  </outline>
</glyph>
<glyph name="z" format="1">
  <advance width="453"/>
  <unicode hex="007A"/>
  <outline>
    <contour>
      <point x="227" y="549" type="move" name="top"/>
    </contour>
    <contour>
      <point x="410" y="549" type="line"/>
      <point x="42" y="549" type="line"/>
      <point x="42" y="475" type="line"/>
      <point x="307" y="475" type="line"/>
      <point x="42" y="74" type="line"/>
      <point x="42" y="0" type="line"/>
      <point x="410" y="0" type="line"/>
      <point x="410" y="74" type="line"/>
      <point x="145" y="74" type="line"/>
      <point x="410" y="475" type="line"/>
    </contour>
  </outline>
</glyph>
<glyph name="braceleft" format="1">
  <advance width="550"/>
  <unicode hex="007B"/>
  <outline>
    <contour>
      <point x="227" y="373" type="line"/>
      <point x="300" y="388"/>
      <point x="332" y="442"/>
      <point x="332" y="508" type="curve" smooth="yes"/>
      <point x="332" y="573"/>
      <point x="316" y="616"/>
      <point x="316" y="700" type="curve" smooth="yes"/>
      <point x="316" y="836"/>
      <point x="366" y="916"/>
      <point x="444" y="945" type="curve"/>
      <point x="444" y="961" type="line"/>
      <point x="353" y="961" type="line"/>
      <point x="315" y="944"/>
      <point x="229" y="902"/>
      <point x="229" y="717" type="curve" smooth="yes"/>
      <point x="229" y="645"/>
      <point x="246" y="591"/>
      <point x="246" y="522" type="curve" smooth="yes"/>
      <point x="246" y="477"/>
      <point x="233" y="410"/>
      <point x="145" y="393" type="curve"/>
      <point x="145" y="351" type="line"/>
      <point x="233" y="333"/>
      <point x="246" y="267"/>
      <point x="246" y="222" type="curve" smooth="yes"/>
      <point x="246" y="153"/>
      <point x="229" y="99"/>
      <point x="229" y="27" type="curve" smooth="yes"/>
      <point x="229" y="-158"/>
      <point x="315" y="-200"/>
      <point x="353" y="-217" type="curve"/>
      <point x="444" y="-217" type="line"/>
      <point x="444" y="-201" type="line"/>
      <point x="366" y="-172"/>
      <point x="316" y="-92"/>
      <point x="316" y="44" type="curve" smooth="yes"/>
      <point x="316" y="128"/>
      <point x="332" y="171"/>
      <point x="332" y="236" type="curve" smooth="yes"/>
      <point x="332" y="302"/>
      <point x="303" y="356"/>
      <point x="227" y="371" type="curve"/>
    </contour>
  </outline>
</glyph>
<glyph name="bar" format="1">
  <advance width="301"/>
  <unicode hex="007C"/>
  <outline>
    <contour>
      <point x="105" y="795" type="line"/>
      <point x="105" y="-106" type="line"/>
      <point x="196" y="-106" type="line"/>
      <point x="196" y="795" type="line"/>
    </contour>
  </outline>
</glyph>
<glyph name="braceright" format="1">
  <advance width="547"/>
  <unicode hex="007D"/>
  <outline>
    <contour>
      <point x="323" y="371" type="line"/>
      <point x="247" y="356"/>
      <point x="219" y="302"/>
      <point x="219" y="236" type="curve" smooth="yes"/>
      <point x="219" y="171"/>
      <point x="235" y="128"/>
      <point x="235" y="44" type="curve" smooth="yes"/>
      <point x="235" y="-92"/>
      <point x="184" y="-172"/>
      <point x="106" y="-201" type="curve"/>
      <point x="106" y="-217" type="line"/>
      <point x="198" y="-217" type="line"/>
      <point x="236" y="-200"/>
      <point x="322" y="-158"/>
      <point x="322" y="27" type="curve" smooth="yes"/>
      <point x="322" y="99"/>
      <point x="305" y="153"/>
      <point x="305" y="222" type="curve" smooth="yes"/>
      <point x="305" y="267"/>
      <point x="317" y="333"/>
      <point x="405" y="351" type="curve"/>
      <point x="405" y="393" type="line"/>
      <point x="317" y="410"/>
      <point x="305" y="477"/>
      <point x="305" y="522" type="curve" smooth="yes"/>
      <point x="305" y="591"/>
      <point x="322" y="645"/>
      <point x="322" y="717" type="curve" smooth="yes"/>
      <point x="322" y="902"/>
      <point x="236" y="944"/>
      <point x="198" y="961" type="curve"/>
      <point x="106" y="961" type="line"/>
      <point x="106" y="945" type="line"/>
      <point x="184" y="916"/>
      <point x="235" y="836"/>
      <point x="235" y="700" type="curve" smooth="yes"/>
      <point x="235" y="616"/>
      <point x="219" y="573"/>
      <point x="219" y="508" type="curve" smooth="yes"/>
      <point x="219" y="442"/>
      <point x="250" y="388"/>
      <point x="323" y="373" type="curve"/>
    </contour>
  </outline>
</glyph>
<glyph name="asciitilde" format="1">
  <advance width="520"/>
  <unicode hex="007E"/>
  <outline>
    <contour>
      <point x="38" y="251" type="curve"/>
      <point x="105" y="251" type="line"/>
      <point x="110" y="290"/>
      <point x="144" y="312"/>
      <point x="175" y="312" type="curve"/>
      <point x="234" y="312"/>
      <point x="261" y="248"/>
      <point x="337" y="248" type="curve" smooth="yes"/>
      <point x="409" y="248"/>
      <point x="465" y="291"/>
      <point x="483" y="391" type="curve"/>
      <point x="415" y="391" type="line"/>
      <point x="410" y="351"/>
      <point x="377" y="330"/>
      <point x="345" y="330" type="curve" smooth="yes"/>
      <point x="287" y="330"/>
      <point x="259" y="394"/>
      <point x="183" y="394" type="curve" smooth="yes"/>
      <point x="112" y="394"/>
      <point x="56" y="351"/>
    </contour>
  </outline>
</glyph>
<glyph name="cent" format="1">
  <advance width="715"/>
  <unicode hex="00A2"/>
  <outline>
    <contour>
      <point x="330" y="446" type="curve" smooth="yes"/>
      <point x="417" y="446"/>
      <point x="459" y="407"/>
      <point x="476" y="354" type="curve"/>
      <point x="561" y="354" type="line"/>
      <point x="547" y="446"/>
      <point x="464" y="523"/>
      <point x="330" y="523" type="curve" smooth="yes"/>
      <point x="156" y="523"/>
      <point x="71" y="400"/>
      <point x="71" y="260" type="curve" smooth="yes"/>
      <point x="71" y="122"/>
      <point x="156" y="-1"/>
      <point x="330" y="-1" type="curve" smooth="yes"/>
      <point x="464" y="-1"/>
      <point x="547" y="75"/>
      <point x="561" y="167" type="curve"/>
      <point x="476" y="167" type="line"/>
      <point x="459" y="114"/>
      <point x="417" y="75"/>
      <point x="330" y="75" type="curve" smooth="yes"/>
      <point x="226" y="75"/>
      <point x="156" y="144"/>
      <point x="156" y="261" type="curve"/>
      <point x="156" y="377"/>
      <point x="226" y="446"/>
    </contour>
    <contour>
      <point x="299" y="473" type="line"/>
      <point x="359" y="473" type="line"/>
      <point x="359" y="610" type="line"/>
      <point x="299" y="610" type="line"/>
    </contour>
    <contour>
      <point x="299" y="-89" type="line"/>
      <point x="359" y="-89" type="line"/>
      <point x="359" y="48" type="line"/>
      <point x="299" y="48" type="line"/>
    </contour>
  </outline>
</glyph>
<glyph name="sterling" format="1">
  <advance width="639"/>
  <unicode hex="00A3"/>
  <outline>
    <contour>
      <point x="109" y="497" type="curve" smooth="yes"/>
      <point x="109" y="377"/>
      <point x="162" y="342"/>
      <point x="162" y="249" type="curve" smooth="yes"/>
      <point x="162" y="157"/>
      <point x="130" y="107"/>
      <point x="83" y="52" type="curve"/>
      <point x="102" y="-1" type="line"/>
      <point x="545" y="-1" type="line"/>
      <point x="545" y="75" type="line"/>
      <point x="180" y="75" type="line"/>
      <point x="224" y="124"/>
      <point x="248" y="179"/>
      <point x="248" y="248" type="curve"/>
      <point x="248" y="326"/>
      <point x="194" y="400"/>
      <point x="194" y="492" type="curve" smooth="yes"/>
      <point x="194" y="595"/>
      <point x="256" y="633"/>
      <point x="328" y="633" type="curve" smooth="yes"/>
      <point x="420" y="633"/>
      <point x="456" y="577"/>
      <point x="456" y="503" type="curve"/>
      <point x="538" y="503" type="line"/>
      <point x="537" y="615"/>
      <point x="473" y="710"/>
      <point x="327" y="710" type="curve" smooth="yes"/>
      <point x="200" y="710"/>
      <point x="109" y="625"/>
    </contour>
    <contour>
      <point x="45" y="372" type="line"/>
      <point x="45" y="308" type="line"/>
      <point x="417" y="308" type="line"/>
      <point x="417" y="372" type="line"/>
    </contour>
  </outline>
</glyph>
<glyph name="currency" format="1">
  <advance width="537"/>
  <unicode hex="00A4"/>
  <outline>
    <contour>
      <point x="91" y="377" type="curve" smooth="yes"/>
      <point x="91" y="270"/>
      <point x="162" y="201"/>
      <point x="264" y="201" type="curve" smooth="yes"/>
      <point x="365" y="201"/>
      <point x="445" y="270"/>
      <point x="445" y="377" type="curve" smooth="yes"/>
      <point x="445" y="484"/>
      <point x="369" y="553"/>
      <point x="268" y="553" type="curve" smooth="yes"/>
      <point x="168" y="553"/>
      <point x="91" y="484"/>
    </contour>
    <contour>
      <point x="372" y="377" type="curve" smooth="yes"/>
      <point x="372" y="297"/>
      <point x="319" y="257"/>
      <point x="265" y="257" type="curve" smooth="yes"/>
      <point x="210" y="257"/>
      <point x="164" y="297"/>
      <point x="164" y="377" type="curve" smooth="yes"/>
      <point x="164" y="456"/>
      <point x="212" y="498"/>
      <point x="267" y="498" type="curve" smooth="yes"/>
      <point x="322" y="498"/>
      <point x="372" y="456"/>
    </contour>
    <contour>
      <point x="351" y="251" type="line"/>
      <point x="432" y="170" type="line"/>
      <point x="477" y="215" type="line"/>
      <point x="396" y="294" type="line"/>
    </contour>
    <contour>
      <point x="142" y="297" type="line"/>
      <point x="60" y="215" type="line"/>
      <point x="105" y="170" type="line"/>
      <point x="189" y="254" type="line"/>
    </contour>
    <contour>
      <point x="189" y="502" type="line"/>
      <point x="105" y="586" type="line"/>
      <point x="60" y="541" type="line"/>
      <point x="143" y="459" type="line"/>
    </contour>
    <contour>
      <point x="393" y="457" type="line"/>
      <point x="477" y="541" type="line"/>
      <point x="432" y="586" type="line"/>
      <point x="347" y="501" type="line"/>
    </contour>
  </outline>
</glyph>
<glyph name="yen" format="1">
  <advance width="572"/>
  <unicode hex="00A5"/>
  <outline>
    <contour>
      <point x="322" y="312" type="line"/>
      <point x="532" y="314" type="line"/>
      <point x="532" y="383" type="line"/>
      <point x="342" y="383" type="line"/>
    </contour>
    <contour>
      <point x="41" y="140" type="line"/>
      <point x="532" y="140" type="line"/>
      <point x="532" y="209" type="line"/>
      <point x="41" y="209" type="line"/>
    </contour>
    <contour>
      <point x="241" y="262" type="line"/>
      <point x="241" y="0" type="line"/>
      <point x="332" y="0" type="line"/>
      <point x="332" y="262" type="line"/>
      <point x="557" y="693" type="line"/>
      <point x="456" y="693" type="line"/>
      <point x="262" y="298" type="line"/>
      <point x="309" y="298" type="line"/>
      <point x="115" y="693" type="line"/>
      <point x="15" y="693" type="line"/>
    </contour>
    <contour>
      <point x="41" y="314" type="line"/>
      <point x="259" y="312" type="line"/>
      <point x="239" y="383" type="line"/>
      <point x="41" y="383" type="line"/>
    </contour>
  </outline>
</glyph>
<glyph name="brokenbar" format="1">
  <advance width="301"/>
  <unicode hex="00A6"/>
  <outline>
    <contour>
      <point x="105" y="272" type="line"/>
      <point x="105" y="-106" type="line"/>
      <point x="196" y="-106" type="line"/>
      <point x="196" y="272" type="line"/>
    </contour>
    <contour>
      <point x="196" y="417" type="line"/>
      <point x="196" y="795" type="line"/>
      <point x="105" y="795" type="line"/>
      <point x="105" y="417" type="line"/>
    </contour>
  </outline>
</glyph>
<glyph name="section" format="1">
  <advance width="574"/>
  <unicode hex="00A7"/>
  <outline>
    <contour>
      <point x="78" y="538" type="curve" smooth="yes"/>
      <point x="78" y="455"/>
      <point x="145" y="422"/>
      <point x="219" y="391" type="curve"/>
      <point x="226" y="416" type="line"/>
      <point x="113" y="401"/>
      <point x="45" y="333"/>
      <point x="45" y="244" type="curve" smooth="yes"/>
      <point x="45" y="147"/>
      <point x="116" y="98"/>
      <point x="248" y="55" type="curve" smooth="yes"/>
      <point x="376" y="13"/>
      <point x="408" y="-9"/>
      <point x="408" y="-56" type="curve" smooth="yes"/>
      <point x="408" y="-114"/>
      <point x="363" y="-143"/>
      <point x="287" y="-143" type="curve" smooth="yes"/>
      <point x="210" y="-143"/>
      <point x="177" y="-102"/>
      <point x="173" y="-52" type="curve"/>
      <point x="86" y="-52" type="line"/>
      <point x="86" y="-150"/>
      <point x="173" y="-207"/>
      <point x="287" y="-207" type="curve" smooth="yes"/>
      <point x="421" y="-207"/>
      <point x="497" y="-136"/>
      <point x="497" y="-50" type="curve" smooth="yes"/>
      <point x="497" y="33"/>
      <point x="430" y="66"/>
      <point x="355" y="97" type="curve"/>
      <point x="347" y="70" type="line"/>
      <point x="464" y="90"/>
      <point x="529" y="158"/>
      <point x="529" y="244" type="curve"/>
      <point x="529" y="341"/>
      <point x="459" y="390"/>
      <point x="326" y="433" type="curve" smooth="yes"/>
      <point x="199" y="475"/>
      <point x="167" y="497"/>
      <point x="167" y="544" type="curve" smooth="yes"/>
      <point x="167" y="602"/>
      <point x="211" y="631"/>
      <point x="288" y="631" type="curve" smooth="yes"/>
      <point x="364" y="631"/>
      <point x="397" y="590"/>
      <point x="401" y="540" type="curve"/>
      <point x="489" y="540" type="line"/>
      <point x="489" y="638"/>
      <point x="401" y="695"/>
      <point x="288" y="695" type="curve" smooth="yes"/>
      <point x="154" y="695"/>
      <point x="78" y="624"/>
    </contour>
    <contour>
      <point x="438" y="244" type="curve" smooth="yes"/>
      <point x="438" y="183"/>
      <point x="383" y="130"/>
      <point x="289" y="130" type="curve" smooth="yes"/>
      <point x="195" y="130"/>
      <point x="137" y="183"/>
      <point x="137" y="244" type="curve"/>
      <point x="137" y="305"/>
      <point x="191" y="358"/>
      <point x="285" y="358" type="curve" smooth="yes"/>
      <point x="377" y="358"/>
      <point x="438" y="308"/>
    </contour>
  </outline>
</glyph>
<glyph name="dieresis" format="1">
  <advance width="289"/>
  <unicode hex="00A8"/>
  <outline>
    <contour>
      <point x="145" y="549" type="move" name="_top"/>
    </contour>
    <contour>
      <point x="64" y="620" type="curve" smooth="yes"/>
      <point x="94" y="620"/>
      <point x="118" y="644"/>
      <point x="118" y="674" type="curve" smooth="yes"/>
      <point x="118" y="704"/>
      <point x="94" y="728"/>
      <point x="64" y="728" type="curve" smooth="yes"/>
      <point x="34" y="728"/>
      <point x="10" y="704"/>
      <point x="10" y="674" type="curve" smooth="yes"/>
      <point x="10" y="644"/>
      <point x="34" y="620"/>
    </contour>
    <contour>
      <point x="225" y="620" type="curve" smooth="yes"/>
      <point x="255" y="620"/>
      <point x="279" y="644"/>
      <point x="279" y="674" type="curve" smooth="yes"/>
      <point x="279" y="704"/>
      <point x="255" y="728"/>
      <point x="225" y="728" type="curve" smooth="yes"/>
      <point x="195" y="728"/>
      <point x="171" y="704"/>
      <point x="171" y="674" type="curve" smooth="yes"/>
      <point x="171" y="644"/>
      <point x="195" y="620"/>
    </contour>
  </outline>
</glyph>
<glyph name="copyright" format="1">
  <advance width="790"/>
  <unicode hex="00A9"/>
  <outline>
    <contour>
      <point x="741" y="346" type="curve" smooth="yes"/>
      <point x="741" y="138"/>
      <point x="601" y="-9"/>
      <point x="395" y="-9" type="curve" smooth="yes"/>
      <point x="189" y="-9"/>
      <point x="48" y="138"/>
      <point x="48" y="346" type="curve" smooth="yes"/>
      <point x="48" y="554"/>
      <point x="189" y="700"/>
      <point x="395" y="700" type="curve" smooth="yes"/>
      <point x="601" y="700"/>
      <point x="741" y="554"/>
    </contour>
    <contour>
      <point x="93" y="346" type="curve" smooth="yes"/>
      <point x="93" y="157"/>
      <point x="209" y="31"/>
      <point x="395" y="31" type="curve" smooth="yes"/>
      <point x="580" y="31"/>
      <point x="696" y="157"/>
      <point x="696" y="346" type="curve" smooth="yes"/>
      <point x="696" y="536"/>
      <point x="580" y="660"/>
      <point x="395" y="660" type="curve" smooth="yes"/>
      <point x="209" y="660"/>
      <point x="93" y="536"/>
    </contour>
    <contour>
      <point x="177" y="347" type="curve" smooth="yes"/>
      <point x="177" y="207"/>
      <point x="273" y="115"/>
      <point x="394" y="115" type="curve" smooth="yes"/>
      <point x="496" y="115"/>
      <point x="570" y="177"/>
      <point x="597" y="260" type="curve"/>
      <point x="510" y="260" type="line"/>
      <point x="493" y="214"/>
      <point x="458" y="183"/>
      <point x="394" y="183" type="curve" smooth="yes"/>
      <point x="319" y="183"/>
      <point x="262" y="235"/>
      <point x="262" y="347" type="curve" smooth="yes"/>
      <point x="262" y="459"/>
      <point x="319" y="510"/>
      <point x="394" y="510" type="curve" smooth="yes"/>
      <point x="450" y="510"/>
      <point x="494" y="486"/>
      <point x="510" y="433" type="curve"/>
      <point x="597" y="433" type="line"/>
      <point x="570" y="523"/>
      <point x="496" y="578"/>
      <point x="394" y="578" type="curve" smooth="yes"/>
      <point x="273" y="578"/>
      <point x="177" y="487"/>
    </contour>
  </outline>
</glyph>
<glyph name="ordfeminine" format="1">
  <advance width="450"/>
  <unicode hex="00AA"/>
  <outline>
    <contour>
      <point x="33" y="530" type="curve" smooth="yes"/>
      <point x="33" y="425"/>
      <point x="107" y="347"/>
      <point x="199" y="347" type="curve" smooth="yes"/>
      <point x="264" y="347"/>
      <point x="310" y="379"/>
      <point x="331" y="419" type="curve"/>
      <point x="331" y="353" type="line"/>
      <point x="404" y="353" type="line"/>
      <point x="404" y="703" type="line"/>
      <point x="331" y="703" type="line"/>
      <point x="331" y="637" type="line"/>
      <point x="310" y="678"/>
      <point x="264" y="709"/>
      <point x="199" y="709" type="curve" smooth="yes"/>
      <point x="107" y="709"/>
      <point x="33" y="636"/>
    </contour>
    <contour>
      <point x="331" y="528" type="curve" smooth="yes"/>
      <point x="331" y="451"/>
      <point x="279" y="405"/>
      <point x="220" y="405" type="curve" smooth="yes"/>
      <point x="163" y="405"/>
      <point x="110" y="453"/>
      <point x="110" y="530" type="curve" smooth="yes"/>
      <point x="110" y="607"/>
      <point x="163" y="650"/>
      <point x="220" y="650" type="curve" smooth="yes"/>
      <point x="279" y="650"/>
      <point x="331" y="605"/>
    </contour>
  </outline>
</glyph>
<glyph name="guillemotleft" format="1">
  <advance width="461"/>
  <unicode hex="00AB"/>
  <outline>
    <contour>
      <point x="131" y="295" type="line"/>
      <point x="230" y="470" type="line"/>
      <point x="141" y="470" type="line"/>
      <point x="45" y="295" type="line"/>
      <point x="141" y="120" type="line"/>
      <point x="230" y="120" type="line"/>
    </contour>
    <contour>
      <point x="312" y="295" type="line"/>
      <point x="411" y="470" type="line"/>
      <point x="321" y="470" type="line"/>
      <point x="226" y="295" type="line"/>
      <point x="321" y="120" type="line"/>
      <point x="411" y="120" type="line"/>
    </contour>
  </outline>
</glyph>
<glyph name="logicalnot" format="1">
  <advance width="738"/>
  <unicode hex="00AC"/>
  <outline>
    <contour>
      <point x="45" y="360" type="line"/>
      <point x="596" y="360" type="line"/>
      <point x="596" y="220" type="line"/>
      <point x="686" y="220" type="line"/>
      <point x="686" y="433" type="line"/>
      <point x="45" y="433" type="line"/>
    </contour>
  </outline>
</glyph>
<glyph name="registered" format="1">
  <advance width="790"/>
  <unicode hex="00AE"/>
  <outline>
    <contour>
      <point x="748" y="346" type="curve" smooth="yes"/>
      <point x="748" y="138"/>
      <point x="606" y="-9"/>
      <point x="398" y="-9" type="curve" smooth="yes"/>
      <point x="190" y="-9"/>
      <point x="48" y="138"/>
      <point x="48" y="346" type="curve" smooth="yes"/>
      <point x="48" y="554"/>
      <point x="190" y="700"/>
      <point x="398" y="700" type="curve" smooth="yes"/>
      <point x="606" y="700"/>
      <point x="748" y="554"/>
    </contour>
    <contour>
      <point x="93" y="346" type="curve" smooth="yes"/>
      <point x="93" y="157"/>
      <point x="211" y="31"/>
      <point x="398" y="31" type="curve" smooth="yes"/>
      <point x="586" y="31"/>
      <point x="703" y="157"/>
      <point x="703" y="346" type="curve" smooth="yes"/>
      <point x="703" y="536"/>
      <point x="586" y="660"/>
      <point x="398" y="660" type="curve" smooth="yes"/>
      <point x="211" y="660"/>
      <point x="93" y="536"/>
    </contour>
    <contour>
      <point x="506" y="450" type="curve" smooth="yes"/>
      <point x="506" y="397"/>
      <point x="477" y="362"/>
      <point x="406" y="362" type="curve" smooth="yes"/>
      <point x="316" y="362" type="line"/>
      <point x="316" y="539" type="line"/>
      <point x="406" y="539" type="line" smooth="yes"/>
      <point x="477" y="539"/>
      <point x="506" y="505"/>
    </contour>
    <contour>
      <point x="256" y="586" type="line"/>
      <point x="256" y="123" type="line"/>
      <point x="316" y="123" type="line"/>
      <point x="316" y="314" type="line"/>
      <point x="406" y="314" type="line" smooth="yes"/>
      <point x="520" y="314"/>
      <point x="568" y="378"/>
      <point x="568" y="450" type="curve" smooth="yes"/>
      <point x="568" y="527"/>
      <point x="515" y="586"/>
      <point x="406" y="586" type="curve" smooth="yes"/>
    </contour>
    <contour>
      <point x="365" y="334" type="line"/>
      <point x="499" y="123" type="line"/>
      <point x="574" y="123" type="line"/>
      <point x="436" y="334" type="line"/>
    </contour>
  </outline>
</glyph>
<glyph name="macron" format="1">
  <advance width="372"/>
  <unicode hex="00AF"/>
  <outline>
    <contour>
      <point x="186" y="549" type="move" name="_top"/>
    </contour>
    <contour>
      <point x="10" y="637" type="line"/>
      <point x="362" y="637" type="line"/>
      <point x="362" y="710" type="line"/>
      <point x="10" y="710" type="line"/>
    </contour>
  </outline>
</glyph>
<glyph name="degree" format="1">
  <advance width="412"/>
  <unicode hex="00B0"/>
  <outline>
    <contour>
      <point x="29" y="523" type="curve" smooth="yes"/>
      <point x="29" y="416"/>
      <point x="100" y="347"/>
      <point x="201" y="347" type="curve" smooth="yes"/>
      <point x="303" y="347"/>
      <point x="383" y="416"/>
      <point x="383" y="523" type="curve" smooth="yes"/>
      <point x="383" y="631"/>
      <point x="307" y="700"/>
      <point x="206" y="700" type="curve" smooth="yes"/>
      <point x="105" y="700"/>
      <point x="29" y="631"/>
    </contour>
    <contour>
      <point x="309" y="523" type="curve" smooth="yes"/>
      <point x="309" y="443"/>
      <point x="256" y="403"/>
      <point x="202" y="403" type="curve" smooth="yes"/>
      <point x="147" y="403"/>
      <point x="102" y="443"/>
      <point x="102" y="523" type="curve" smooth="yes"/>
      <point x="102" y="603"/>
      <point x="149" y="645"/>
      <point x="204" y="645" type="curve" smooth="yes"/>
      <point x="259" y="645"/>
      <point x="309" y="603"/>
    </contour>
  </outline>
</glyph>
<glyph name="plusminus" format="1">
  <advance width="744"/>
  <unicode hex="00B1"/>
  <outline>
    <contour>
      <point x="329" y="623" type="line"/>
      <point x="329" y="170" type="line"/>
      <point x="415" y="170" type="line"/>
      <point x="415" y="623" type="line"/>
    </contour>
    <contour>
      <point x="117" y="375" type="line"/>
      <point x="627" y="375" type="line"/>
      <point x="627" y="455" type="line"/>
      <point x="117" y="455" type="line"/>
    </contour>
    <contour>
      <point x="117" y="130" type="line"/>
      <point x="627" y="130" type="line"/>
      <point x="627" y="210" type="line"/>
      <point x="117" y="210" type="line"/>
    </contour>
  </outline>
</glyph>
<glyph name="twosuperior" format="1">
  <advance width="322"/>
  <unicode hex="00B2"/>
  <outline>
    <contour>
      <point x="24" y="611" type="curve"/>
      <point x="97" y="611" type="line"/>
      <point x="101" y="635"/>
      <point x="117" y="652"/>
      <point x="145" y="652" type="curve" smooth="yes"/>
      <point x="174" y="652"/>
      <point x="197" y="630"/>
      <point x="197" y="594" type="curve" smooth="yes"/>
      <point x="197" y="551"/>
      <point x="169" y="519"/>
      <point x="127" y="485" type="curve"/>
      <point x="25" y="404" type="line"/>
      <point x="25" y="352" type="line"/>
      <point x="277" y="352" type="line"/>
      <point x="277" y="413" type="line"/>
      <point x="85" y="413" type="line"/>
      <point x="73" y="385" type="line"/>
      <point x="183" y="463" type="line"/>
      <point x="246" y="510"/>
      <point x="274" y="545"/>
      <point x="274" y="595" type="curve" smooth="yes"/>
      <point x="274" y="656"/>
      <point x="225" y="710"/>
      <point x="147" y="710" type="curve" smooth="yes"/>
      <point x="69" y="710"/>
      <point x="27" y="667"/>
    </contour>
  </outline>
</glyph>
<glyph name="threesuperior" format="1">
  <advance width="329"/>
  <unicode hex="00B3"/>
  <outline>
    <contour>
      <point x="23" y="616" type="curve"/>
      <point x="94" y="616" type="line"/>
      <point x="102" y="639"/>
      <point x="120" y="652"/>
      <point x="153" y="652" type="curve" smooth="yes"/>
      <point x="190" y="652"/>
      <point x="213" y="632"/>
      <point x="213" y="601" type="curve" smooth="yes"/>
      <point x="213" y="570"/>
      <point x="187" y="553"/>
      <point x="151" y="553" type="curve" smooth="yes"/>
      <point x="110" y="553" type="line"/>
      <point x="110" y="503" type="line"/>
      <point x="152" y="503" type="line" smooth="yes"/>
      <point x="189" y="503"/>
      <point x="215" y="485"/>
      <point x="215" y="454" type="curve" smooth="yes"/>
      <point x="215" y="422"/>
      <point x="189" y="403"/>
      <point x="153" y="403" type="curve" smooth="yes"/>
      <point x="120" y="403"/>
      <point x="96" y="418"/>
      <point x="90" y="451" type="curve"/>
      <point x="19" y="451" type="line"/>
      <point x="24" y="386"/>
      <point x="72" y="347"/>
      <point x="154" y="347" type="curve" smooth="yes"/>
      <point x="237" y="347"/>
      <point x="292" y="392"/>
      <point x="292" y="445" type="curve" smooth="yes"/>
      <point x="292" y="487"/>
      <point x="263" y="514"/>
      <point x="228" y="525" type="curve"/>
      <point x="228" y="527" type="line"/>
      <point x="263" y="538"/>
      <point x="291" y="565"/>
      <point x="291" y="607" type="curve" smooth="yes"/>
      <point x="291" y="665"/>
      <point x="228" y="710"/>
      <point x="157" y="710" type="curve" smooth="yes"/>
      <point x="85" y="710"/>
      <point x="29" y="672"/>
    </contour>
  </outline>
</glyph>
<glyph name="acute" format="1">
  <advance width="233"/>
  <unicode hex="00B4"/>
  <outline>
    <contour>
      <point x="126" y="549" type="move" name="_top"/>
    </contour>
    <contour>
      <point x="10" y="657" type="line"/>
      <point x="10" y="587" type="line"/>
      <point x="223" y="699" type="line"/>
      <point x="223" y="783" type="line"/>
    </contour>
  </outline>
</glyph>
<glyph name="mu.math" format="1">
  <advance width="633"/>
  <unicode hex="00B5"/>
  <outline>
    <contour>
      <point x="558" y="549" type="line"/>
      <point x="467" y="549" type="line"/>
      <point x="467" y="0" type="line"/>
      <point x="558" y="0" type="line"/>
    </contour>
    <contour>
      <point x="467" y="238" type="line"/>
      <point x="467" y="126"/>
      <point x="407" y="69"/>
      <point x="316" y="69" type="curve" smooth="yes"/>
      <point x="225" y="69"/>
      <point x="165" y="126"/>
      <point x="165" y="238" type="curve" smooth="yes"/>
      <point x="165" y="549" type="line"/>
      <point x="75" y="549" type="line"/>
      <point x="75" y="-260" type="line"/>
      <point x="165" y="-260" type="line"/>
      <point x="165" y="54" type="line"/>
      <point x="155" y="42" type="line"/>
      <point x="189" y="8"/>
      <point x="237" y="-9"/>
      <point x="288" y="-9" type="curve" smooth="yes"/>
      <point x="389" y="-9"/>
      <point x="472" y="47"/>
      <point x="493" y="162" type="curve"/>
    </contour>
  </outline>
</glyph>
<glyph name="paragraph" format="1">
  <advance width="598"/>
  <unicode hex="00B6"/>
  <outline>
    <contour>
      <point x="274" y="693" type="line"/>
      <point x="112" y="693"/>
      <point x="37" y="603"/>
      <point x="37" y="489" type="curve" smooth="yes"/>
      <point x="37" y="375"/>
      <point x="110" y="286"/>
      <point x="274" y="286" type="curve" smooth="yes"/>
      <point x="285" y="286" type="line"/>
      <point x="285" y="0" type="line"/>
      <point x="370" y="0" type="line"/>
      <point x="370" y="620" type="line"/>
      <point x="438" y="620" type="line"/>
      <point x="438" y="0" type="line"/>
      <point x="523" y="0" type="line"/>
      <point x="523" y="693" type="line"/>
    </contour>
  </outline>
</glyph>
<glyph name="cedilla" format="1">
  <advance width="266"/>
  <unicode hex="00B8"/>
  <outline>
    <contour>
      <point x="91" y="0" type="move" name="_bottom"/>
    </contour>
    <contour>
      <point x="126" y="7" type="line"/>
      <point x="62" y="7" type="line"/>
      <point x="62" y="-114" type="line"/>
      <point x="117" y="-114" type="line" smooth="yes"/>
      <point x="152" y="-114"/>
      <point x="173" y="-125"/>
      <point x="173" y="-155" type="curve" smooth="yes"/>
      <point x="173" y="-185"/>
      <point x="152" y="-197"/>
      <point x="117" y="-197" type="curve" smooth="yes"/>
      <point x="10" y="-197" type="line"/>
      <point x="10" y="-260" type="line"/>
      <point x="129" y="-260" type="line" smooth="yes"/>
      <point x="202" y="-260"/>
      <point x="256" y="-219"/>
      <point x="256" y="-155" type="curve" smooth="yes"/>
      <point x="256" y="-91"/>
      <point x="202" y="-53"/>
      <point x="126" y="-53" type="curve"/>
    </contour>
  </outline>
</glyph>
<glyph name="onesuperior" format="1">
  <advance width="192"/>
  <unicode hex="00B9"/>
  <outline>
    <contour>
      <point x="71" y="352" type="line"/>
      <point x="144" y="352" type="line"/>
      <point x="144" y="704" type="line"/>
      <point x="20" y="704" type="line"/>
      <point x="20" y="649" type="line"/>
      <point x="71" y="649" type="line"/>
    </contour>
  </outline>
</glyph>
<glyph name="ordmasculine" format="1">
  <advance width="436"/>
  <unicode hex="00BA"/>
  <outline>
    <contour>
      <point x="33" y="527" type="curve" smooth="yes"/>
      <point x="33" y="419"/>
      <point x="111" y="347"/>
      <point x="214" y="347" type="curve" smooth="yes"/>
      <point x="317" y="347"/>
      <point x="403" y="419"/>
      <point x="403" y="527" type="curve" smooth="yes"/>
      <point x="403" y="638"/>
      <point x="322" y="709"/>
      <point x="219" y="709" type="curve" smooth="yes"/>
      <point x="116" y="709"/>
      <point x="33" y="638"/>
    </contour>
    <contour>
      <point x="327" y="527" type="curve" smooth="yes"/>
      <point x="327" y="446"/>
      <point x="271" y="404"/>
      <point x="214" y="404" type="curve" smooth="yes"/>
      <point x="157" y="404"/>
      <point x="110" y="446"/>
      <point x="110" y="527" type="curve" smooth="yes"/>
      <point x="110" y="611"/>
      <point x="159" y="653"/>
      <point x="217" y="653" type="curve" smooth="yes"/>
      <point x="274" y="653"/>
      <point x="327" y="611"/>
    </contour>
  </outline>
</glyph>
<glyph name="guillemotright" format="1">
  <advance width="461"/>
  <unicode hex="00BB"/>
  <outline>
    <contour>
      <point x="320" y="120" type="line"/>
      <point x="416" y="295" type="line"/>
      <point x="320" y="470" type="line"/>
      <point x="231" y="470" type="line"/>
      <point x="329" y="295" type="line"/>
      <point x="231" y="120" type="line"/>
    </contour>
    <contour>
      <point x="139" y="120" type="line"/>
      <point x="235" y="295" type="line"/>
      <point x="139" y="470" type="line"/>
      <point x="50" y="470" type="line"/>
      <point x="149" y="295" type="line"/>
      <point x="50" y="120" type="line"/>
    </contour>
  </outline>
</glyph>
<glyph name="onequarter" format="1">
  <advance width="639"/>
  <unicode hex="00BC"/>
  <outline>
    <contour>
      <point x="53" y="0" type="line"/>
      <point x="137" y="0" type="line"/>
      <point x="518" y="693" type="line"/>
      <point x="434" y="693" type="line"/>
    </contour>
    <contour>
      <point x="549" y="118" type="line"/>
      <point x="549" y="354" type="line"/>
      <point x="452" y="354" type="line"/>
      <point x="295" y="111" type="line"/>
      <point x="295" y="69" type="line"/>
      <point x="476" y="69" type="line"/>
      <point x="476" y="0" type="line"/>
      <point x="549" y="0" type="line"/>
      <point x="549" y="69" type="line"/>
      <point x="597" y="69" type="line"/>
      <point x="597" y="118" type="line"/>
    </contour>
    <contour>
      <point x="370" y="118" type="line"/>
      <point x="478" y="289" type="line"/>
      <point x="478" y="118" type="line"/>
    </contour>
    <component base="onesuperior" xOffset="12"/>
  </outline>
</glyph>
<glyph name="onehalf" format="1">
  <advance width="652"/>
  <unicode hex="00BD"/>
  <outline>
    <contour>
      <point x="53" y="0" type="line"/>
      <point x="137" y="0" type="line"/>
      <point x="502" y="693" type="line"/>
      <point x="418" y="693" type="line"/>
    </contour>
    <component base="twosuperior" xOffset="338" yOffset="-353"/>
    <component base="onesuperior" xOffset="12"/>
  </outline>
</glyph>
<glyph name="threequarters" format="1">
  <advance width="681"/>
  <unicode hex="00BE"/>
  <outline>
    <contour>
      <point x="112" y="0" type="line"/>
      <point x="196" y="0" type="line"/>
      <point x="605" y="693" type="line"/>
      <point x="522" y="693" type="line"/>
    </contour>
    <contour>
      <point x="605" y="118" type="line"/>
      <point x="605" y="354" type="line"/>
      <point x="508" y="354" type="line"/>
      <point x="351" y="111" type="line"/>
      <point x="351" y="69" type="line"/>
      <point x="532" y="69" type="line"/>
      <point x="532" y="0" type="line"/>
      <point x="605" y="0" type="line"/>
      <point x="605" y="69" type="line"/>
      <point x="653" y="69" type="line"/>
      <point x="653" y="118" type="line"/>
    </contour>
    <contour>
      <point x="425" y="118" type="line"/>
      <point x="533" y="289" type="line"/>
      <point x="533" y="118" type="line"/>
    </contour>
    <component base="threesuperior" xOffset="7"/>
  </outline>
</glyph>
<glyph name="AE" format="1">
  <advance width="896"/>
  <unicode hex="00C6"/>
  <outline>
    <contour>
      <point x="150" y="152" type="line"/>
      <point x="508" y="152" type="line"/>
      <point x="508" y="224" type="line"/>
      <point x="191" y="224" type="line"/>
    </contour>
    <contour>
      <point x="833" y="621" type="line"/>
      <point x="833" y="693" type="line"/>
      <point x="408" y="693" type="line"/>
      <point x="13" y="0" type="line"/>
      <point x="112" y="0" type="line"/>
      <point x="466" y="627" type="line"/>
      <point x="466" y="0" type="line"/>
      <point x="833" y="0" type="line"/>
      <point x="833" y="72" type="line"/>
      <point x="557" y="72" type="line"/>
      <point x="557" y="314" type="line"/>
      <point x="803" y="314" type="line"/>
      <point x="803" y="385" type="line"/>
      <point x="557" y="385" type="line"/>
      <point x="557" y="621" type="line"/>
    </contour>
  </outline>
</glyph>
<glyph name="Eth" format="1">
  <advance width="712"/>
  <unicode hex="00D0"/>
  <outline>
    <contour>
      <point x="4" y="302" type="line"/>
      <point x="374" y="302" type="line"/>
      <point x="374" y="384" type="line"/>
      <point x="4" y="384" type="line"/>
    </contour>
    <contour>
      <point x="310" y="693" type="curve" smooth="yes"/>
      <point x="91" y="693" type="line"/>
      <point x="91" y="0" type="line"/>
      <point x="310" y="0" type="line" smooth="yes"/>
      <point x="533" y="0"/>
      <point x="672" y="126"/>
      <point x="672" y="343" type="curve" smooth="yes"/>
      <point x="672" y="560"/>
      <point x="533" y="693"/>
    </contour>
    <contour>
      <point x="182" y="70" type="line"/>
      <point x="182" y="616" type="line"/>
      <point x="310" y="616" type="line" smooth="yes"/>
      <point x="486" y="616"/>
      <point x="579" y="512"/>
      <point x="579" y="343" type="curve" smooth="yes"/>
      <point x="579" y="174"/>
      <point x="486" y="70"/>
      <point x="310" y="70" type="curve" smooth="yes"/>
    </contour>
  </outline>
</glyph>
<glyph name="multiply" format="1">
  <advance width="719"/>
  <unicode hex="00D7"/>
  <outline>
    <contour>
      <point x="146" y="524" type="line"/>
      <point x="518" y="151" type="line"/>
      <point x="575" y="208" type="line"/>
      <point x="203" y="581" type="line"/>
    </contour>
    <contour>
      <point x="202" y="151" type="line"/>
      <point x="575" y="522" type="line"/>
      <point x="515" y="581" type="line"/>
      <point x="143" y="211" type="line"/>
    </contour>
  </outline>
</glyph>
<glyph name="Oslash" format="1">
  <advance width="782"/>
  <unicode hex="00D8"/>
  <outline>
    <contour>
      <point x="28" y="0" type="line"/>
      <point x="114" y="0" type="line"/>
      <point x="756" y="693" type="line"/>
      <point x="670" y="693" type="line"/>
    </contour>
    <component base="O"/>
  </outline>
</glyph>
<glyph name="Thorn" format="1">
  <advance width="578"/>
  <unicode hex="00DE"/>
  <outline>
    <contour>
      <point x="166" y="216" type="line"/>
      <point x="166" y="478" type="line"/>
      <point x="300" y="478" type="line" smooth="yes"/>
      <point x="404" y="478"/>
      <point x="448" y="427"/>
      <point x="448" y="346" type="curve" smooth="yes"/>
      <point x="448" y="268"/>
      <point x="404" y="216"/>
      <point x="300" y="216" type="curve" smooth="yes"/>
    </contour>
    <contour>
      <point x="540" y="346" type="curve" smooth="yes"/>
      <point x="540" y="461"/>
      <point x="462" y="550"/>
      <point x="300" y="550" type="curve" smooth="yes"/>
      <point x="165" y="550" type="line"/>
      <point x="165" y="693" type="line"/>
      <point x="75" y="693" type="line"/>
      <point x="75" y="0" type="line"/>
      <point x="166" y="0" type="line"/>
      <point x="166" y="144" type="line"/>
      <point x="300" y="144" type="line" smooth="yes"/>
      <point x="471" y="144"/>
      <point x="540" y="239"/>
    </contour>
  </outline>
</glyph>
<glyph name="germandbls" format="1">
  <advance width="655"/>
  <unicode hex="00DF"/>
  <outline>
    <contour>
      <point x="75" y="553" type="curve" smooth="yes"/>
      <point x="75" y="0" type="line"/>
      <point x="166" y="0" type="line"/>
      <point x="166" y="556" type="line" smooth="yes"/>
      <point x="166" y="626"/>
      <point x="216" y="672"/>
      <point x="279" y="672" type="curve" smooth="yes"/>
      <point x="341" y="672"/>
      <point x="386" y="625"/>
      <point x="386" y="564" type="curve" smooth="yes"/>
      <point x="386" y="518"/>
      <point x="365" y="483"/>
      <point x="323" y="461" type="curve" smooth="yes"/>
      <point x="290" y="444" type="line"/>
      <point x="290" y="396" type="line"/>
      <point x="448" y="295" type="line" smooth="yes"/>
      <point x="508" y="257"/>
      <point x="533" y="221"/>
      <point x="533" y="175" type="curve" smooth="yes"/>
      <point x="533" y="121"/>
      <point x="498" y="71"/>
      <point x="428" y="71" type="curve" smooth="yes"/>
      <point x="362" y="71"/>
      <point x="326" y="108"/>
      <point x="322" y="162" type="curve"/>
      <point x="242" y="162" type="line"/>
      <point x="242" y="51"/>
      <point x="335" y="-9"/>
      <point x="430" y="-9" type="curve" smooth="yes"/>
      <point x="527" y="-9"/>
      <point x="626" y="58"/>
      <point x="626" y="175" type="curve" smooth="yes"/>
      <point x="626" y="261"/>
      <point x="589" y="316"/>
      <point x="494" y="374" type="curve" smooth="yes"/>
      <point x="357" y="460" type="line"/>
      <point x="334" y="414" type="line"/>
      <point x="373" y="433" type="line" smooth="yes"/>
      <point x="445" y="467"/>
      <point x="479" y="515"/>
      <point x="479" y="580" type="curve" smooth="yes"/>
      <point x="479" y="664"/>
      <point x="416" y="750"/>
      <point x="281" y="750" type="curve" smooth="yes"/>
      <point x="162" y="750"/>
      <point x="75" y="676"/>
    </contour>
  </outline>
</glyph>
<glyph name="ae" format="1">
  <advance width="1084"/>
  <unicode hex="00E6"/>
  <outline>
    <contour>
      <point x="583" y="243" type="line"/>
      <point x="1042" y="243" type="line"/>
      <point x="1045" y="262"/>
      <point x="1046" y="280"/>
      <point x="1046" y="297" type="curve" smooth="yes"/>
      <point x="1046" y="445"/>
      <point x="943" y="558"/>
      <point x="789" y="558" type="curve" smooth="yes"/>
      <point x="707" y="558"/>
      <point x="644" y="534"/>
      <point x="592" y="460" type="curve"/>
      <point x="592" y="549" type="line"/>
      <point x="501" y="549" type="line"/>
      <point x="501" y="460" type="line"/>
      <point x="456" y="531"/>
      <point x="389" y="558"/>
      <point x="309" y="558" type="curve" smooth="yes"/>
      <point x="153" y="558"/>
      <point x="39" y="448"/>
      <point x="39" y="278" type="curve" smooth="yes"/>
      <point x="39" y="108"/>
      <point x="153" y="-9"/>
      <point x="301" y="-9" type="curve" smooth="yes"/>
      <point x="389" y="-9"/>
      <point x="461" y="34"/>
      <point x="501" y="94" type="curve"/>
      <point x="501" y="0" type="line"/>
      <point x="592" y="0" type="line"/>
      <point x="592" y="93" type="line"/>
      <point x="631" y="31"/>
      <point x="703" y="-9"/>
      <point x="785" y="-9" type="curve" smooth="yes"/>
      <point x="916" y="-9"/>
      <point x="995" y="68"/>
      <point x="1027" y="157" type="curve"/>
      <point x="929" y="157" type="line"/>
      <point x="908" y="105"/>
      <point x="859" y="66"/>
      <point x="780" y="66" type="curve" smooth="yes"/>
      <point x="686" y="66"/>
      <point x="597" y="140"/>
      <point x="597" y="267" type="curve" smooth="yes"/>
      <point x="597" y="282" type="line" smooth="yes"/>
      <point x="597" y="404"/>
      <point x="683" y="483"/>
      <point x="781" y="483" type="curve" smooth="yes"/>
      <point x="879" y="483"/>
      <point x="951" y="417"/>
      <point x="952" y="309" type="curve"/>
      <point x="581" y="309" type="line"/>
    </contour>
    <contour>
      <point x="132" y="278" type="curve" smooth="yes"/>
      <point x="132" y="407"/>
      <point x="221" y="479"/>
      <point x="317" y="479" type="curve" smooth="yes"/>
      <point x="415" y="479"/>
      <point x="503" y="403"/>
      <point x="503" y="274" type="curve" smooth="yes"/>
      <point x="503" y="146"/>
      <point x="415" y="69"/>
      <point x="317" y="69" type="curve" smooth="yes"/>
      <point x="221" y="69"/>
      <point x="132" y="149"/>
    </contour>
  </outline>
</glyph>
<glyph name="eth" format="1">
  <advance width="630"/>
  <unicode hex="00F0"/>
  <outline>
    <contour>
      <point x="498" y="274" type="curve" smooth="yes"/>
      <point x="498" y="138"/>
      <point x="405" y="66"/>
      <point x="308" y="66" type="curve" smooth="yes"/>
      <point x="211" y="66"/>
      <point x="131" y="138"/>
      <point x="131" y="274" type="curve" smooth="yes"/>
      <point x="131" y="412"/>
      <point x="216" y="483"/>
      <point x="313" y="483" type="curve" smooth="yes"/>
      <point x="410" y="483"/>
      <point x="498" y="412"/>
    </contour>
    <contour>
      <point x="39" y="274" type="curve" smooth="yes"/>
      <point x="39" y="103"/>
      <point x="153" y="-9"/>
      <point x="308" y="-9" type="curve" smooth="yes"/>
      <point x="471" y="-9"/>
      <point x="591" y="99"/>
      <point x="591" y="317" type="curve" smooth="yes"/>
      <point x="591" y="482"/>
      <point x="516" y="621"/>
      <point x="371" y="740" type="curve"/>
      <point x="271" y="740" type="line"/>
      <point x="384" y="649"/>
      <point x="446" y="579"/>
      <point x="482" y="490" type="curve"/>
      <point x="434" y="535"/>
      <point x="384" y="558"/>
      <point x="313" y="558" type="curve" smooth="yes"/>
      <point x="158" y="558"/>
      <point x="39" y="447"/>
    </contour>
    <contour>
      <point x="262" y="647" type="line"/>
      <point x="262" y="588" type="line"/>
      <point x="553" y="686" type="line"/>
      <point x="553" y="745" type="line"/>
    </contour>
  </outline>
</glyph>
<glyph name="divide" format="1">
  <advance width="708"/>
  <unicode hex="00F7"/>
  <outline>
    <contour>
      <point x="365" y="95" type="curve" smooth="yes"/>
      <point x="397" y="95"/>
      <point x="423" y="121"/>
      <point x="423" y="153" type="curve" smooth="yes"/>
      <point x="423" y="185"/>
      <point x="397" y="211"/>
      <point x="365" y="211" type="curve" smooth="yes"/>
      <point x="332" y="211"/>
      <point x="306" y="185"/>
      <point x="306" y="153" type="curve" smooth="yes"/>
      <point x="306" y="121"/>
      <point x="332" y="95"/>
    </contour>
    <contour>
      <point x="365" y="520" type="curve" smooth="yes"/>
      <point x="397" y="520"/>
      <point x="423" y="546"/>
      <point x="423" y="579" type="curve" smooth="yes"/>
      <point x="423" y="611"/>
      <point x="397" y="637"/>
      <point x="365" y="637" type="curve" smooth="yes"/>
      <point x="332" y="637"/>
      <point x="306" y="611"/>
      <point x="306" y="579" type="curve" smooth="yes"/>
      <point x="306" y="546"/>
      <point x="332" y="520"/>
    </contour>
    <contour>
      <point x="110" y="326" type="line"/>
      <point x="619" y="326" type="line"/>
      <point x="619" y="406" type="line"/>
      <point x="110" y="406" type="line"/>
    </contour>
  </outline>
</glyph>
<glyph name="oslash" format="1">
  <advance width="632"/>
  <unicode hex="00F8"/>
  <outline>
    <contour>
      <point x="29" y="0" type="line"/>
      <point x="103" y="0" type="line"/>
      <point x="603" y="549" type="line"/>
      <point x="529" y="549" type="line"/>
    </contour>
    <component base="o"/>
  </outline>
</glyph>
<glyph name="Aogonek" format="1">
  <advance width="691"/>
  <unicode hex="0104"/>
  <outline>
    <contour>
      <point x="148" y="152" type="line"/>
      <point x="541" y="152" type="line"/>
      <point x="517" y="224" type="line"/>
      <point x="171" y="224" type="line"/>
    </contour>
    <contour>
      <point x="44" y="0" type="line"/>
      <point x="137" y="0" type="line"/>
      <point x="355" y="608" type="line"/>
      <point x="336" y="608" type="line"/>
      <point x="562" y="-24" type="line"/>
      <point x="572" y="2" type="line"/>
      <point x="504" y="-4"/>
      <point x="462" y="-40"/>
      <point x="462" y="-97" type="curve" smooth="yes"/>
      <point x="462" y="-161"/>
      <point x="515" y="-202"/>
      <point x="588" y="-202" type="curve" smooth="yes"/>
      <point x="679" y="-202" type="line"/>
      <point x="679" y="-139" type="line"/>
      <point x="600" y="-139" type="line" smooth="yes"/>
      <point x="565" y="-139"/>
      <point x="544" y="-127"/>
      <point x="544" y="-97" type="curve" smooth="yes"/>
      <point x="544" y="-67"/>
      <point x="565" y="-56"/>
      <point x="600" y="-56" type="curve" smooth="yes"/>
      <point x="647" y="-56" type="line"/>
      <point x="647" y="2" type="line"/>
      <point x="396" y="693" type="line"/>
      <point x="296" y="693" type="line"/>
    </contour>
  </outline>
</glyph>
<glyph name="dcroat" format="1">
  <advance width="670"/>
  <unicode hex="0111"/>
  <outline>
    <contour>
      <point x="419" y="590" type="line"/>
      <point x="655" y="590" type="line"/>
      <point x="655" y="649" type="line"/>
      <point x="419" y="649" type="line"/>
    </contour>
    <component base="d"/>
  </outline>
</glyph>
<glyph name="eogonek" format="1">
  <advance width="611"/>
  <unicode hex="0119"/>
  <outline>
    <contour>
      <point x="39" y="274" type="curve" smooth="yes"/>
      <point x="39" y="111"/>
      <point x="139" y="1"/>
      <point x="283" y="-9" type="curve"/>
      <point x="281" y="-17"/>
      <point x="279" y="-26"/>
      <point x="279" y="-36" type="curve" smooth="yes"/>
      <point x="279" y="-101"/>
      <point x="332" y="-141"/>
      <point x="406" y="-141" type="curve" smooth="yes"/>
      <point x="497" y="-141" type="line"/>
      <point x="497" y="-78" type="line"/>
      <point x="418" y="-78" type="line" smooth="yes"/>
      <point x="383" y="-78"/>
      <point x="362" y="-66"/>
      <point x="362" y="-36" type="curve" smooth="yes"/>
      <point x="362" y="-12"/>
      <point x="379" y="-3"/>
      <point x="408" y="8" type="curve" smooth="yes"/>
      <point x="479" y="35"/>
      <point x="530" y="90"/>
      <point x="554" y="157" type="curve"/>
      <point x="456" y="157" type="line"/>
      <point x="434" y="106"/>
      <point x="384" y="66"/>
      <point x="305" y="66" type="curve" smooth="yes"/>
      <point x="206" y="66"/>
      <point x="132" y="136"/>
      <point x="132" y="255" type="curve" smooth="yes"/>
      <point x="132" y="290" type="line" smooth="yes"/>
      <point x="132" y="412"/>
      <point x="207" y="483"/>
      <point x="305" y="483" type="curve" smooth="yes"/>
      <point x="401" y="483"/>
      <point x="477" y="417"/>
      <point x="478" y="309" type="curve"/>
      <point x="121" y="309" type="line"/>
      <point x="121" y="243" type="line"/>
      <point x="569" y="243" type="line"/>
      <point x="572" y="262"/>
      <point x="573" y="280"/>
      <point x="573" y="297" type="curve" smooth="yes"/>
      <point x="573" y="447"/>
      <point x="468" y="558"/>
      <point x="312" y="558" type="curve" smooth="yes"/>
      <point x="149" y="558"/>
      <point x="39" y="447"/>
    </contour>
  </outline>
</glyph>
<glyph name="dotlessi" format="1">
  <advance width="241"/>
  <unicode hex="0131"/>
  <outline>
    <contour>
      <point x="121" y="549" type="move" name="top"/>
    </contour>
    <contour>
      <point x="217" y="10" type="move" name="ogonek"/>
    </contour>
    <contour>
      <point x="75" y="0" type="line"/>
      <point x="166" y="0" type="line"/>
      <point x="166" y="549" type="line"/>
      <point x="75" y="549" type="line"/>
    </contour>
  </outline>
</glyph>
<glyph name="Lslash" format="1">
  <advance width="429"/>
  <unicode hex="0141"/>
  <outline>
    <contour>
      <point x="4" y="272" type="line"/>
      <point x="286" y="374" type="line"/>
      <point x="286" y="456" type="line"/>
      <point x="4" y="354" type="line"/>
    </contour>
    <contour>
      <point x="91" y="693" type="line"/>
      <point x="91" y="0" type="line"/>
      <point x="425" y="0" type="line"/>
      <point x="425" y="70" type="line"/>
      <point x="182" y="70" type="line"/>
      <point x="182" y="693" type="line"/>
    </contour>
  </outline>
</glyph>
<glyph name="lslash" format="1">
  <advance width="241"/>
  <unicode hex="0142"/>
  <outline>
    <contour>
      <point x="4" y="267" type="line"/>
      <point x="237" y="358" type="line"/>
      <point x="237" y="440" type="line"/>
      <point x="4" y="349" type="line"/>
    </contour>
    <contour>
      <point x="75" y="0" type="line"/>
      <point x="166" y="0" type="line"/>
      <point x="166" y="740" type="line"/>
      <point x="75" y="740" type="line"/>
    </contour>
  </outline>
</glyph>
<glyph name="OE" format="1">
  <advance width="1081"/>
  <unicode hex="0152"/>
  <outline>
    <contour>
      <point x="131" y="347" type="curve" smooth="yes"/>
      <point x="131" y="513"/>
      <point x="243" y="619"/>
      <point x="392" y="619" type="curve" smooth="yes"/>
      <point x="540" y="619"/>
      <point x="651" y="513"/>
      <point x="651" y="347" type="curve" smooth="yes"/>
      <point x="651" y="181"/>
      <point x="540" y="74"/>
      <point x="392" y="74" type="curve" smooth="yes"/>
      <point x="243" y="74"/>
      <point x="131" y="181"/>
    </contour>
    <contour>
      <point x="1017" y="620" type="line"/>
      <point x="1017" y="693" type="line"/>
      <point x="651" y="693" type="line"/>
      <point x="651" y="562" type="line"/>
      <point x="590" y="657"/>
      <point x="498" y="700"/>
      <point x="392" y="700" type="curve" smooth="yes"/>
      <point x="198" y="700"/>
      <point x="39" y="557"/>
      <point x="39" y="347" type="curve" smooth="yes"/>
      <point x="39" y="140"/>
      <point x="196" y="-7"/>
      <point x="392" y="-7" type="curve" smooth="yes"/>
      <point x="498" y="-7"/>
      <point x="590" y="37"/>
      <point x="651" y="130" type="curve"/>
      <point x="651" y="0" type="line"/>
      <point x="1017" y="0" type="line"/>
      <point x="1017" y="72" type="line"/>
      <point x="742" y="72" type="line"/>
      <point x="742" y="313" type="line"/>
      <point x="987" y="313" type="line"/>
      <point x="987" y="385" type="line"/>
      <point x="742" y="385" type="line"/>
      <point x="742" y="620" type="line"/>
    </contour>
  </outline>
</glyph>
<glyph name="oe" format="1">
  <advance width="1071"/>
  <unicode hex="0153"/>
  <outline>
    <contour>
      <point x="498" y="274" type="curve" smooth="yes"/>
      <point x="498" y="138"/>
      <point x="405" y="66"/>
      <point x="308" y="66" type="curve" smooth="yes"/>
      <point x="211" y="66"/>
      <point x="131" y="138"/>
      <point x="131" y="274" type="curve" smooth="yes"/>
      <point x="131" y="412"/>
      <point x="216" y="483"/>
      <point x="313" y="483" type="curve" smooth="yes"/>
      <point x="410" y="483"/>
      <point x="498" y="412"/>
    </contour>
    <contour>
      <point x="39" y="274" type="curve" smooth="yes"/>
      <point x="39" y="103"/>
      <point x="153" y="-9"/>
      <point x="308" y="-9" type="curve" smooth="yes"/>
      <point x="406" y="-9"/>
      <point x="493" y="37"/>
      <point x="543" y="116" type="curve"/>
      <point x="588" y="37"/>
      <point x="667" y="-9"/>
      <point x="765" y="-9" type="curve" smooth="yes"/>
      <point x="900" y="-9"/>
      <point x="982" y="68"/>
      <point x="1014" y="157" type="curve"/>
      <point x="916" y="157" type="line"/>
      <point x="895" y="106"/>
      <point x="845" y="66"/>
      <point x="765" y="66" type="curve" smooth="yes"/>
      <point x="666" y="66"/>
      <point x="593" y="136"/>
      <point x="593" y="255" type="curve" smooth="yes"/>
      <point x="593" y="290" type="line" smooth="yes"/>
      <point x="593" y="412"/>
      <point x="668" y="483"/>
      <point x="765" y="483" type="curve" smooth="yes"/>
      <point x="862" y="483"/>
      <point x="938" y="417"/>
      <point x="939" y="309" type="curve"/>
      <point x="556" y="309" type="line"/>
      <point x="556" y="243" type="line"/>
      <point x="1029" y="243" type="line"/>
      <point x="1032" y="262"/>
      <point x="1033" y="280"/>
      <point x="1033" y="297" type="curve" smooth="yes"/>
      <point x="1033" y="447"/>
      <point x="928" y="558"/>
      <point x="772" y="558" type="curve" smooth="yes"/>
      <point x="670" y="558"/>
      <point x="589" y="512"/>
      <point x="544" y="434" type="curve"/>
      <point x="496" y="512"/>
      <point x="412" y="558"/>
      <point x="316" y="558" type="curve" smooth="yes"/>
      <point x="160" y="558"/>
      <point x="39" y="447"/>
    </contour>
  </outline>
</glyph>
<glyph name="Tcedilla" format="1">
  <advance width="546"/>
  <unicode hex="0162"/>
  <outline>
    <contour>
      <point x="44" y="620" type="line"/>
      <point x="227" y="620" type="line"/>
      <point x="227" y="-61" type="line"/>
      <point x="305" y="-61" type="line" smooth="yes"/>
      <point x="340" y="-61"/>
      <point x="359" y="-75"/>
      <point x="359" y="-103" type="curve" smooth="yes"/>
      <point x="359" y="-131"/>
      <point x="340" y="-146"/>
      <point x="305" y="-146" type="curve" smooth="yes"/>
      <point x="166" y="-146" type="line"/>
      <point x="166" y="-209" type="line"/>
      <point x="315" y="-209" type="line" smooth="yes"/>
      <point x="390" y="-209"/>
      <point x="442" y="-167"/>
      <point x="442" y="-103" type="curve" smooth="yes"/>
      <point x="442" y="-34"/>
      <point x="382" y="6"/>
      <point x="293" y="-1" type="curve"/>
      <point x="318" y="-23" type="line"/>
      <point x="318" y="620" type="line"/>
      <point x="501" y="620" type="line"/>
      <point x="501" y="693" type="line"/>
      <point x="44" y="693" type="line"/>
    </contour>
  </outline>
</glyph>
<glyph name="tcedilla" format="1">
  <advance width="355"/>
  <unicode hex="0163"/>
  <outline>
    <contour>
      <point x="95" y="141" type="line"/>
      <point x="95" y="41"/>
      <point x="147" y="0"/>
      <point x="238" y="0" type="curve" smooth="yes"/>
      <point x="330" y="0" type="line"/>
      <point x="330" y="74" type="line"/>
      <point x="255" y="74" type="line" smooth="yes"/>
      <point x="204" y="74"/>
      <point x="187" y="92"/>
      <point x="187" y="141" type="curve" smooth="yes"/>
      <point x="187" y="685" type="line"/>
      <point x="95" y="685" type="line"/>
    </contour>
    <contour>
      <point x="329" y="475" type="line"/>
      <point x="329" y="549" type="line"/>
      <point x="24" y="549" type="line"/>
      <point x="24" y="475" type="line"/>
    </contour>
    <contour>
      <point x="212" y="53" type="line"/>
      <point x="149" y="53" type="line"/>
      <point x="149" y="-114" type="line"/>
      <point x="204" y="-114" type="line" smooth="yes"/>
      <point x="239" y="-114"/>
      <point x="260" y="-125"/>
      <point x="260" y="-155" type="curve" smooth="yes"/>
      <point x="260" y="-185"/>
      <point x="239" y="-197"/>
      <point x="204" y="-197" type="curve" smooth="yes"/>
      <point x="97" y="-197" type="line"/>
      <point x="97" y="-260" type="line"/>
      <point x="216" y="-260" type="line" smooth="yes"/>
      <point x="289" y="-260"/>
      <point x="342" y="-219"/>
      <point x="342" y="-155" type="curve" smooth="yes"/>
      <point x="342" y="-91"/>
      <point x="289" y="-53"/>
      <point x="212" y="-53" type="curve"/>
    </contour>
  </outline>
</glyph>
<glyph name="Uogonek" format="1">
  <advance width="673"/>
  <unicode hex="0172"/>
  <outline>
    <contour>
      <point x="74" y="243" type="line"/>
      <point x="74" y="91"/>
      <point x="168" y="12"/>
      <point x="290" y="-4" type="curve"/>
      <point x="285" y="-15"/>
      <point x="282" y="-28"/>
      <point x="282" y="-41" type="curve" smooth="yes"/>
      <point x="282" y="-106"/>
      <point x="336" y="-146"/>
      <point x="409" y="-146" type="curve" smooth="yes"/>
      <point x="500" y="-146" type="line"/>
      <point x="500" y="-83" type="line"/>
      <point x="417" y="-83" type="line" smooth="yes"/>
      <point x="383" y="-83"/>
      <point x="365" y="-69"/>
      <point x="365" y="-42" type="curve" smooth="yes"/>
      <point x="365" y="-18"/>
      <point x="381" y="-8"/>
      <point x="431" y="6" type="curve" smooth="yes"/>
      <point x="507" y="27"/>
      <point x="600" y="92"/>
      <point x="600" y="243" type="curve" smooth="yes"/>
      <point x="600" y="693" type="line"/>
      <point x="509" y="693" type="line"/>
      <point x="509" y="243" type="line" smooth="yes"/>
      <point x="509" y="124"/>
      <point x="440" y="72"/>
      <point x="337" y="72" type="curve" smooth="yes"/>
      <point x="234" y="72"/>
      <point x="166" y="124"/>
      <point x="166" y="243" type="curve" smooth="yes"/>
      <point x="166" y="693" type="line"/>
      <point x="74" y="693" type="line"/>
    </contour>
  </outline>
</glyph>
<glyph name="florin" format="1">
  <advance width="330"/>
  <unicode hex="0192"/>
  <outline>
    <contour>
      <point x="23" y="475" type="line"/>
      <point x="300" y="475" type="line"/>
      <point x="307" y="549" type="line"/>
      <point x="29" y="549" type="line"/>
    </contour>
    <contour>
      <point x="106" y="595" type="curve" smooth="yes"/>
      <point x="37" y="-57" type="line" smooth="yes"/>
      <point x="32" y="-105"/>
      <point x="14" y="-123"/>
      <point x="-22" y="-123" type="curve" smooth="yes"/>
      <point x="-38" y="-123" type="line"/>
      <point x="-45" y="-197" type="line"/>
      <point x="-22" y="-197" type="line" smooth="yes"/>
      <point x="69" y="-197"/>
      <point x="118" y="-157"/>
      <point x="128" y="-57" type="curve" smooth="yes"/>
      <point x="197" y="595" type="line" smooth="yes"/>
      <point x="204" y="664"/>
      <point x="234" y="693"/>
      <point x="314" y="693" type="curve"/>
      <point x="322" y="767" type="line"/>
      <point x="185" y="767"/>
      <point x="118" y="715"/>
    </contour>
  </outline>
</glyph>
<glyph name="circumflex" format="1">
  <advance width="297"/>
  <unicode hex="02C6"/>
  <outline>
    <contour>
      <point x="148" y="549" type="move" name="_top"/>
    </contour>
    <contour>
      <point x="287" y="674" type="line"/>
      <point x="148" y="757" type="line"/>
      <point x="10" y="674" type="line"/>
      <point x="10" y="597" type="line"/>
      <point x="148" y="683" type="line"/>
      <point x="287" y="597" type="line"/>
    </contour>
  </outline>
</glyph>
<glyph name="caron" format="1">
  <advance width="297"/>
  <unicode hex="02C7"/>
  <outline>
    <contour>
      <point x="148" y="549" type="move" name="_top"/>
    </contour>
    <contour>
      <point x="148" y="671" type="line"/>
      <point x="10" y="757" type="line"/>
      <point x="10" y="680" type="line"/>
      <point x="148" y="597" type="line"/>
      <point x="287" y="680" type="line"/>
      <point x="287" y="757" type="line"/>
    </contour>
  </outline>
</glyph>
<glyph name="breve" format="1">
  <advance width="305"/>
  <unicode hex="02D8"/>
  <outline>
    <contour>
      <point x="152" y="549" type="move" name="_top"/>
    </contour>
    <contour>
      <point x="295" y="739" type="curve" smooth="yes"/>
      <point x="295" y="758" type="line"/>
      <point x="237" y="758" type="line"/>
      <point x="237" y="711"/>
      <point x="217" y="684"/>
      <point x="152" y="684" type="curve" smooth="yes"/>
      <point x="87" y="684"/>
      <point x="67" y="711"/>
      <point x="67" y="758" type="curve"/>
      <point x="10" y="758" type="line"/>
      <point x="10" y="740" type="line" smooth="yes"/>
      <point x="10" y="667"/>
      <point x="60" y="610"/>
      <point x="152" y="610" type="curve" smooth="yes"/>
      <point x="244" y="610"/>
      <point x="295" y="666"/>
    </contour>
  </outline>
</glyph>
<glyph name="dotaccent" format="1">
  <advance width="128"/>
  <unicode hex="02D9"/>
  <outline>
    <contour>
      <point x="64" y="549" type="move" name="_top"/>
    </contour>
    <contour>
      <point x="64" y="620" type="curve" smooth="yes"/>
      <point x="94" y="620"/>
      <point x="118" y="644"/>
      <point x="118" y="674" type="curve" smooth="yes"/>
      <point x="118" y="704"/>
      <point x="94" y="728"/>
      <point x="64" y="728" type="curve" smooth="yes"/>
      <point x="34" y="728"/>
      <point x="10" y="704"/>
      <point x="10" y="674" type="curve" smooth="yes"/>
      <point x="10" y="644"/>
      <point x="34" y="620"/>
    </contour>
  </outline>
</glyph>
<glyph name="ring" format="1">
  <advance width="229"/>
  <unicode hex="02DA"/>
  <outline>
    <contour>
      <point x="114" y="549" type="move" name="_top"/>
    </contour>
    <contour>
      <point x="10" y="712" type="curve" smooth="yes"/>
      <point x="10" y="647"/>
      <point x="57" y="608"/>
      <point x="114" y="608" type="curve" smooth="yes"/>
      <point x="172" y="608"/>
      <point x="219" y="647"/>
      <point x="219" y="712" type="curve" smooth="yes"/>
      <point x="219" y="777"/>
      <point x="172" y="817"/>
      <point x="114" y="817" type="curve" smooth="yes"/>
      <point x="57" y="817"/>
      <point x="10" y="777"/>
    </contour>
    <contour>
      <point x="167" y="713" type="curve" smooth="yes"/>
      <point x="167" y="682"/>
      <point x="144" y="660"/>
      <point x="114" y="660" type="curve" smooth="yes"/>
      <point x="85" y="660"/>
      <point x="62" y="682"/>
      <point x="62" y="713" type="curve" smooth="yes"/>
      <point x="62" y="744"/>
      <point x="85" y="765"/>
      <point x="114" y="765" type="curve" smooth="yes"/>
      <point x="144" y="765"/>
      <point x="167" y="744"/>
    </contour>
  </outline>
</glyph>
<glyph name="ogonek" format="1">
  <advance width="254"/>
  <unicode hex="02DB"/>
  <outline>
    <contour>
      <point x="196" y="0" type="move" name="_ogonek"/>
    </contour>
    <contour>
      <point x="10" y="-97" type="curve" smooth="yes"/>
      <point x="10" y="-161"/>
      <point x="63" y="-202"/>
      <point x="137" y="-202" type="curve" smooth="yes"/>
      <point x="228" y="-202" type="line"/>
      <point x="228" y="-139" type="line"/>
      <point x="149" y="-139" type="line" smooth="yes"/>
      <point x="114" y="-139"/>
      <point x="93" y="-127"/>
      <point x="93" y="-97" type="curve" smooth="yes"/>
      <point x="93" y="-67"/>
      <point x="114" y="-56"/>
      <point x="149" y="-56" type="curve" smooth="yes"/>
      <point x="196" y="-56" type="line"/>
      <point x="196" y="5" type="line"/>
      <point x="140" y="5" type="line"/>
      <point x="63" y="5"/>
      <point x="10" y="-33"/>
    </contour>
  </outline>
</glyph>
<glyph name="tilde" format="1">
  <advance width="334"/>
  <unicode hex="02DC"/>
  <outline>
    <contour>
      <point x="160" y="549" type="move" name="_top"/>
    </contour>
    <contour>
      <point x="10" y="607" type="curve"/>
      <point x="67" y="607" type="line"/>
      <point x="70" y="635"/>
      <point x="88" y="649"/>
      <point x="109" y="649" type="curve" smooth="yes"/>
      <point x="149" y="649"/>
      <point x="168" y="604"/>
      <point x="220" y="604" type="curve" smooth="yes"/>
      <point x="273" y="604"/>
      <point x="315" y="640"/>
      <point x="324" y="709" type="curve"/>
      <point x="267" y="709" type="line"/>
      <point x="264" y="680"/>
      <point x="246" y="667"/>
      <point x="225" y="667" type="curve" smooth="yes"/>
      <point x="185" y="667"/>
      <point x="167" y="711"/>
      <point x="115" y="711" type="curve" smooth="yes"/>
      <point x="61" y="711"/>
      <point x="19" y="676"/>
    </contour>
  </outline>
</glyph>
<glyph name="hungarumlaut" format="1">
  <advance width="333"/>
  <unicode hex="02DD"/>
  <outline>
    <contour>
      <point x="125" y="549" type="move" name="_top"/>
    </contour>
    <contour>
      <point x="240" y="755" type="line"/>
      <point x="160" y="601" type="line"/>
      <point x="222" y="601" type="line"/>
      <point x="323" y="755" type="line"/>
    </contour>
    <contour>
      <point x="77" y="755" type="line"/>
      <point x="10" y="601" type="line"/>
      <point x="72" y="601" type="line"/>
      <point x="161" y="755" type="line"/>
    </contour>
  </outline>
</glyph>
<glyph name="pi" format="1">
  <advance width="706"/>
  <unicode hex="03C0"/>
  <outline>
    <contour>
      <point x="36" y="476" type="line"/>
      <point x="114" y="476" type="line"/>
      <point x="114" y="0" type="line"/>
      <point x="205" y="0" type="line"/>
      <point x="205" y="476" type="line"/>
      <point x="493" y="476" type="line"/>
      <point x="493" y="0" type="line"/>
      <point x="584" y="0" type="line"/>
      <point x="584" y="476" type="line"/>
      <point x="663" y="476" type="line"/>
      <point x="663" y="549" type="line"/>
      <point x="36" y="549" type="line"/>
    </contour>
  </outline>
</glyph>
<glyph name="dvCandrabindu" format="1">
  <advance width="0"/>
  <unicode hex="0901"/>
  <outline>
    <contour>
      <point x="-95" y="740" type="move" name="_abvm.e"/>
    </contour>
    <contour>
      <point x="53" y="995" type="curve"/>
      <point x="-22" y="995" type="line"/>
      <point x="-22" y="939"/>
      <point x="-56" y="885"/>
      <point x="-139" y="885" type="curve" smooth="yes"/>
      <point x="-221" y="885"/>
      <point x="-256" y="939"/>
      <point x="-256" y="995" type="curve"/>
      <point x="-331" y="995" type="line"/>
      <point x="-331" y="898"/>
      <point x="-275" y="817"/>
      <point x="-139" y="817" type="curve" smooth="yes"/>
      <point x="-2" y="817"/>
      <point x="53" y="898"/>
    </contour>
    <contour>
      <point x="-139" y="971" type="curve" smooth="yes"/>
      <point x="-110" y="971"/>
      <point x="-86" y="994"/>
      <point x="-86" y="1024" type="curve" smooth="yes"/>
      <point x="-86" y="1053"/>
      <point x="-110" y="1076"/>
      <point x="-139" y="1076" type="curve" smooth="yes"/>
      <point x="-168" y="1076"/>
      <point x="-192" y="1053"/>
      <point x="-192" y="1024" type="curve" smooth="yes"/>
      <point x="-192" y="994"/>
      <point x="-168" y="971"/>
    </contour>
  </outline>
</glyph>
<glyph name="dvAnusvara" format="1">
  <advance width="0"/>
  <unicode hex="0902"/>
  <outline>
    <contour>
      <point x="-95" y="740" type="move" name="_abvm.e"/>
    </contour>
    <contour>
      <point x="-137" y="840" type="curve" smooth="yes"/>
      <point x="-105" y="840"/>
      <point x="-79" y="867"/>
      <point x="-79" y="899" type="curve" smooth="yes"/>
      <point x="-79" y="931"/>
      <point x="-105" y="957"/>
      <point x="-137" y="957" type="curve" smooth="yes"/>
      <point x="-170" y="957"/>
      <point x="-196" y="931"/>
      <point x="-196" y="899" type="curve" smooth="yes"/>
      <point x="-196" y="867"/>
      <point x="-170" y="840"/>
    </contour>
  </outline>
</glyph>
<glyph name="dvVisarga" format="1">
  <advance width="166"/>
  <unicode hex="0903"/>
  <outline>
    <contour>
      <point x="83" y="444" type="curve" smooth="yes"/>
      <point x="113" y="444"/>
      <point x="138" y="468"/>
      <point x="138" y="498" type="curve" smooth="yes"/>
      <point x="138" y="529"/>
      <point x="113" y="553"/>
      <point x="83" y="553" type="curve" smooth="yes"/>
      <point x="53" y="553"/>
      <point x="28" y="529"/>
      <point x="28" y="498" type="curve" smooth="yes"/>
      <point x="28" y="468"/>
      <point x="53" y="444"/>
    </contour>
    <contour>
      <point x="83" y="143" type="curve" smooth="yes"/>
      <point x="113" y="143"/>
      <point x="138" y="168"/>
      <point x="138" y="198" type="curve" smooth="yes"/>
      <point x="138" y="228"/>
      <point x="113" y="253"/>
      <point x="83" y="253" type="curve" smooth="yes"/>
      <point x="53" y="253"/>
      <point x="28" y="228"/>
      <point x="28" y="198" type="curve" smooth="yes"/>
      <point x="28" y="168"/>
      <point x="53" y="143"/>
    </contour>
  </outline>
</glyph>
<glyph name="dvA" format="1">
  <advance width="831"/>
  <unicode hex="0905"/>
  <outline>
    <contour>
      <point x="650" y="0" type="line"/>
      <point x="736" y="0" type="line"/>
      <point x="736" y="663" type="line"/>
      <point x="867" y="663" type="line"/>
      <point x="867" y="740" type="line"/>
      <point x="650" y="740" type="line"/>
      <point x="650" y="398" type="line"/>
      <point x="401" y="398" type="line"/>
      <point x="421" y="326" type="line"/>
      <point x="650" y="326" type="line"/>
    </contour>
    <contour>
      <point x="255" y="453" type="line"/>
      <point x="255" y="376" type="line"/>
      <point x="255" y="376"/>
      <point x="290" y="376"/>
      <point x="292" y="376" type="curve" smooth="yes"/>
      <point x="377" y="376"/>
      <point x="431" y="338"/>
      <point x="431" y="257" type="curve" smooth="yes"/>
      <point x="431" y="178"/>
      <point x="381" y="127"/>
      <point x="301" y="127" type="curve" smooth="yes"/>
      <point x="222" y="127"/>
      <point x="167" y="178"/>
      <point x="167" y="257" type="curve"/>
      <point x="86" y="257" type="line"/>
      <point x="86" y="131"/>
      <point x="176" y="54"/>
      <point x="300" y="54" type="curve" smooth="yes"/>
      <point x="425" y="54"/>
      <point x="511" y="131"/>
      <point x="511" y="257" type="curve" smooth="yes"/>
      <point x="511" y="330"/>
      <point x="471" y="393"/>
      <point x="395" y="415" type="curve"/>
      <point x="395" y="420" type="line"/>
      <point x="464" y="443"/>
      <point x="500" y="495"/>
      <point x="500" y="566" type="curve" smooth="yes"/>
      <point x="500" y="679"/>
      <point x="414" y="750"/>
      <point x="298" y="750" type="curve" smooth="yes"/>
      <point x="182" y="750"/>
      <point x="94" y="677"/>
      <point x="94" y="563" type="curve"/>
      <point x="174" y="563" type="line"/>
      <point x="175" y="632"/>
      <point x="227" y="677"/>
      <point x="297" y="677" type="curve" smooth="yes"/>
      <point x="371" y="677"/>
      <point x="419" y="632"/>
      <point x="419" y="563" type="curve" smooth="yes"/>
      <point x="419" y="490"/>
      <point x="360" y="453"/>
      <point x="287" y="453" type="curve" smooth="yes"/>
    </contour>
  </outline>
</glyph>
<glyph name="dvI" format="1">
  <advance width="595"/>
  <unicode hex="0907"/>
  <outline>
    <contour>
      <point x="631" y="663" type="line"/>
      <point x="631" y="740" type="line"/>
      <point x="-36" y="740" type="line"/>
      <point x="-36" y="663" type="line"/>
    </contour>
    <contour>
      <point x="402" y="509" type="line"/>
      <point x="488" y="509" type="line"/>
      <point x="488" y="718" type="line"/>
      <point x="402" y="718" type="line"/>
    </contour>
    <contour>
      <point x="107" y="-77" type="line"/>
      <point x="191" y="-77" type="line"/>
      <point x="191" y="56" type="line"/>
      <point x="224" y="11"/>
      <point x="278" y="-12"/>
      <point x="354" y="-12" type="curve" smooth="yes"/>
      <point x="478" y="-12"/>
      <point x="548" y="61"/>
      <point x="548" y="157" type="curve" smooth="yes"/>
      <point x="548" y="300"/>
      <point x="434" y="320"/>
      <point x="323" y="320" type="curve" smooth="yes"/>
      <point x="250" y="320"/>
      <point x="195" y="331"/>
      <point x="195" y="402" type="curve" smooth="yes"/>
      <point x="195" y="470"/>
      <point x="256" y="482"/>
      <point x="326" y="482" type="curve" smooth="yes"/>
      <point x="488" y="482" type="line"/>
      <point x="488" y="550" type="line"/>
      <point x="431" y="557" type="line"/>
      <point x="315" y="557" type="line" smooth="yes"/>
      <point x="210" y="557"/>
      <point x="109" y="523"/>
      <point x="109" y="405" type="curve" smooth="yes"/>
      <point x="109" y="276"/>
      <point x="209" y="248"/>
      <point x="327" y="248" type="curve" smooth="yes"/>
      <point x="396" y="248"/>
      <point x="464" y="241"/>
      <point x="464" y="161" type="curve" smooth="yes"/>
      <point x="464" y="92"/>
      <point x="413" y="62"/>
      <point x="337" y="62" type="curve" smooth="yes"/>
      <point x="240" y="62"/>
      <point x="196" y="115"/>
      <point x="191" y="197" type="curve"/>
      <point x="107" y="197" type="line"/>
    </contour>
  </outline>
</glyph>
<glyph name="dvU" format="1">
  <advance width="581"/>
  <unicode hex="0909"/>
  <outline>
    <contour>
      <point x="484" y="710" type="line"/>
      <point x="403" y="701" type="line"/>
      <point x="403" y="629" type="line"/>
      <point x="403" y="521"/>
      <point x="377" y="443"/>
      <point x="270" y="443" type="curve" smooth="yes"/>
      <point x="237" y="443" type="line"/>
      <point x="237" y="364" type="line"/>
      <point x="237" y="364"/>
      <point x="270" y="364"/>
      <point x="272" y="364" type="curve" smooth="yes"/>
      <point x="359" y="364"/>
      <point x="435" y="319"/>
      <point x="435" y="221" type="curve" smooth="yes"/>
      <point x="435" y="139"/>
      <point x="382" y="82"/>
      <point x="298" y="82" type="curve" smooth="yes"/>
      <point x="212" y="82"/>
      <point x="146" y="148"/>
      <point x="146" y="234" type="curve"/>
      <point x="66" y="234" type="line"/>
      <point x="66" y="99"/>
      <point x="157" y="8"/>
      <point x="298" y="8" type="curve" smooth="yes"/>
      <point x="432" y="8"/>
      <point x="514" y="88"/>
      <point x="514" y="222" type="curve" smooth="yes"/>
      <point x="514" y="314"/>
      <point x="462" y="377"/>
      <point x="388" y="402" type="curve"/>
      <point x="388" y="407" type="line"/>
      <point x="472" y="449"/>
      <point x="484" y="527"/>
      <point x="484" y="631" type="curve"/>
    </contour>
    <contour>
      <point x="617" y="663" type="line"/>
      <point x="617" y="740" type="line"/>
      <point x="-37" y="740" type="line"/>
      <point x="-37" y="663" type="line"/>
    </contour>
  </outline>
</glyph>
<glyph name="dvUU" format="1">
  <advance width="855"/>
  <unicode hex="090A"/>
  <outline>
    <contour>
      <point x="483" y="710" type="line"/>
      <point x="403" y="701" type="line"/>
      <point x="403" y="629" type="line" smooth="yes"/>
      <point x="403" y="521"/>
      <point x="376" y="443"/>
      <point x="270" y="443" type="curve" smooth="yes"/>
      <point x="236" y="443" type="line"/>
      <point x="236" y="364" type="line"/>
      <point x="236" y="364"/>
      <point x="270" y="364"/>
      <point x="272" y="364" type="curve" smooth="yes"/>
      <point x="358" y="364"/>
      <point x="434" y="319"/>
      <point x="434" y="221" type="curve" smooth="yes"/>
      <point x="434" y="137"/>
      <point x="381" y="82"/>
      <point x="297" y="82" type="curve" smooth="yes"/>
      <point x="211" y="82"/>
      <point x="145" y="148"/>
      <point x="145" y="234" type="curve"/>
      <point x="66" y="234" type="line"/>
      <point x="66" y="100"/>
      <point x="157" y="8"/>
      <point x="297" y="8" type="curve" smooth="yes"/>
      <point x="431" y="8"/>
      <point x="513" y="88"/>
      <point x="513" y="222" type="curve" smooth="yes"/>
      <point x="513" y="313"/>
      <point x="460" y="375"/>
      <point x="387" y="401" type="curve"/>
      <point x="387" y="407" type="line"/>
      <point x="471" y="449"/>
      <point x="483" y="527"/>
      <point x="483" y="631" type="curve" smooth="yes"/>
    </contour>
    <contour>
      <point x="891" y="663" type="line"/>
      <point x="891" y="740" type="line"/>
      <point x="-36" y="740" type="line"/>
      <point x="-36" y="663" type="line"/>
    </contour>
    <contour>
      <point x="372" y="401" type="line"/>
      <point x="413" y="327" type="line"/>
      <point x="560" y="327" type="line"/>
      <point x="578" y="327" type="line"/>
      <point x="667" y="327"/>
      <point x="724" y="305"/>
      <point x="724" y="211" type="curve" smooth="yes"/>
      <point x="724" y="105"/>
      <point x="656" y="88"/>
      <point x="552" y="96" type="curve"/>
      <point x="552" y="27" type="line"/>
      <point x="697" y="12"/>
      <point x="808" y="53"/>
      <point x="808" y="212" type="curve"/>
      <point x="808" y="350"/>
      <point x="717" y="401"/>
      <point x="578" y="401" type="curve"/>
      <point x="559" y="401" type="line"/>
    </contour>
  </outline>
</glyph>
<glyph name="dvvR" format="1">
  <advance width="980"/>
  <unicode hex="090B"/>
  <outline>
    <contour>
      <point x="485" y="0" type="line"/>
      <point x="571" y="0" type="line"/>
      <point x="571" y="269"/>
      <point x="571" y="663"/>
      <point x="571" y="663" type="curve"/>
      <point x="1016" y="663" type="line"/>
      <point x="1016" y="740" type="line"/>
      <point x="-36" y="740" type="line"/>
      <point x="-36" y="663" type="line"/>
      <point x="485" y="663" type="line"/>
    </contour>
    <contour>
      <point x="149" y="305" type="line"/>
      <point x="149" y="416"/>
      <point x="215" y="487"/>
      <point x="321" y="487" type="curve" smooth="yes"/>
      <point x="424" y="487"/>
      <point x="485" y="413"/>
      <point x="485" y="307" type="curve"/>
      <point x="526" y="302" type="line"/>
      <point x="535" y="435"/>
      <point x="467" y="564"/>
      <point x="307" y="564" type="curve" smooth="yes"/>
      <point x="159" y="564"/>
      <point x="64" y="459"/>
      <point x="64" y="305" type="curve"/>
    </contour>
    <contour>
      <point x="113" y="5" type="curve"/>
      <point x="113" y="0" type="line"/>
      <point x="223" y="0" type="line"/>
      <point x="516" y="301" type="line"/>
      <point x="487" y="368" type="line"/>
      <point x="487" y="368"/>
      <point x="123" y="15"/>
    </contour>
    <contour>
      <point x="809" y="562" type="line"/>
      <point x="809" y="214" type="line"/>
      <point x="891" y="222" type="line"/>
      <point x="891" y="562" type="line"/>
    </contour>
    <contour>
      <point x="889" y="280" type="line"/>
      <point x="855" y="280" type="line" smooth="yes"/>
      <point x="741" y="280"/>
      <point x="671" y="214"/>
      <point x="671" y="110" type="curve" smooth="yes"/>
      <point x="671" y="-9"/>
      <point x="760" y="-63"/>
      <point x="866" y="-63" type="curve" smooth="yes"/>
      <point x="888" y="-63"/>
      <point x="914" y="-60"/>
      <point x="933" y="-53" type="curve"/>
      <point x="933" y="17" type="line"/>
      <point x="913" y="11"/>
      <point x="891" y="8"/>
      <point x="870" y="8" type="curve" smooth="yes"/>
      <point x="807" y="8"/>
      <point x="752" y="37"/>
      <point x="752" y="111" type="curve" smooth="yes"/>
      <point x="752" y="175"/>
      <point x="790" y="213"/>
      <point x="862" y="214" type="curve" smooth="yes"/>
      <point x="863" y="214"/>
      <point x="889" y="214"/>
      <point x="891" y="214" type="curve"/>
    </contour>
    <contour>
      <point x="750" y="397" type="line"/>
      <point x="850" y="397"/>
      <point x="891" y="440"/>
      <point x="891" y="537" type="curve" smooth="yes"/>
      <point x="891" y="574" type="line"/>
      <point x="809" y="574" type="line"/>
      <point x="809" y="539" type="line" smooth="yes"/>
      <point x="809" y="489"/>
      <point x="802" y="470"/>
      <point x="750" y="470" type="curve" smooth="yes"/>
      <point x="541" y="470" type="line"/>
      <point x="541" y="397" type="line"/>
    </contour>
  </outline>
</glyph>
<glyph name="dvvL" format="1">
  <advance width="907"/>
  <unicode hex="090C"/>
  <outline>
    <contour>
      <point x="810" y="-67" type="curve" smooth="yes"/>
      <point x="832" y="-67"/>
      <point x="859" y="-64"/>
      <point x="879" y="-59" type="curve"/>
      <point x="879" y="12" type="line"/>
      <point x="858" y="6"/>
      <point x="836" y="3"/>
      <point x="815" y="3" type="curve" smooth="yes"/>
      <point x="752" y="3"/>
      <point x="697" y="33"/>
      <point x="697" y="106" type="curve"/>
      <point x="697" y="171"/>
      <point x="735" y="209"/>
      <point x="807" y="209" type="curve" smooth="yes"/>
      <point x="808" y="209"/>
      <point x="829" y="209"/>
      <point x="830" y="209" type="curve"/>
      <point x="834" y="235"/>
      <point x="836" y="259"/>
      <point x="836" y="282" type="curve" smooth="yes"/>
      <point x="836" y="414"/>
      <point x="774" y="491"/>
      <point x="678" y="508" type="curve"/>
      <point x="678" y="663" type="line"/>
      <point x="943" y="663" type="line"/>
      <point x="943" y="740" type="line"/>
      <point x="-36" y="740" type="line"/>
      <point x="-36" y="663" type="line"/>
      <point x="593" y="663" type="line"/>
      <point x="593" y="505" type="line"/>
      <point x="527" y="496"/>
      <point x="479" y="456"/>
      <point x="460" y="391" type="curve"/>
      <point x="436" y="468"/>
      <point x="372" y="512"/>
      <point x="286" y="512" type="curve" smooth="yes"/>
      <point x="147" y="512"/>
      <point x="82" y="418"/>
      <point x="82" y="271" type="curve" smooth="yes"/>
      <point x="82" y="107"/>
      <point x="187" y="4"/>
      <point x="355" y="19" type="curve"/>
      <point x="355" y="97" type="line"/>
      <point x="229" y="88"/>
      <point x="168" y="158"/>
      <point x="168" y="272" type="curve" smooth="yes"/>
      <point x="168" y="365"/>
      <point x="199" y="434"/>
      <point x="291" y="434" type="curve" smooth="yes"/>
      <point x="397" y="434"/>
      <point x="424" y="341"/>
      <point x="419" y="226" type="curve"/>
      <point x="501" y="226" type="line"/>
      <point x="496" y="341"/>
      <point x="522" y="434"/>
      <point x="629" y="434" type="curve"/>
      <point x="735" y="434"/>
      <point x="756" y="344"/>
      <point x="752" y="269" type="curve"/>
      <point x="667" y="255"/>
      <point x="617" y="193"/>
      <point x="617" y="105" type="curve" smooth="yes"/>
      <point x="617" y="-14"/>
      <point x="704" y="-67"/>
    </contour>
  </outline>
</glyph>
<glyph name="dvEcandra" format="1">
  <advance width="629"/>
  <unicode hex="090D"/>
  <outline>
    <contour>
      <point x="251" y="1005" type="curve"/>
      <point x="175" y="1005" type="line"/>
      <point x="175" y="916"/>
      <point x="215" y="845"/>
      <point x="312" y="845" type="curve" smooth="yes"/>
      <point x="409" y="845"/>
      <point x="449" y="916"/>
      <point x="449" y="1005" type="curve"/>
      <point x="373" y="1005" type="line"/>
      <point x="373" y="926"/>
      <point x="360" y="863"/>
      <point x="312" y="863" type="curve" smooth="yes"/>
      <point x="268" y="863"/>
      <point x="251" y="926"/>
    </contour>
    <component base="dvE" xOffset="-29"/>
  </outline>
</glyph>
<glyph name="dvE" format="1">
  <advance width="661"/>
  <unicode hex="090F"/>
  <outline>
    <contour>
      <point x="697" y="663" type="line"/>
      <point x="697" y="740" type="line"/>
      <point x="-36" y="740" type="line"/>
      <point x="-36" y="663" type="line"/>
    </contour>
    <contour>
      <point x="579" y="678" type="line"/>
      <point x="493" y="678" type="line"/>
      <point x="493" y="542" type="line" smooth="yes"/>
      <point x="493" y="429"/>
      <point x="465" y="409"/>
      <point x="369" y="406" type="curve"/>
      <point x="369" y="327" type="line"/>
      <point x="516" y="326"/>
      <point x="579" y="381"/>
      <point x="579" y="541" type="curve" smooth="yes"/>
    </contour>
    <contour>
      <point x="110" y="271" type="line"/>
      <point x="110" y="124"/>
      <point x="180" y="19"/>
      <point x="353" y="19" type="curve" smooth="yes"/>
      <point x="495" y="19"/>
      <point x="583" y="102"/>
      <point x="583" y="243" type="curve"/>
      <point x="498" y="243" type="line"/>
      <point x="498" y="146"/>
      <point x="448" y="96"/>
      <point x="350" y="96" type="curve" smooth="yes"/>
      <point x="244" y="96"/>
      <point x="197" y="154"/>
      <point x="197" y="263" type="curve" smooth="yes"/>
      <point x="197" y="723" type="line"/>
      <point x="110" y="723" type="line"/>
    </contour>
  </outline>
</glyph>
<glyph name="dvOcandra" format="1">
  <advance width="1111"/>
  <unicode hex="0911"/>
  <outline>
    <contour>
      <point x="1036" y="995" type="curve"/>
      <point x="960" y="995" type="line"/>
      <point x="960" y="939"/>
      <point x="935" y="886"/>
      <point x="852" y="886" type="curve"/>
      <point x="770" y="886"/>
      <point x="744" y="939"/>
      <point x="744" y="995" type="curve"/>
      <point x="668" y="995" type="line"/>
      <point x="668" y="898"/>
      <point x="714" y="817"/>
      <point x="852" y="817" type="curve"/>
      <point x="990" y="817"/>
      <point x="1036" y="898"/>
    </contour>
    <component base="dvA" xOffset="5"/>
    <component base="dvmAA" xOffset="836"/>
  </outline>
</glyph>
<glyph name="dvKHA" format="1">
  <advance width="916"/>
  <unicode hex="0916"/>
  <outline>
    <contour>
      <point x="168" y="341" type="line"/>
      <point x="313" y="345"/>
      <point x="352" y="397"/>
      <point x="352" y="583" type="curve" smooth="yes"/>
      <point x="352" y="671" type="line"/>
      <point x="267" y="673" type="line"/>
      <point x="267" y="584" type="line" smooth="yes"/>
      <point x="267" y="421"/>
      <point x="246" y="408"/>
      <point x="116" y="407" type="curve" smooth="yes"/>
      <point x="115" y="407"/>
      <point x="84" y="407"/>
      <point x="82" y="407" type="curve"/>
      <point x="82" y="238" type="line" smooth="yes"/>
      <point x="82" y="87"/>
      <point x="178" y="-2"/>
      <point x="327" y="-2" type="curve" smooth="yes"/>
      <point x="461" y="-2"/>
      <point x="564" y="69"/>
      <point x="570" y="201" type="curve"/>
      <point x="486" y="201" type="line"/>
      <point x="481" y="121"/>
      <point x="422" y="75"/>
      <point x="327" y="75" type="curve" smooth="yes"/>
      <point x="219" y="75"/>
      <point x="168" y="129"/>
      <point x="168" y="236" type="curve" smooth="yes"/>
    </contour>
    <contour>
      <point x="607" y="474" type="curve" smooth="yes"/>
      <point x="687" y="474"/>
      <point x="737" y="424"/>
      <point x="737" y="343" type="curve"/>
      <point x="767" y="352" type="line"/>
      <point x="780" y="460"/>
      <point x="728" y="548"/>
      <point x="590" y="548" type="curve" smooth="yes"/>
      <point x="473" y="548"/>
      <point x="391" y="463"/>
      <point x="391" y="344" type="curve" smooth="yes"/>
      <point x="391" y="224"/>
      <point x="472" y="139"/>
      <point x="590" y="139" type="curve" smooth="yes"/>
      <point x="720" y="139"/>
      <point x="780" y="227"/>
      <point x="767" y="335" type="curve"/>
      <point x="737" y="344" type="line"/>
      <point x="737" y="264"/>
      <point x="686" y="213"/>
      <point x="607" y="213" type="curve" smooth="yes"/>
      <point x="527" y="213"/>
      <point x="474" y="263"/>
      <point x="474" y="344" type="curve" smooth="yes"/>
      <point x="474" y="424"/>
      <point x="527" y="474"/>
    </contour>
    <contour>
      <point x="737" y="0" type="line"/>
      <point x="821" y="0" type="line"/>
      <point x="821" y="269"/>
      <point x="821" y="663"/>
      <point x="821" y="663" type="curve"/>
      <point x="952" y="663" type="line"/>
      <point x="952" y="740" type="line"/>
      <point x="-36" y="740" type="line"/>
      <point x="-36" y="663" type="line"/>
      <point x="737" y="663" type="line"/>
    </contour>
  </outline>
</glyph>
<glyph name="dvGA" format="1">
  <advance width="714"/>
  <unicode hex="0917"/>
  <outline>
    <contour>
      <point x="331" y="680" type="line"/>
      <point x="248" y="675" type="line"/>
      <point x="248" y="420" type="line"/>
      <point x="248" y="354"/>
      <point x="245" y="299"/>
      <point x="180" y="299" type="curve" smooth="yes"/>
      <point x="116" y="299"/>
      <point x="110" y="352"/>
      <point x="110" y="418" type="curve"/>
      <point x="25" y="418" type="line"/>
      <point x="21" y="296"/>
      <point x="68" y="222"/>
      <point x="179" y="222" type="curve"/>
      <point x="294" y="222"/>
      <point x="331" y="294"/>
      <point x="331" y="421" type="curve"/>
    </contour>
    <contour>
      <point x="750" y="663" type="line"/>
      <point x="750" y="740" type="line"/>
      <point x="-36" y="740" type="line"/>
      <point x="-36" y="663" type="line"/>
      <point x="533" y="663" type="line"/>
      <point x="533" y="0" type="line"/>
      <point x="619" y="0" type="line"/>
      <point x="619" y="663" type="line"/>
    </contour>
  </outline>
</glyph>
<glyph name="dvGHA" format="1">
  <advance width="695"/>
  <unicode hex="0918"/>
  <outline>
    <contour>
      <point x="731" y="740" type="line"/>
      <point x="-36" y="740" type="line"/>
      <point x="-36" y="663" type="line"/>
      <point x="731" y="663" type="line"/>
    </contour>
    <contour>
      <point x="600" y="0" type="line"/>
      <point x="600" y="676" type="line"/>
      <point x="514" y="682" type="line"/>
      <point x="514" y="0" type="line"/>
    </contour>
    <contour>
      <point x="548" y="301" type="curve"/>
      <point x="514" y="356" type="line"/>
      <point x="514" y="248"/>
      <point x="424" y="183"/>
      <point x="316" y="183" type="curve"/>
      <point x="237" y="183"/>
      <point x="161" y="211"/>
      <point x="161" y="292" type="curve" smooth="yes"/>
      <point x="161" y="369"/>
      <point x="226" y="403"/>
      <point x="309" y="403" type="curve" smooth="yes"/>
      <point x="345" y="403" type="line"/>
      <point x="345" y="478" type="line"/>
      <point x="309" y="478" type="line" smooth="yes"/>
      <point x="201" y="478"/>
      <point x="179" y="523"/>
      <point x="179" y="634" type="curve" smooth="yes"/>
      <point x="179" y="675" type="line"/>
      <point x="92" y="677" type="line"/>
      <point x="92" y="634" type="line" smooth="yes"/>
      <point x="92" y="536"/>
      <point x="106" y="477"/>
      <point x="177" y="445" type="curve"/>
      <point x="177" y="439" type="line"/>
      <point x="119" y="415"/>
      <point x="75" y="364"/>
      <point x="75" y="289" type="curve" smooth="yes"/>
      <point x="75" y="167"/>
      <point x="186" y="107"/>
      <point x="301" y="107" type="curve" smooth="yes"/>
      <point x="437" y="107"/>
      <point x="537" y="177"/>
    </contour>
  </outline>
</glyph>
<glyph name="dvCA" format="1">
  <advance width="727"/>
  <unicode hex="091A"/>
  <outline>
    <contour>
      <point x="413" y="527" type="line"/>
      <point x="49" y="527" type="line"/>
      <point x="49" y="455" type="line"/>
      <point x="413" y="455" type="line"/>
    </contour>
    <contour>
      <point x="546" y="350" type="line"/>
      <point x="546" y="253"/>
      <point x="478" y="175"/>
      <point x="382" y="175" type="curve" smooth="yes"/>
      <point x="291" y="175"/>
      <point x="225" y="224"/>
      <point x="225" y="312" type="curve" smooth="yes"/>
      <point x="225" y="403"/>
      <point x="289" y="455"/>
      <point x="384" y="455" type="curve"/>
      <point x="365" y="488" type="line"/>
      <point x="243" y="500"/>
      <point x="141" y="432"/>
      <point x="141" y="304" type="curve" smooth="yes"/>
      <point x="141" y="180"/>
      <point x="243" y="99"/>
      <point x="367" y="99" type="curve" smooth="yes"/>
      <point x="515" y="99"/>
      <point x="567" y="199"/>
      <point x="571" y="268" type="curve"/>
    </contour>
    <contour>
      <point x="546" y="0" type="line"/>
      <point x="632" y="0" type="line"/>
      <point x="632" y="663" type="line"/>
      <point x="763" y="663" type="line"/>
      <point x="763" y="740" type="line"/>
      <point x="-36" y="740" type="line"/>
      <point x="-36" y="663" type="line"/>
      <point x="546" y="663" type="line"/>
    </contour>
  </outline>
</glyph>
<glyph name="dvCHA" format="1">
  <advance width="820"/>
  <unicode hex="091B"/>
  <outline>
    <contour>
      <point x="462" y="-11" type="move" name="blwm.virama"/>
    </contour>
    <contour>
      <point x="641" y="740" type="move" name="abvm.e"/>
    </contour>
    <contour>
      <point x="497" y="-85" type="move" name="blwm.u"/>
    </contour>
    <contour>
      <point x="856" y="663" type="line"/>
      <point x="856" y="740" type="line"/>
      <point x="-36" y="740" type="line"/>
      <point x="-36" y="663" type="line"/>
    </contour>
    <contour>
      <point x="641" y="663" type="line"/>
      <point x="557" y="663" type="line"/>
      <point x="557" y="532" type="line"/>
      <point x="641" y="518" type="line"/>
    </contour>
    <contour>
      <point x="587" y="495" type="curve" smooth="yes"/>
      <point x="647" y="495"/>
      <point x="692" y="453"/>
      <point x="692" y="350" type="curve" smooth="yes"/>
      <point x="692" y="181"/>
      <point x="575" y="108"/>
      <point x="409" y="108" type="curve" smooth="yes"/>
      <point x="288" y="108"/>
      <point x="165" y="141"/>
      <point x="165" y="251" type="curve" smooth="yes"/>
      <point x="165" y="334"/>
      <point x="229" y="375"/>
      <point x="321" y="375" type="curve"/>
      <point x="335" y="375" type="line"/>
      <point x="335" y="450" type="line"/>
      <point x="322" y="450" type="line" smooth="yes"/>
      <point x="204" y="450"/>
      <point x="185" y="499"/>
      <point x="185" y="620" type="curve" smooth="yes"/>
      <point x="185" y="667" type="line"/>
      <point x="99" y="675" type="line"/>
      <point x="99" y="625" type="line" smooth="yes"/>
      <point x="99" y="511"/>
      <point x="114" y="444"/>
      <point x="194" y="417" type="curve"/>
      <point x="194" y="411" type="line"/>
      <point x="125" y="385"/>
      <point x="80" y="329"/>
      <point x="80" y="247" type="curve" smooth="yes"/>
      <point x="80" y="91"/>
      <point x="240" y="32"/>
      <point x="410" y="32" type="curve" smooth="yes"/>
      <point x="634" y="32"/>
      <point x="769" y="152"/>
      <point x="769" y="344" type="curve" smooth="yes"/>
      <point x="769" y="480"/>
      <point x="702" y="567"/>
      <point x="586" y="567" type="curve"/>
      <point x="462" y="565"/>
      <point x="399" y="488"/>
      <point x="404" y="300" type="curve"/>
      <point x="481" y="300" type="line"/>
      <point x="478" y="465"/>
      <point x="525" y="495"/>
    </contour>
  </outline>
</glyph>
<glyph name="dvJA" format="1">
  <advance width="827"/>
  <unicode hex="091C"/>
  <outline>
    <contour>
      <point x="154" y="389" type="curve" smooth="yes"/>
      <point x="154" y="514" type="line"/>
      <point x="68" y="514" type="line"/>
      <point x="68" y="366" type="line" smooth="yes"/>
      <point x="68" y="225"/>
      <point x="99" y="104"/>
      <point x="268" y="104" type="curve" smooth="yes"/>
      <point x="433" y="104"/>
      <point x="465" y="220"/>
      <point x="465" y="366" type="curve" smooth="yes"/>
      <point x="465" y="514" type="line"/>
      <point x="380" y="514" type="line"/>
      <point x="380" y="389" type="line" smooth="yes"/>
      <point x="380" y="269"/>
      <point x="378" y="181"/>
      <point x="268" y="181" type="curve" smooth="yes"/>
      <point x="157" y="181"/>
      <point x="154" y="269"/>
    </contour>
    <contour>
      <point x="646" y="440" type="line"/>
      <point x="646" y="0" type="line"/>
      <point x="732" y="0" type="line"/>
      <point x="732" y="663" type="line"/>
      <point x="863" y="663" type="line"/>
      <point x="863" y="740" type="line"/>
      <point x="-36" y="740" type="line"/>
      <point x="-36" y="663" type="line"/>
      <point x="646" y="663" type="line"/>
      <point x="646" y="514" type="line"/>
      <point x="387" y="514" type="line"/>
      <point x="387" y="440" type="line"/>
    </contour>
  </outline>
</glyph>
<glyph name="dvJHA" format="1">
  <advance width="831"/>
  <unicode hex="091D"/>
  <outline>
    <contour>
      <point x="867" y="663" type="line"/>
      <point x="867" y="740" type="line"/>
      <point x="-36" y="740" type="line"/>
      <point x="-36" y="663" type="line"/>
    </contour>
    <contour>
      <point x="651" y="0" type="line"/>
      <point x="737" y="0" type="line"/>
      <point x="737" y="709" type="line"/>
      <point x="651" y="709" type="line"/>
    </contour>
    <contour>
      <point x="395" y="519" type="line"/>
      <point x="481" y="519" type="line"/>
      <point x="481" y="718" type="line"/>
      <point x="395" y="718" type="line"/>
    </contour>
    <contour>
      <point x="699" y="277" type="line"/>
      <point x="703" y="346" type="line"/>
      <point x="299" y="346" type="line"/>
      <point x="236" y="346"/>
      <point x="187" y="354"/>
      <point x="187" y="421" type="curve" smooth="yes"/>
      <point x="187" y="490"/>
      <point x="248" y="492"/>
      <point x="319" y="492" type="curve" smooth="yes"/>
      <point x="481" y="492" type="line"/>
      <point x="481" y="536" type="line"/>
      <point x="449" y="567" type="line"/>
      <point x="308" y="567" type="line" smooth="yes"/>
      <point x="202" y="567"/>
      <point x="101" y="545"/>
      <point x="101" y="423" type="curve" smooth="yes"/>
      <point x="101" y="291"/>
      <point x="203" y="276"/>
      <point x="316" y="276" type="curve" smooth="yes"/>
      <point x="383" y="276"/>
      <point x="439" y="273"/>
      <point x="439" y="196" type="curve" smooth="yes"/>
      <point x="439" y="135"/>
      <point x="400" y="102"/>
      <point x="324" y="102" type="curve" smooth="yes"/>
      <point x="241" y="102"/>
      <point x="187" y="150"/>
      <point x="183" y="225" type="curve"/>
      <point x="100" y="225" type="line"/>
      <point x="100" y="-36" type="line"/>
      <point x="183" y="-36" type="line"/>
      <point x="183" y="99" type="line"/>
      <point x="211" y="59"/>
      <point x="269" y="29"/>
      <point x="337" y="29" type="curve" smooth="yes"/>
      <point x="462" y="29"/>
      <point x="522" y="105"/>
      <point x="522" y="191" type="curve" smooth="yes"/>
      <point x="522" y="231"/>
      <point x="500" y="264"/>
      <point x="476" y="277" type="curve"/>
    </contour>
  </outline>
</glyph>
<glyph name="dvTTA" format="1">
  <advance width="660"/>
  <unicode hex="091F"/>
  <outline>
    <contour>
      <point x="397" y="4" type="move" name="blwm.virama"/>
    </contour>
    <contour>
      <point x="447" y="740" type="move" name="abvm.e"/>
    </contour>
    <contour>
      <point x="420" y="-75" type="move" name="blwm.u"/>
    </contour>
    <contour>
      <point x="447" y="485" type="line"/>
      <point x="447" y="663" type="line"/>
      <point x="696" y="663" type="line"/>
      <point x="696" y="740" type="line"/>
      <point x="-36" y="740" type="line"/>
      <point x="-36" y="663" type="line"/>
      <point x="362" y="663" type="line"/>
      <point x="362" y="561" type="line"/>
      <point x="195" y="557"/>
      <point x="73" y="468"/>
      <point x="73" y="300" type="curve" smooth="yes"/>
      <point x="73" y="144"/>
      <point x="186" y="42"/>
      <point x="343" y="42" type="curve" smooth="yes"/>
      <point x="503" y="42"/>
      <point x="609" y="142"/>
      <point x="609" y="302" type="curve"/>
      <point x="524" y="302" type="line"/>
      <point x="524" y="189"/>
      <point x="457" y="119"/>
      <point x="343" y="119" type="curve" smooth="yes"/>
      <point x="233" y="119"/>
      <point x="158" y="189"/>
      <point x="158" y="299" type="curve" smooth="yes"/>
      <point x="158" y="428"/>
      <point x="249" y="484"/>
      <point x="379" y="485" type="curve" smooth="yes"/>
    </contour>
  </outline>
</glyph>
<glyph name="dvTTHA" format="1">
  <advance width="669"/>
  <unicode hex="0920"/>
  <outline>
    <contour>
      <point x="396" y="6" type="move" name="blwm.virama"/>
    </contour>
    <contour>
      <point x="386" y="740" type="move" name="abvm.e"/>
    </contour>
    <contour>
      <point x="423" y="-68" type="move" name="blwm.u"/>
    </contour>
    <contour>
      <point x="386" y="557" type="curve"/>
      <point x="386" y="663" type="line"/>
      <point x="705" y="663" type="line"/>
      <point x="705" y="740" type="line"/>
      <point x="-36" y="740" type="line"/>
      <point x="-36" y="663" type="line"/>
      <point x="300" y="663" type="line"/>
      <point x="300" y="557" type="line"/>
      <point x="168" y="540"/>
      <point x="75" y="443"/>
      <point x="75" y="304" type="curve" smooth="yes"/>
      <point x="75" y="150"/>
      <point x="189" y="48"/>
      <point x="343" y="48" type="curve" smooth="yes"/>
      <point x="498" y="48"/>
      <point x="612" y="150"/>
      <point x="612" y="304" type="curve" smooth="yes"/>
      <point x="612" y="444"/>
      <point x="518" y="541"/>
    </contour>
    <contour>
      <point x="343" y="485" type="curve" smooth="yes"/>
      <point x="452" y="485"/>
      <point x="526" y="412"/>
      <point x="526" y="304" type="curve" smooth="yes"/>
      <point x="526" y="196"/>
      <point x="452" y="123"/>
      <point x="343" y="123" type="curve" smooth="yes"/>
      <point x="234" y="123"/>
      <point x="160" y="196"/>
      <point x="160" y="304" type="curve" smooth="yes"/>
      <point x="160" y="412"/>
      <point x="234" y="485"/>
    </contour>
  </outline>
</glyph>
<glyph name="dvDDA" format="1">
  <advance width="582"/>
  <unicode hex="0921"/>
  <outline>
    <contour>
      <point x="367" y="-47" type="move" name="blwm.virama"/>
    </contour>
    <contour>
      <point x="470" y="740" type="move" name="abvm.e"/>
    </contour>
    <contour>
      <point x="387" y="-126" type="move" name="blwm.u"/>
    </contour>
    <contour>
      <point x="618" y="663" type="line"/>
      <point x="618" y="740" type="line"/>
      <point x="-36" y="740" type="line"/>
      <point x="-36" y="663" type="line"/>
    </contour>
    <contour>
      <point x="384" y="509" type="line"/>
      <point x="470" y="509" type="line"/>
      <point x="470" y="718" type="line"/>
      <point x="384" y="718" type="line"/>
    </contour>
    <contour>
      <point x="76" y="197" type="line"/>
      <point x="79" y="63"/>
      <point x="176" y="-12"/>
      <point x="320" y="-12" type="curve" smooth="yes"/>
      <point x="451" y="-12"/>
      <point x="531" y="60"/>
      <point x="531" y="157" type="curve" smooth="yes"/>
      <point x="531" y="299"/>
      <point x="416" y="320"/>
      <point x="305" y="320" type="curve" smooth="yes"/>
      <point x="232" y="320"/>
      <point x="177" y="331"/>
      <point x="177" y="402" type="curve" smooth="yes"/>
      <point x="177" y="470"/>
      <point x="238" y="482"/>
      <point x="308" y="482" type="curve" smooth="yes"/>
      <point x="470" y="482" type="line"/>
      <point x="470" y="526" type="line"/>
      <point x="439" y="557" type="line"/>
      <point x="297" y="557" type="line" smooth="yes"/>
      <point x="192" y="557"/>
      <point x="90" y="523"/>
      <point x="90" y="405" type="curve" smooth="yes"/>
      <point x="90" y="276"/>
      <point x="191" y="248"/>
      <point x="309" y="248" type="curve" smooth="yes"/>
      <point x="379" y="248"/>
      <point x="446" y="241"/>
      <point x="446" y="161" type="curve" smooth="yes"/>
      <point x="446" y="92"/>
      <point x="394" y="62"/>
      <point x="318" y="62" type="curve"/>
      <point x="214" y="62"/>
      <point x="166" y="114"/>
      <point x="161" y="197" type="curve"/>
    </contour>
  </outline>
</glyph>
<glyph name="dvDDHA" format="1">
  <advance width="635"/>
  <unicode hex="0922"/>
  <outline>
    <contour>
      <point x="438" y="-18" type="move" name="blwm.virama"/>
    </contour>
    <contour>
      <point x="475" y="740" type="move" name="abvm.e"/>
    </contour>
    <contour>
      <point x="432" y="-118" type="move" name="blwm.u"/>
    </contour>
    <contour>
      <point x="389" y="495" type="line"/>
      <point x="475" y="495" type="line"/>
      <point x="475" y="663" type="line"/>
      <point x="671" y="663" type="line"/>
      <point x="671" y="740" type="line"/>
      <point x="-36" y="740" type="line"/>
      <point x="-36" y="663" type="line"/>
      <point x="389" y="663" type="line"/>
    </contour>
    <contour>
      <point x="258" y="193" type="curve"/>
      <point x="337" y="193" type="line"/>
      <point x="337" y="251"/>
      <point x="360" y="297"/>
      <point x="425" y="297" type="curve" smooth="yes"/>
      <point x="492" y="297"/>
      <point x="515" y="252"/>
      <point x="515" y="201" type="curve" smooth="yes"/>
      <point x="515" y="131"/>
      <point x="467" y="84"/>
      <point x="373" y="84" type="curve" smooth="yes"/>
      <point x="248" y="84"/>
      <point x="157" y="153"/>
      <point x="157" y="282" type="curve" smooth="yes"/>
      <point x="157" y="427"/>
      <point x="256" y="495"/>
      <point x="402" y="495" type="curve"/>
      <point x="401" y="570" type="line"/>
      <point x="221" y="572"/>
      <point x="72" y="484"/>
      <point x="72" y="283" type="curve" smooth="yes"/>
      <point x="72" y="109"/>
      <point x="202" y="7"/>
      <point x="371" y="7" type="curve" smooth="yes"/>
      <point x="504" y="7"/>
      <point x="598" y="80"/>
      <point x="598" y="202" type="curve" smooth="yes"/>
      <point x="598" y="306"/>
      <point x="526" y="369"/>
      <point x="423" y="369" type="curve" smooth="yes"/>
      <point x="310" y="369"/>
      <point x="257" y="293"/>
    </contour>
  </outline>
</glyph>
<glyph name="dvNNA" format="1">
  <advance width="859"/>
  <unicode hex="0923"/>
  <outline>
    <contour>
      <point x="501" y="408" type="curve" smooth="yes"/>
      <point x="501" y="699" type="line"/>
      <point x="416" y="699" type="line"/>
      <point x="416" y="406" type="line" smooth="yes"/>
      <point x="416" y="310"/>
      <point x="396" y="245"/>
      <point x="300" y="245" type="curve"/>
      <point x="204" y="245"/>
      <point x="183" y="310"/>
      <point x="183" y="406" type="curve" smooth="yes"/>
      <point x="183" y="699" type="line"/>
      <point x="98" y="699" type="line"/>
      <point x="98" y="408" type="line" smooth="yes"/>
      <point x="98" y="264"/>
      <point x="151" y="168"/>
      <point x="300" y="168" type="curve"/>
      <point x="448" y="168"/>
      <point x="501" y="264"/>
    </contour>
    <contour>
      <point x="895" y="663" type="line"/>
      <point x="895" y="740" type="line"/>
      <point x="-36" y="740" type="line"/>
      <point x="-36" y="663" type="line"/>
      <point x="678" y="663" type="line"/>
      <point x="678" y="0" type="line"/>
      <point x="764" y="0" type="line"/>
      <point x="764" y="663" type="line"/>
    </contour>
  </outline>
</glyph>
<glyph name="dvTA" format="1">
  <advance width="673"/>
  <unicode hex="0924"/>
  <outline>
    <contour>
      <point x="341" y="71" type="line"/>
      <point x="203" y="71"/>
      <point x="150" y="134"/>
      <point x="150" y="248" type="curve" smooth="yes"/>
      <point x="150" y="374"/>
      <point x="235" y="421"/>
      <point x="349" y="421" type="curve" smooth="yes"/>
      <point x="401" y="421" type="line"/>
      <point x="493" y="421" type="line"/>
      <point x="493" y="0" type="line"/>
      <point x="579" y="0" type="line"/>
      <point x="579" y="663" type="line"/>
      <point x="709" y="663" type="line"/>
      <point x="709" y="740" type="line"/>
      <point x="-36" y="740" type="line"/>
      <point x="-36" y="663" type="line"/>
      <point x="493" y="663" type="line"/>
      <point x="493" y="497" type="line"/>
      <point x="396" y="497" type="line"/>
      <point x="349" y="497" type="line" smooth="yes"/>
      <point x="184" y="497"/>
      <point x="63" y="427"/>
      <point x="63" y="248" type="curve" smooth="yes"/>
      <point x="63" y="98"/>
      <point x="146" y="-2"/>
      <point x="328" y="-2" type="curve" smooth="yes"/>
      <point x="341" y="-2" type="line"/>
    </contour>
  </outline>
</glyph>
<glyph name="dvTHA" format="1">
  <advance width="759"/>
  <unicode hex="0925"/>
  <outline>
    <contour>
      <point x="795" y="663" type="line"/>
      <point x="795" y="740" type="line"/>
      <point x="578" y="740" type="line"/>
      <point x="578" y="362" type="line"/>
      <point x="574" y="248"/>
      <point x="487" y="171"/>
      <point x="379" y="171" type="curve" smooth="yes"/>
      <point x="240" y="171"/>
      <point x="176" y="259"/>
      <point x="183" y="380" type="curve"/>
      <point x="342" y="377"/>
      <point x="479" y="410"/>
      <point x="479" y="566" type="curve" smooth="yes"/>
      <point x="479" y="679"/>
      <point x="401" y="749"/>
      <point x="295" y="749" type="curve" smooth="yes"/>
      <point x="179" y="749"/>
      <point x="105" y="669"/>
      <point x="109" y="549" type="curve"/>
      <point x="191" y="549" type="line"/>
      <point x="189" y="622"/>
      <point x="222" y="673"/>
      <point x="294" y="673" type="curve" smooth="yes"/>
      <point x="357" y="673"/>
      <point x="394" y="634"/>
      <point x="394" y="569" type="curve" smooth="yes"/>
      <point x="394" y="467"/>
      <point x="316" y="448"/>
      <point x="191" y="448" type="curve" smooth="yes"/>
      <point x="169" y="448"/>
      <point x="121" y="449"/>
      <point x="96" y="450" type="curve"/>
      <point x="70" y="247"/>
      <point x="170" y="95"/>
      <point x="368" y="95" type="curve" smooth="yes"/>
      <point x="484" y="95"/>
      <point x="552" y="150"/>
      <point x="578" y="198" type="curve"/>
      <point x="578" y="0" type="line"/>
      <point x="664" y="0" type="line"/>
      <point x="664" y="663" type="line"/>
    </contour>
  </outline>
</glyph>
<glyph name="dvDA" format="1">
  <advance width="596"/>
  <unicode hex="0926"/>
  <outline>
    <contour>
      <point x="523" y="-38" type="move" name="blwm.virama"/>
    </contour>
    <contour>
      <point x="484" y="740" type="move" name="abvm.e"/>
    </contour>
    <contour>
      <point x="522" y="0" type="move" name="blwm.u"/>
    </contour>
    <contour>
      <point x="522" y="0" type="line"/>
      <point x="522" y="294" type="line"/>
      <point x="444" y="294" type="line"/>
      <point x="444" y="202"/>
      <point x="384" y="170"/>
      <point x="313" y="170" type="curve"/>
      <point x="213" y="170"/>
      <point x="149" y="218"/>
      <point x="149" y="321" type="curve" smooth="yes"/>
      <point x="149" y="452"/>
      <point x="242" y="483"/>
      <point x="370" y="483" type="curve" smooth="yes"/>
      <point x="484" y="483" type="line"/>
      <point x="484" y="663" type="line"/>
      <point x="632" y="663" type="line"/>
      <point x="632" y="740" type="line"/>
      <point x="-36" y="740" type="line"/>
      <point x="-36" y="663" type="line"/>
      <point x="398" y="663" type="line"/>
      <point x="398" y="561" type="line"/>
      <point x="358" y="561" type="line" smooth="yes"/>
      <point x="186" y="561"/>
      <point x="62" y="494"/>
      <point x="62" y="323" type="curve" smooth="yes"/>
      <point x="62" y="180"/>
      <point x="162" y="94"/>
      <point x="301" y="94" type="curve" smooth="yes"/>
      <point x="360" y="94"/>
      <point x="412" y="114"/>
      <point x="436" y="146" type="curve"/>
      <point x="436" y="0" type="line"/>
    </contour>
  </outline>
</glyph>
<glyph name="dvDHA" format="1">
  <advance width="719"/>
  <unicode hex="0927"/>
  <outline>
    <contour>
      <point x="539" y="663" type="line"/>
      <point x="755" y="663" type="line"/>
      <point x="755" y="740" type="line"/>
      <point x="539" y="740" type="line"/>
    </contour>
    <contour>
      <point x="625" y="0" type="line"/>
      <point x="625" y="676" type="line"/>
      <point x="539" y="682" type="line"/>
      <point x="539" y="0" type="line"/>
    </contour>
    <contour>
      <point x="357" y="566" type="curve"/>
      <point x="433" y="566" type="line"/>
      <point x="440" y="673"/>
      <point x="378" y="750"/>
      <point x="267" y="750" type="curve" smooth="yes"/>
      <point x="166" y="750"/>
      <point x="97" y="682"/>
      <point x="97" y="586" type="curve" smooth="yes"/>
      <point x="97" y="507"/>
      <point x="146" y="454"/>
      <point x="205" y="431" type="curve"/>
      <point x="205" y="425" type="line"/>
      <point x="143" y="402"/>
      <point x="100" y="356"/>
      <point x="100" y="282" type="curve" smooth="yes"/>
      <point x="100" y="164"/>
      <point x="211" y="103"/>
      <point x="325" y="103" type="curve" smooth="yes"/>
      <point x="460" y="103"/>
      <point x="567" y="172"/>
      <point x="570" y="293" type="curve"/>
      <point x="539" y="355" type="line"/>
      <point x="539" y="246"/>
      <point x="448" y="179"/>
      <point x="341" y="179" type="curve" smooth="yes"/>
      <point x="265" y="179"/>
      <point x="186" y="209"/>
      <point x="186" y="286" type="curve" smooth="yes"/>
      <point x="186" y="364"/>
      <point x="259" y="389"/>
      <point x="340" y="389" type="curve" smooth="yes"/>
      <point x="386" y="389" type="line"/>
      <point x="386" y="463" type="line"/>
      <point x="335" y="463" type="line" smooth="yes"/>
      <point x="247" y="463"/>
      <point x="179" y="498"/>
      <point x="179" y="583" type="curve" smooth="yes"/>
      <point x="179" y="639"/>
      <point x="214" y="673"/>
      <point x="269" y="673" type="curve" smooth="yes"/>
      <point x="332" y="673"/>
      <point x="359" y="629"/>
    </contour>
  </outline>
</glyph>
<glyph name="dvPA" format="1">
  <advance width="654"/>
  <unicode hex="092A"/>
  <outline>
    <contour>
      <point x="473" y="0" type="line"/>
      <point x="559" y="0" type="line"/>
      <point x="559" y="663" type="line"/>
      <point x="689" y="663" type="line"/>
      <point x="689" y="740" type="line"/>
      <point x="-36" y="740" type="line"/>
      <point x="-36" y="663" type="line"/>
      <point x="90" y="663" type="line"/>
      <point x="90" y="450" type="line" smooth="yes"/>
      <point x="90" y="308"/>
      <point x="162" y="200"/>
      <point x="304" y="200" type="curve" smooth="yes"/>
      <point x="448" y="200"/>
      <point x="490" y="298"/>
      <point x="497" y="352" type="curve"/>
      <point x="473" y="440" type="line"/>
      <point x="473" y="346"/>
      <point x="413" y="277"/>
      <point x="325" y="277" type="curve" smooth="yes"/>
      <point x="217" y="277"/>
      <point x="176" y="346"/>
      <point x="176" y="452" type="curve" smooth="yes"/>
      <point x="176" y="663" type="line"/>
      <point x="473" y="663" type="line"/>
    </contour>
  </outline>
</glyph>
<glyph name="dvPHA" format="1">
  <advance width="990"/>
  <unicode hex="092B"/>
  <outline>
    <contour>
      <point x="544" y="0" type="move" name="blwm.virama"/>
    </contour>
    <contour>
      <point x="544" y="740" type="move" name="abvm.e"/>
    </contour>
    <contour>
      <point x="544" y="0" type="move" name="blwm.u"/>
    </contour>
    <contour>
      <point x="458" y="0" type="line"/>
      <point x="544" y="0" type="line"/>
      <point x="544" y="663" type="line"/>
      <point x="1026" y="663" type="line"/>
      <point x="1026" y="740" type="line"/>
      <point x="-36" y="740" type="line"/>
      <point x="-36" y="663" type="line"/>
      <point x="96" y="663" type="line"/>
      <point x="96" y="482" type="line" smooth="yes"/>
      <point x="96" y="340"/>
      <point x="162" y="233"/>
      <point x="302" y="233" type="curve" smooth="yes"/>
      <point x="426" y="233"/>
      <point x="480" y="321"/>
      <point x="487" y="398" type="curve"/>
      <point x="458" y="481" type="line"/>
      <point x="458" y="388"/>
      <point x="411" y="310"/>
      <point x="323" y="310" type="curve" smooth="yes"/>
      <point x="215" y="310"/>
      <point x="182" y="375"/>
      <point x="182" y="482" type="curve" smooth="yes"/>
      <point x="182" y="663" type="line"/>
      <point x="458" y="663" type="line"/>
    </contour>
    <contour>
      <point x="667" y="102" type="line"/>
      <point x="823" y="90"/>
      <point x="929" y="177"/>
      <point x="929" y="318" type="curve" smooth="yes"/>
      <point x="929" y="449"/>
      <point x="844" y="540"/>
      <point x="714" y="540" type="curve" smooth="yes"/>
      <point x="559" y="540"/>
      <point x="499" y="421"/>
      <point x="513" y="306" type="curve"/>
      <point x="544" y="293" type="line"/>
      <point x="544" y="390"/>
      <point x="600" y="463"/>
      <point x="698" y="463" type="curve" smooth="yes"/>
      <point x="792" y="463"/>
      <point x="844" y="410"/>
      <point x="844" y="317" type="curve" smooth="yes"/>
      <point x="844" y="220"/>
      <point x="772" y="167"/>
      <point x="666" y="176" type="curve"/>
    </contour>
  </outline>
</glyph>
<glyph name="dvBA" format="1">
  <advance width="672"/>
  <unicode hex="092C"/>
  <outline>
    <contour>
      <point x="307" y="86" type="curve" smooth="yes"/>
      <point x="393" y="86"/>
      <point x="457" y="122"/>
      <point x="493" y="177" type="curve"/>
      <point x="493" y="0" type="line"/>
      <point x="577" y="0" type="line"/>
      <point x="577" y="663" type="line"/>
      <point x="708" y="663" type="line"/>
      <point x="708" y="740" type="line"/>
      <point x="-36" y="740" type="line"/>
      <point x="-36" y="663" type="line"/>
      <point x="493" y="663" type="line"/>
      <point x="493" y="484" type="line"/>
      <point x="457" y="539"/>
      <point x="393" y="577"/>
      <point x="307" y="577" type="curve" smooth="yes"/>
      <point x="164" y="577"/>
      <point x="56" y="477"/>
      <point x="56" y="331" type="curve" smooth="yes"/>
      <point x="56" y="186"/>
      <point x="164" y="86"/>
    </contour>
    <contour>
      <point x="138" y="331" type="curve" smooth="yes"/>
      <point x="138" y="439"/>
      <point x="214" y="504"/>
      <point x="321" y="504" type="curve" smooth="yes"/>
      <point x="423" y="504"/>
      <point x="495" y="433"/>
      <point x="495" y="331" type="curve"/>
      <point x="495" y="229"/>
      <point x="420" y="158"/>
      <point x="321" y="158" type="curve" smooth="yes"/>
      <point x="214" y="158"/>
      <point x="138" y="223"/>
    </contour>
    <contour>
      <point x="469" y="182" type="line"/>
      <point x="517" y="223" type="line"/>
      <point x="159" y="502" type="line"/>
      <point x="130" y="447" type="line"/>
    </contour>
  </outline>
</glyph>
